<?xml version="1.0"?>
<!-- Created by MetaPost 1.999 on 2016.03.08:0952 -->
<svg version="1.1" xmlns="http://www.w3.org/2000/svg" xmlns:xlink="http://www.w3.org/1999/xlink" width="514.377243" height="305.450089" viewBox="0 0 514.377243 305.450089">
<!-- Original BoundingBox: -87.643250 -45.470261 426.733994 259.979828 -->
  <defs>
    <g transform="scale(0.009963,0.009963)" id="GLYPHpplr8r_46">
      <path style="fill-rule: evenodd;" d="M124.000000 -111.000000C94.000000 -111.000000,67.000000 -83.000000,67.000000 -53.000000C67.000000 -23.000000,94.000000 5.000000,123.000000 5.000000C155.000000 5.000000,183.000000 -22.000000,183.000000 -53.000000C183.000000 -83.000000,155.000000 -111.000000,124.000000 -111.000000"></path>
    </g>
    <g transform="scale(0.009963,0.009963)" id="GLYPHpplr8r_48">
      <path style="fill-rule: evenodd;" d="M263.000000 -689.000000C108.000000 -689.000000,29.000000 -566.000000,29.000000 -324.000000C29.000000 -207.000000,50.000000 -106.000000,85.000000 -57.000000C120.000000 -8.000000,176.000000 20.000000,238.000000 20.000000C389.000000 20.000000,465.000000 -110.000000,465.000000 -366.000000C465.000000 -585.000000,400.000000 -689.000000,263.000000 -689.000000M245.000000 -654.000000C342.000000 -654.000000,381.000000 -556.000000,381.000000 -316.000000C381.000000 -103.000000,343.000000 -15.000000,251.000000 -15.000000C154.000000 -15.000000,113.000000 -116.000000,113.000000 -360.000000C113.000000 -571.000000,150.000000 -654.000000,245.000000 -654.000000"></path>
    </g>
    <g transform="scale(0.009963,0.009963)" id="GLYPHpplr8r_49">
      <path style="fill-rule: evenodd;" d="M67.000000 -555.000000L77.000000 -555.000000L206.000000 -613.000000C207.000000 -614.000000,208.000000 -614.000000,209.000000 -614.000000C215.000000 -614.000000,217.000000 -605.000000,217.000000 -581.000000L217.000000 -96.000000C217.000000 -44.000000,206.000000 -33.000000,152.000000 -30.000000L96.000000 -27.000000L96.000000 3.000000C250.000000 -0.000000,250.000000 -0.000000,261.000000 -0.000000C274.000000 -0.000000,296.000000 -0.000000,330.000000 1.000000C342.000000 2.000000,377.000000 2.000000,418.000000 3.000000L418.000000 -27.000000L366.000000 -30.000000C311.000000 -33.000000,301.000000 -44.000000,301.000000 -96.000000L301.000000 -689.000000L287.000000 -694.000000C222.000000 -660.000000,151.000000 -630.000000,60.000000 -598.000000"></path>
    </g>
    <g transform="scale(0.009963,0.009963)" id="GLYPHpplr8r_50">
      <path style="fill-rule: evenodd;" d="M16.000000 -23.000000L16.000000 3.000000C203.000000 -0.000000,203.000000 -0.000000,239.000000 -0.000000C275.000000 -0.000000,275.000000 -0.000000,468.000000 3.000000C466.000000 -18.000000,466.000000 -28.000000,466.000000 -42.000000C466.000000 -55.000000,466.000000 -65.000000,468.000000 -87.000000C353.000000 -82.000000,307.000000 -81.000000,122.000000 -77.000000L304.000000 -270.000000C401.000000 -373.000000,431.000000 -428.000000,431.000000 -503.000000C431.000000 -618.000000,353.000000 -689.000000,226.000000 -689.000000C154.000000 -689.000000,105.000000 -669.000000,56.000000 -619.000000L39.000000 -483.000000L68.000000 -483.000000L81.000000 -529.000000C97.000000 -587.000000,133.000000 -612.000000,200.000000 -612.000000C286.000000 -612.000000,341.000000 -558.000000,341.000000 -473.000000C341.000000 -398.000000,299.000000 -324.000000,186.000000 -204.000000"></path>
    </g>
    <g transform="scale(0.009963,0.009963)" id="GLYPHpplr8r_51">
      <path style="fill-rule: evenodd;" d="M43.000000 -498.000000L74.000000 -498.000000L92.000000 -554.000000C103.000000 -588.000000,166.000000 -622.000000,218.000000 -622.000000C283.000000 -622.000000,336.000000 -569.000000,336.000000 -506.000000C336.000000 -431.000000,277.000000 -368.000000,206.000000 -368.000000C198.000000 -368.000000,187.000000 -369.000000,174.000000 -370.000000L159.000000 -371.000000L147.000000 -318.000000L154.000000 -312.000000C192.000000 -329.000000,211.000000 -334.000000,238.000000 -334.000000C321.000000 -334.000000,369.000000 -281.000000,369.000000 -190.000000C369.000000 -88.000000,308.000000 -21.000000,215.000000 -21.000000C169.000000 -21.000000,128.000000 -36.000000,98.000000 -64.000000C74.000000 -86.000000,61.000000 -109.000000,42.000000 -163.000000L15.000000 -153.000000C36.000000 -92.000000,44.000000 -56.000000,50.000000 -6.000000C103.000000 12.000000,147.000000 20.000000,184.000000 20.000000C264.000000 20.000000,356.000000 -25.000000,411.000000 -92.000000C445.000000 -133.000000,462.000000 -177.000000,462.000000 -224.000000C462.000000 -272.000000,442.000000 -314.000000,406.000000 -339.000000C381.000000 -357.000000,358.000000 -365.000000,308.000000 -374.000000C388.000000 -436.000000,418.000000 -482.000000,418.000000 -541.000000C418.000000 -630.000000,344.000000 -689.000000,233.000000 -689.000000C165.000000 -689.000000,120.000000 -670.000000,72.000000 -622.000000"></path>
    </g>
    <g transform="scale(0.009963,0.009963)" id="GLYPHpplr8r_52">
      <path style="fill-rule: evenodd;" d="M280.000000 -181.000000L280.000000 -106.000000C280.000000 -46.000000,269.000000 -32.000000,220.000000 -30.000000L158.000000 -27.000000L158.000000 3.000000C291.000000 -0.000000,291.000000 -0.000000,315.000000 -0.000000C339.000000 -0.000000,339.000000 -0.000000,472.000000 3.000000L472.000000 -27.000000L424.000000 -30.000000C375.000000 -33.000000,364.000000 -46.000000,364.000000 -106.000000L364.000000 -181.000000C423.000000 -181.000000,444.000000 -180.000000,472.000000 -177.000000L472.000000 -248.000000C425.000000 -244.000000,406.000000 -244.000000,391.000000 -245.000000L388.000000 -245.000000L364.000000 -245.000000L364.000000 -384.000000C364.000000 -562.000000,366.000000 -648.000000,371.000000 -689.000000L359.000000 -694.000000L285.000000 -667.000000L2.000000 -204.000000L13.000000 -181.000000M280.000000 -245.000000L65.000000 -245.000000L280.000000 -597.000000"></path>
    </g>
    <g transform="scale(0.009963,0.009963)" id="GLYPHpplr8r_53">
      <path style="fill-rule: evenodd;" d="M127.000000 -605.000000C256.000000 -601.000000,312.000000 -600.000000,432.000000 -600.000000L437.000000 -605.000000C435.000000 -623.000000,435.000000 -631.000000,435.000000 -644.000000C435.000000 -658.000000,435.000000 -666.000000,437.000000 -684.000000L432.000000 -689.000000C357.000000 -685.000000,312.000000 -684.000000,258.000000 -684.000000C203.000000 -684.000000,159.000000 -685.000000,84.000000 -689.000000L79.000000 -684.000000C80.000000 -623.000000,81.000000 -579.000000,81.000000 -547.000000C81.000000 -462.000000,78.000000 -366.000000,75.000000 -322.000000L95.000000 -316.000000C142.000000 -363.000000,169.000000 -377.000000,218.000000 -377.000000C314.000000 -377.000000,374.000000 -309.000000,374.000000 -201.000000C374.000000 -90.000000,310.000000 -25.000000,201.000000 -25.000000C147.000000 -25.000000,97.000000 -43.000000,83.000000 -69.000000L37.000000 -151.000000L13.000000 -137.000000C36.000000 -80.000000,48.000000 -48.000000,62.000000 -4.000000C90.000000 11.000000,130.000000 20.000000,173.000000 20.000000C240.000000 20.000000,311.000000 -9.000000,366.000000 -57.000000C427.000000 -111.000000,459.000000 -179.000000,459.000000 -253.000000C459.000000 -366.000000,378.000000 -446.000000,264.000000 -446.000000C216.000000 -446.000000,180.000000 -433.000000,118.000000 -396.000000"></path>
    </g>
    <g transform="scale(0.009963,0.009963)" id="GLYPHpplr8r_55">
      <path style="fill-rule: evenodd;" d="M56.000000 -10.000000L65.000000 3.000000C104.000000 -0.000000,104.000000 -0.000000,111.000000 -0.000000C118.000000 -0.000000,118.000000 -0.000000,157.000000 3.000000C199.000000 -106.000000,248.000000 -210.000000,314.000000 -330.000000L497.000000 -659.000000L497.000000 -689.000000C389.000000 -685.000000,354.000000 -684.000000,273.000000 -684.000000C200.000000 -684.000000,151.000000 -685.000000,54.000000 -689.000000L44.000000 -684.000000C47.000000 -589.000000,47.000000 -589.000000,47.000000 -579.000000C47.000000 -568.000000,47.000000 -568.000000,44.000000 -477.000000L74.000000 -477.000000L81.000000 -533.000000C89.000000 -595.000000,96.000000 -603.000000,142.000000 -603.000000L409.000000 -603.000000C369.000000 -521.000000,338.000000 -463.000000,300.000000 -402.000000"></path>
    </g>
    <g transform="scale(0.009963,0.009963)" id="GLYPHpplr8r_56">
      <path style="fill-rule: evenodd;" d="M168.000000 -345.000000C127.000000 -326.000000,110.000000 -315.000000,88.000000 -294.000000C50.000000 -256.000000,30.000000 -211.000000,30.000000 -159.000000C30.000000 -56.000000,113.000000 20.000000,226.000000 20.000000C356.000000 20.000000,464.000000 -82.000000,464.000000 -206.000000C464.000000 -286.000000,427.000000 -329.000000,313.000000 -381.000000C404.000000 -443.000000,436.000000 -485.000000,436.000000 -545.000000C436.000000 -631.000000,365.000000 -689.000000,259.000000 -689.000000C140.000000 -689.000000,53.000000 -613.000000,53.000000 -508.000000C53.000000 -440.000000,80.000000 -402.000000,168.000000 -345.000000M284.000000 -295.000000C347.000000 -267.000000,385.000000 -218.000000,385.000000 -164.000000C385.000000 -80.000000,322.000000 -14.000000,241.000000 -14.000000C156.000000 -14.000000,101.000000 -74.000000,101.000000 -167.000000C101.000000 -240.000000,130.000000 -286.000000,204.000000 -331.000000M223.000000 -423.000000C160.000000 -454.000000,128.000000 -494.000000,128.000000 -544.000000C128.000000 -610.000000,176.000000 -655.000000,247.000000 -655.000000C320.000000 -655.000000,368.000000 -607.000000,368.000000 -534.000000C368.000000 -477.000000,343.000000 -438.000000,278.000000 -396.000000"></path>
    </g>
    <g transform="scale(0.009963,0.009963)" id="GLYPHpplr8r_57">
      <path style="fill-rule: evenodd;" d="M96.000000 20.000000C207.000000 -16.000000,255.000000 -39.000000,309.000000 -85.000000C406.000000 -168.000000,457.000000 -283.000000,457.000000 -417.000000C457.000000 -586.000000,376.000000 -689.000000,244.000000 -689.000000C116.000000 -689.000000,20.000000 -589.000000,20.000000 -455.000000C20.000000 -340.000000,95.000000 -256.000000,199.000000 -256.000000C233.000000 -256.000000,272.000000 -267.000000,290.000000 -282.000000L360.000000 -340.000000C352.000000 -172.000000,243.000000 -49.000000,62.000000 -5.000000L62.000000 3.000000M240.000000 -656.000000C285.000000 -656.000000,318.000000 -637.000000,340.000000 -597.000000C358.000000 -565.000000,370.000000 -516.000000,370.000000 -471.000000C370.000000 -379.000000,317.000000 -317.000000,240.000000 -317.000000C160.000000 -317.000000,106.000000 -388.000000,106.000000 -492.000000C106.000000 -593.000000,158.000000 -656.000000,240.000000 -656.000000"></path>
    </g>
    <g transform="scale(0.009963,0.009963)" id="GLYPHpplb8r_40">
      <path style="fill-rule: evenodd;" d="M279.000000 -723.000000C179.000000 -643.000000,139.000000 -595.000000,104.000000 -511.000000C78.000000 -450.000000,65.000000 -382.000000,65.000000 -307.000000C65.000000 -231.000000,78.000000 -164.000000,105.000000 -103.000000C141.000000 -19.000000,181.000000 28.000000,281.000000 104.000000L305.000000 80.000000C218.000000 -30.000000,198.000000 -104.000000,198.000000 -308.000000C198.000000 -417.000000,208.000000 -505.000000,226.000000 -562.000000C244.000000 -617.000000,261.000000 -647.000000,305.000000 -701.000000"></path>
    </g>
    <g transform="scale(0.009963,0.009963)" id="GLYPHpplb8r_41">
      <path style="fill-rule: evenodd;" d="M28.000000 -701.000000C70.000000 -648.000000,86.000000 -621.000000,104.000000 -570.000000C125.000000 -509.000000,135.000000 -424.000000,135.000000 -308.000000C135.000000 -103.000000,115.000000 -31.000000,28.000000 80.000000L52.000000 104.000000C152.000000 28.000000,192.000000 -19.000000,228.000000 -103.000000C255.000000 -164.000000,268.000000 -231.000000,268.000000 -307.000000C268.000000 -382.000000,255.000000 -450.000000,229.000000 -511.000000C194.000000 -594.000000,154.000000 -643.000000,54.000000 -723.000000"></path>
    </g>
    <g transform="scale(0.009963,0.009963)" id="GLYPHpplb8r_47">
      <path style="fill-rule: evenodd;" d="M215.000000 -720.000000L-9.000000 17.000000L81.000000 17.000000L305.000000 -720.000000"></path>
    </g>
    <g transform="scale(0.009963,0.009963)" id="GLYPHpplb8r_48">
      <path style="fill-rule: evenodd;" d="M266.000000 -660.000000C178.000000 -660.000000,119.000000 -628.000000,81.000000 -561.000000C47.000000 -502.000000,33.000000 -424.000000,33.000000 -302.000000C33.000000 -79.000000,96.000000 17.000000,242.000000 17.000000C398.000000 17.000000,468.000000 -96.000000,468.000000 -348.000000C468.000000 -455.000000,456.000000 -522.000000,427.000000 -573.000000C395.000000 -630.000000,339.000000 -660.000000,266.000000 -660.000000M245.000000 -610.000000C274.000000 -610.000000,298.000000 -592.000000,314.000000 -558.000000C334.000000 -515.000000,348.000000 -386.000000,348.000000 -252.000000C348.000000 -110.000000,315.000000 -33.000000,255.000000 -33.000000C225.000000 -33.000000,201.000000 -51.000000,185.000000 -85.000000C165.000000 -128.000000,153.000000 -238.000000,153.000000 -372.000000C153.000000 -482.000000,160.000000 -533.000000,180.000000 -570.000000C195.000000 -597.000000,217.000000 -610.000000,245.000000 -610.000000"></path>
    </g>
    <g transform="scale(0.009963,0.009963)" id="GLYPHpplb8r_49">
      <path style="fill-rule: evenodd;" d="M189.000000 -564.000000C191.000000 -565.000000,193.000000 -565.000000,194.000000 -565.000000C202.000000 -564.000000,204.000000 -557.000000,204.000000 -527.000000L204.000000 -84.000000C204.000000 -55.000000,185.000000 -39.000000,147.000000 -37.000000L75.000000 -34.000000L75.000000 3.000000C136.000000 2.000000,197.000000 1.000000,215.000000 1.000000C245.000000 -0.000000,266.000000 -0.000000,278.000000 -0.000000C290.000000 -0.000000,314.000000 -0.000000,347.000000 1.000000C360.000000 1.000000,406.000000 2.000000,455.000000 3.000000L455.000000 -34.000000L393.000000 -37.000000C355.000000 -39.000000,336.000000 -54.000000,336.000000 -84.000000L336.000000 -406.000000C336.000000 -485.000000,338.000000 -548.000000,346.000000 -660.000000L334.000000 -670.000000C212.000000 -622.000000,97.000000 -583.000000,35.000000 -569.000000C35.000000 -544.000000,39.000000 -525.000000,49.000000 -499.000000"></path>
    </g>
    <g transform="scale(0.009963,0.009963)" id="GLYPHpplb8r_67">
      <path style="fill-rule: evenodd;" d="M692.000000 -87.000000L680.000000 -99.000000C615.000000 -65.000000,550.000000 -48.000000,485.000000 -48.000000C310.000000 -48.000000,194.000000 -172.000000,194.000000 -361.000000C194.000000 -533.000000,292.000000 -639.000000,450.000000 -639.000000C525.000000 -639.000000,574.000000 -620.000000,628.000000 -570.000000L633.000000 -484.000000L672.000000 -484.000000C683.000000 -580.000000,686.000000 -599.000000,695.000000 -637.000000L689.000000 -648.000000C598.000000 -684.000000,542.000000 -695.000000,455.000000 -695.000000C202.000000 -695.000000,44.000000 -561.000000,44.000000 -347.000000C44.000000 -123.000000,198.000000 17.000000,445.000000 17.000000C537.000000 17.000000,596.000000 3.000000,670.000000 -38.000000"></path>
    </g>
    <g transform="scale(0.009963,0.009963)" id="GLYPHpplb8r_70">
      <path style="fill-rule: evenodd;" d="M254.000000 -620.000000C303.000000 -622.000000,336.000000 -623.000000,370.000000 -623.000000C437.000000 -623.000000,480.000000 -616.000000,481.000000 -604.000000L489.000000 -529.000000L525.000000 -529.000000L539.000000 -671.000000L533.000000 -678.000000C495.000000 -681.000000,477.000000 -682.000000,438.000000 -682.000000C415.000000 -682.000000,377.000000 -681.000000,297.000000 -679.000000C251.000000 -678.000000,226.000000 -678.000000,206.000000 -678.000000C177.000000 -678.000000,177.000000 -678.000000,28.000000 -681.000000L28.000000 -644.000000L65.000000 -641.000000C110.000000 -637.000000,113.000000 -631.000000,113.000000 -543.000000L113.000000 -135.000000C113.000000 -46.000000,112.000000 -44.000000,65.000000 -40.000000L28.000000 -37.000000L28.000000 3.000000C149.000000 -0.000000,149.000000 -0.000000,183.000000 -0.000000C215.000000 -0.000000,215.000000 -0.000000,349.000000 3.000000L349.000000 -37.000000L302.000000 -40.000000C256.000000 -43.000000,254.000000 -47.000000,254.000000 -135.000000L254.000000 -322.000000C282.000000 -324.000000,299.000000 -325.000000,321.000000 -325.000000L372.000000 -325.000000C410.000000 -325.000000,426.000000 -314.000000,429.000000 -288.000000L435.000000 -238.000000L475.000000 -238.000000L472.000000 -346.000000C472.000000 -357.000000,472.000000 -371.000000,475.000000 -449.000000L435.000000 -449.000000L429.000000 -396.000000C427.000000 -380.000000,414.000000 -375.000000,372.000000 -375.000000L321.000000 -375.000000C288.000000 -375.000000,274.000000 -375.000000,254.000000 -377.000000"></path>
    </g>
    <g transform="scale(0.009963,0.009963)" id="GLYPHpplb8r_71">
      <path style="fill-rule: evenodd;" d="M776.000000 -276.000000C652.000000 -273.000000,652.000000 -273.000000,626.000000 -273.000000C603.000000 -273.000000,564.000000 -274.000000,483.000000 -276.000000L483.000000 -235.000000L536.000000 -233.000000C578.000000 -231.000000,593.000000 -222.000000,593.000000 -196.000000L593.000000 -64.000000C542.000000 -45.000000,509.000000 -39.000000,466.000000 -39.000000C305.000000 -39.000000,197.000000 -168.000000,197.000000 -358.000000C197.000000 -534.000000,293.000000 -639.000000,456.000000 -639.000000C507.000000 -639.000000,560.000000 -629.000000,603.000000 -610.000000C628.000000 -600.000000,637.000000 -593.000000,661.000000 -570.000000L666.000000 -484.000000L705.000000 -484.000000C716.000000 -580.000000,719.000000 -599.000000,728.000000 -637.000000L722.000000 -648.000000C631.000000 -682.000000,559.000000 -695.000000,461.000000 -695.000000C205.000000 -695.000000,47.000000 -562.000000,47.000000 -346.000000C47.000000 -126.000000,201.000000 17.000000,438.000000 17.000000C539.000000 17.000000,615.000000 2.000000,735.000000 -43.000000L735.000000 -206.000000C735.000000 -230.000000,739.000000 -234.000000,776.000000 -242.000000"></path>
    </g>
    <g transform="scale(0.009963,0.009963)" id="GLYPHpplb8r_77">
      <path style="fill-rule: evenodd;" d="M742.000000 -551.000000L742.000000 -135.000000C742.000000 -46.000000,741.000000 -44.000000,694.000000 -40.000000L657.000000 -37.000000L657.000000 3.000000C778.000000 -0.000000,778.000000 -0.000000,812.000000 -0.000000C846.000000 -0.000000,847.000000 -0.000000,968.000000 3.000000L968.000000 -37.000000L931.000000 -40.000000C884.000000 -44.000000,883.000000 -46.000000,883.000000 -135.000000L883.000000 -543.000000C883.000000 -631.000000,886.000000 -637.000000,931.000000 -641.000000L968.000000 -644.000000L968.000000 -681.000000C863.000000 -678.000000,863.000000 -678.000000,852.000000 -678.000000C841.000000 -678.000000,841.000000 -678.000000,737.000000 -681.000000C708.000000 -612.000000,699.000000 -591.000000,688.000000 -568.000000L505.000000 -190.000000L347.000000 -520.000000C335.000000 -545.000000,315.000000 -587.000000,272.000000 -681.000000L152.000000 -678.000000C136.000000 -678.000000,113.000000 -679.000000,83.000000 -680.000000C68.000000 -680.000000,67.000000 -680.000000,32.000000 -681.000000L32.000000 -644.000000L69.000000 -641.000000C114.000000 -637.000000,117.000000 -631.000000,117.000000 -543.000000L117.000000 -135.000000C117.000000 -47.000000,114.000000 -41.000000,69.000000 -37.000000L32.000000 -34.000000L32.000000 3.000000C128.000000 -0.000000,128.000000 -0.000000,147.000000 -0.000000C167.000000 -0.000000,213.000000 1.000000,261.000000 3.000000L261.000000 -34.000000L224.000000 -37.000000C179.000000 -41.000000,176.000000 -46.000000,176.000000 -135.000000L176.000000 -552.000000L406.000000 -73.000000C413.000000 -58.000000,424.000000 -34.000000,442.000000 10.000000L476.000000 10.000000C495.000000 -36.000000,499.000000 -46.000000,536.000000 -122.000000"></path>
    </g>
    <g transform="scale(0.009963,0.009963)" id="GLYPHpplb8r_97">
      <path style="fill-rule: evenodd;" d="M299.000000 -67.000000L294.000000 -5.000000L299.000000 3.000000C361.000000 1.000000,378.000000 -0.000000,390.000000 -0.000000C402.000000 -0.000000,418.000000 1.000000,478.000000 3.000000L478.000000 -34.000000L448.000000 -37.000000C426.000000 -41.000000,421.000000 -51.000000,420.000000 -98.000000L420.000000 -119.000000C419.000000 -151.000000,418.000000 -179.000000,418.000000 -203.000000C418.000000 -230.000000,419.000000 -262.000000,420.000000 -300.000000C421.000000 -313.000000,421.000000 -322.000000,421.000000 -329.000000C421.000000 -418.000000,361.000000 -471.000000,260.000000 -471.000000C218.000000 -471.000000,177.000000 -460.000000,140.000000 -437.000000L87.000000 -405.000000L87.000000 -336.000000L117.000000 -329.000000L139.000000 -379.000000C142.000000 -386.000000,170.000000 -393.000000,197.000000 -393.000000C264.000000 -393.000000,296.000000 -357.000000,299.000000 -275.000000L211.000000 -257.000000C85.000000 -231.000000,40.000000 -192.000000,40.000000 -107.000000C40.000000 -26.000000,81.000000 17.000000,157.000000 17.000000C179.000000 17.000000,196.000000 13.000000,206.000000 5.000000M299.000000 -115.000000C280.000000 -89.000000,243.000000 -70.000000,213.000000 -70.000000C181.000000 -70.000000,162.000000 -94.000000,162.000000 -133.000000C162.000000 -182.000000,183.000000 -202.000000,254.000000 -221.000000L299.000000 -233.000000"></path>
    </g>
    <g transform="scale(0.009963,0.009963)" id="GLYPHpplb8r_98">
      <path style="fill-rule: evenodd;" d="M211.000000 -714.000000L203.000000 -720.000000L131.000000 -698.000000C102.000000 -689.000000,68.000000 -683.000000,10.000000 -677.000000L10.000000 -641.000000L63.000000 -638.000000C85.000000 -637.000000,89.000000 -627.000000,89.000000 -568.000000L89.000000 -162.000000C89.000000 -109.000000,86.000000 -49.000000,80.000000 4.000000L102.000000 12.000000L141.000000 -20.000000C187.000000 5.000000,229.000000 17.000000,272.000000 17.000000C303.000000 17.000000,330.000000 9.000000,359.000000 -8.000000C399.000000 -32.000000,445.000000 -63.000000,473.000000 -86.000000C523.000000 -127.000000,556.000000 -204.000000,556.000000 -281.000000C556.000000 -392.000000,481.000000 -471.000000,375.000000 -471.000000C336.000000 -471.000000,307.000000 -460.000000,272.000000 -432.000000L211.000000 -383.000000M211.000000 -331.000000C233.000000 -364.000000,266.000000 -381.000000,307.000000 -381.000000C384.000000 -381.000000,430.000000 -321.000000,430.000000 -221.000000C430.000000 -117.000000,385.000000 -51.000000,312.000000 -51.000000C270.000000 -51.000000,238.000000 -68.000000,211.000000 -106.000000"></path>
    </g>
    <g transform="scale(0.009963,0.009963)" id="GLYPHpplb8r_101">
      <path style="fill-rule: evenodd;" d="M461.000000 -295.000000C461.000000 -402.000000,386.000000 -471.000000,272.000000 -471.000000C237.000000 -471.000000,211.000000 -464.000000,184.000000 -448.000000L137.000000 -420.000000C71.000000 -381.000000,42.000000 -321.000000,42.000000 -226.000000C42.000000 -67.000000,122.000000 17.000000,271.000000 17.000000C328.000000 17.000000,365.000000 7.000000,429.000000 -26.000000L451.000000 -74.000000L439.000000 -89.000000C392.000000 -63.000000,362.000000 -54.000000,322.000000 -54.000000C270.000000 -54.000000,221.000000 -82.000000,196.000000 -125.000000C180.000000 -153.000000,174.000000 -176.000000,172.000000 -223.000000L303.000000 -223.000000C360.000000 -223.000000,405.000000 -229.000000,461.000000 -243.000000M250.000000 -273.000000L246.000000 -273.000000C240.000000 -273.000000,213.000000 -274.000000,198.000000 -275.000000L166.000000 -276.000000C169.000000 -375.000000,193.000000 -415.000000,251.000000 -415.000000C308.000000 -415.000000,332.000000 -375.000000,334.000000 -276.000000"></path>
    </g>
    <g transform="scale(0.009963,0.009963)" id="GLYPHpplb8r_102">
      <path style="fill-rule: evenodd;" d="M239.000000 -542.000000C239.000000 -580.000000,242.000000 -598.000000,249.000000 -611.000000C257.000000 -626.000000,275.000000 -634.000000,298.000000 -634.000000C319.000000 -634.000000,335.000000 -628.000000,365.000000 -610.000000L381.000000 -617.000000L381.000000 -714.000000C364.000000 -718.000000,354.000000 -720.000000,339.000000 -720.000000C307.000000 -720.000000,284.000000 -710.000000,246.000000 -678.000000L172.000000 -616.000000C124.000000 -576.000000,117.000000 -558.000000,117.000000 -479.000000L117.000000 -436.000000C91.000000 -418.000000,71.000000 -407.000000,38.000000 -391.000000L38.000000 -367.000000L117.000000 -372.000000L117.000000 -100.000000C117.000000 -45.000000,112.000000 -38.000000,75.000000 -36.000000L34.000000 -34.000000L34.000000 3.000000C156.000000 -0.000000,156.000000 -0.000000,175.000000 -0.000000C189.000000 -0.000000,189.000000 -0.000000,334.000000 3.000000L334.000000 -34.000000L289.000000 -36.000000C262.000000 -37.000000,245.000000 -44.000000,242.000000 -55.000000C240.000000 -64.000000,239.000000 -76.000000,239.000000 -100.000000L239.000000 -372.000000L363.000000 -372.000000L374.000000 -430.000000L370.000000 -438.000000C305.000000 -435.000000,280.000000 -434.000000,239.000000 -434.000000"></path>
    </g>
    <g transform="scale(0.009963,0.009963)" id="GLYPHpplb8r_103">
      <path style="fill-rule: evenodd;" d="M529.000000 -368.000000L534.000000 -432.000000C493.000000 -428.000000,474.000000 -427.000000,452.000000 -427.000000C444.000000 -427.000000,432.000000 -427.000000,416.000000 -428.000000C375.000000 -458.000000,328.000000 -471.000000,264.000000 -471.000000C136.000000 -471.000000,47.000000 -397.000000,47.000000 -292.000000C47.000000 -255.000000,60.000000 -222.000000,84.000000 -196.000000C103.000000 -176.000000,118.000000 -167.000000,153.000000 -155.000000L82.000000 -101.000000C72.000000 -94.000000,65.000000 -73.000000,65.000000 -53.000000C65.000000 -17.000000,83.000000 1.000000,133.000000 14.000000L52.000000 62.000000C37.000000 71.000000,26.000000 97.000000,26.000000 124.000000C26.000000 211.000000,110.000000 266.000000,242.000000 266.000000C417.000000 266.000000,535.000000 175.000000,535.000000 42.000000C535.000000 -42.000000,488.000000 -82.000000,387.000000 -82.000000L363.000000 -82.000000C264.000000 -79.000000,228.000000 -78.000000,217.000000 -78.000000C186.000000 -78.000000,170.000000 -88.000000,170.000000 -108.000000C170.000000 -123.000000,179.000000 -135.000000,199.000000 -147.000000C217.000000 -146.000000,227.000000 -145.000000,239.000000 -145.000000C308.000000 -145.000000,372.000000 -168.000000,413.000000 -209.000000C444.000000 -240.000000,457.000000 -275.000000,457.000000 -325.000000C457.000000 -341.000000,456.000000 -353.000000,452.000000 -372.000000M252.000000 -421.000000C305.000000 -421.000000,334.000000 -378.000000,334.000000 -299.000000C334.000000 -228.000000,307.000000 -191.000000,254.000000 -191.000000C202.000000 -191.000000,170.000000 -236.000000,170.000000 -311.000000C170.000000 -383.000000,198.000000 -421.000000,252.000000 -421.000000M272.000000 15.000000C394.000000 15.000000,424.000000 31.000000,424.000000 95.000000C424.000000 164.000000,357.000000 216.000000,268.000000 216.000000C179.000000 216.000000,120.000000 174.000000,120.000000 112.000000C120.000000 75.000000,141.000000 41.000000,171.000000 26.000000C187.000000 19.000000,223.000000 15.000000,272.000000 15.000000"></path>
    </g>
    <g transform="scale(0.009963,0.009963)" id="GLYPHpplb8r_104">
      <path style="fill-rule: evenodd;" d="M209.000000 -720.000000L137.000000 -698.000000C111.000000 -690.000000,78.000000 -684.000000,24.000000 -677.000000L24.000000 -641.000000L69.000000 -638.000000C92.000000 -636.000000,95.000000 -627.000000,95.000000 -568.000000L95.000000 -100.000000C95.000000 -46.000000,90.000000 -38.000000,59.000000 -36.000000L24.000000 -34.000000L24.000000 3.000000L153.000000 -0.000000C173.000000 -0.000000,221.000000 1.000000,288.000000 3.000000L288.000000 -34.000000L253.000000 -36.000000C222.000000 -38.000000,217.000000 -46.000000,217.000000 -100.000000L217.000000 -317.000000C217.000000 -352.000000,258.000000 -385.000000,302.000000 -385.000000C368.000000 -385.000000,396.000000 -350.000000,396.000000 -269.000000L396.000000 3.000000C453.000000 1.000000,470.000000 -0.000000,486.000000 -0.000000C500.000000 -0.000000,500.000000 -0.000000,587.000000 3.000000L587.000000 -34.000000L554.000000 -36.000000C523.000000 -38.000000,518.000000 -46.000000,518.000000 -100.000000L518.000000 -286.000000C518.000000 -363.000000,509.000000 -401.000000,483.000000 -429.000000C457.000000 -456.000000,416.000000 -471.000000,367.000000 -471.000000C337.000000 -471.000000,313.000000 -465.000000,297.000000 -452.000000L217.000000 -390.000000L217.000000 -714.000000"></path>
    </g>
    <g transform="scale(0.009963,0.009963)" id="GLYPHpplb8r_105">
      <path style="fill-rule: evenodd;" d="M217.000000 -471.000000L147.000000 -449.000000C115.000000 -439.000000,91.000000 -435.000000,49.000000 -430.000000C46.000000 -430.000000,41.000000 -429.000000,34.000000 -428.000000L34.000000 -392.000000L79.000000 -389.000000C102.000000 -387.000000,105.000000 -378.000000,105.000000 -319.000000L105.000000 -100.000000C105.000000 -46.000000,100.000000 -38.000000,69.000000 -36.000000L34.000000 -34.000000L34.000000 3.000000L163.000000 -0.000000C183.000000 -0.000000,231.000000 1.000000,298.000000 3.000000L298.000000 -34.000000L263.000000 -36.000000C232.000000 -38.000000,227.000000 -46.000000,227.000000 -100.000000L227.000000 -465.000000M163.000000 -706.000000C120.000000 -706.000000,87.000000 -674.000000,87.000000 -632.000000C87.000000 -590.000000,120.000000 -556.000000,162.000000 -556.000000C203.000000 -556.000000,237.000000 -590.000000,237.000000 -631.000000C237.000000 -672.000000,204.000000 -706.000000,163.000000 -706.000000"></path>
    </g>
    <g transform="scale(0.009963,0.009963)" id="GLYPHpplb8r_108">
      <path style="fill-rule: evenodd;" d="M217.000000 -720.000000L145.000000 -698.000000C116.000000 -689.000000,82.000000 -683.000000,24.000000 -677.000000L24.000000 -641.000000L77.000000 -638.000000C99.000000 -637.000000,103.000000 -627.000000,103.000000 -568.000000L103.000000 -100.000000C103.000000 -46.000000,98.000000 -38.000000,67.000000 -36.000000L32.000000 -34.000000L32.000000 3.000000L161.000000 -0.000000C181.000000 -0.000000,229.000000 1.000000,296.000000 3.000000L296.000000 -34.000000L261.000000 -36.000000C230.000000 -38.000000,225.000000 -46.000000,225.000000 -100.000000L225.000000 -714.000000"></path>
    </g>
    <g transform="scale(0.009963,0.009963)" id="GLYPHpplb8r_110">
      <path style="fill-rule: evenodd;" d="M24.000000 -392.000000L69.000000 -389.000000C92.000000 -387.000000,95.000000 -378.000000,95.000000 -319.000000L95.000000 -100.000000C95.000000 -46.000000,90.000000 -38.000000,59.000000 -36.000000L24.000000 -34.000000L24.000000 3.000000L153.000000 -0.000000C173.000000 -0.000000,221.000000 1.000000,288.000000 3.000000L288.000000 -34.000000L253.000000 -36.000000C222.000000 -38.000000,217.000000 -46.000000,217.000000 -100.000000L217.000000 -317.000000C217.000000 -352.000000,258.000000 -385.000000,302.000000 -385.000000C368.000000 -385.000000,396.000000 -350.000000,396.000000 -270.000000L396.000000 3.000000C453.000000 1.000000,470.000000 -0.000000,486.000000 -0.000000C500.000000 -0.000000,500.000000 -0.000000,587.000000 3.000000L587.000000 -34.000000L554.000000 -36.000000C523.000000 -38.000000,518.000000 -46.000000,518.000000 -100.000000L518.000000 -286.000000C518.000000 -363.000000,509.000000 -401.000000,483.000000 -429.000000C457.000000 -456.000000,416.000000 -471.000000,367.000000 -471.000000C337.000000 -471.000000,313.000000 -465.000000,297.000000 -452.000000L217.000000 -390.000000L217.000000 -465.000000L211.000000 -471.000000C107.000000 -437.000000,79.000000 -431.000000,24.000000 -428.000000"></path>
    </g>
    <g transform="scale(0.009963,0.009963)" id="GLYPHpplb8r_111">
      <path style="fill-rule: evenodd;" d="M287.000000 -471.000000C128.000000 -471.000000,40.000000 -383.000000,40.000000 -224.000000C40.000000 -70.000000,122.000000 17.000000,267.000000 17.000000C427.000000 17.000000,517.000000 -74.000000,517.000000 -236.000000C517.000000 -388.000000,435.000000 -471.000000,287.000000 -471.000000M275.000000 -423.000000C347.000000 -423.000000,381.000000 -352.000000,381.000000 -205.000000C381.000000 -83.000000,353.000000 -31.000000,285.000000 -31.000000C213.000000 -31.000000,176.000000 -104.000000,176.000000 -248.000000C176.000000 -369.000000,206.000000 -423.000000,275.000000 -423.000000"></path>
    </g>
    <g transform="scale(0.009963,0.009963)" id="GLYPHpplb8r_112">
      <path style="fill-rule: evenodd;" d="M212.000000 -471.000000L142.000000 -449.000000C108.000000 -439.000000,91.000000 -436.000000,40.000000 -429.000000L29.000000 -428.000000L29.000000 -392.000000L74.000000 -389.000000C97.000000 -387.000000,100.000000 -378.000000,100.000000 -319.000000L100.000000 155.000000C100.000000 209.000000,95.000000 217.000000,64.000000 219.000000L29.000000 221.000000L29.000000 258.000000L158.000000 255.000000C171.000000 255.000000,173.000000 255.000000,303.000000 258.000000L303.000000 221.000000L258.000000 219.000000C227.000000 218.000000,222.000000 209.000000,222.000000 155.000000L222.000000 -0.000000C271.000000 14.000000,287.000000 17.000000,311.000000 17.000000C345.000000 17.000000,380.000000 -1.000000,448.000000 -55.000000C454.000000 -59.000000,460.000000 -64.000000,465.000000 -68.000000C531.000000 -118.000000,567.000000 -196.000000,567.000000 -286.000000C567.000000 -392.000000,490.000000 -471.000000,386.000000 -471.000000C347.000000 -471.000000,318.000000 -460.000000,283.000000 -432.000000L222.000000 -383.000000L222.000000 -465.000000M222.000000 -331.000000C244.000000 -364.000000,277.000000 -381.000000,318.000000 -381.000000C395.000000 -381.000000,441.000000 -321.000000,441.000000 -221.000000C441.000000 -117.000000,396.000000 -51.000000,323.000000 -51.000000C281.000000 -51.000000,249.000000 -68.000000,222.000000 -106.000000"></path>
    </g>
    <g transform="scale(0.009963,0.009963)" id="GLYPHpplb8r_114">
      <path style="fill-rule: evenodd;" d="M213.000000 -471.000000L143.000000 -449.000000C111.000000 -439.000000,93.000000 -436.000000,30.000000 -428.000000L30.000000 -392.000000L75.000000 -389.000000C98.000000 -387.000000,101.000000 -378.000000,101.000000 -319.000000L101.000000 -100.000000C101.000000 -46.000000,96.000000 -38.000000,65.000000 -36.000000L30.000000 -34.000000L30.000000 3.000000L159.000000 -0.000000C172.000000 -0.000000,175.000000 -0.000000,310.000000 3.000000L310.000000 -34.000000L271.000000 -36.000000C228.000000 -38.000000,223.000000 -44.000000,223.000000 -100.000000L223.000000 -298.000000C223.000000 -329.000000,264.000000 -362.000000,303.000000 -362.000000C328.000000 -362.000000,346.000000 -350.000000,360.000000 -326.000000L384.000000 -336.000000L389.000000 -465.000000C379.000000 -469.000000,366.000000 -471.000000,352.000000 -471.000000C324.000000 -471.000000,305.000000 -459.000000,267.000000 -418.000000L223.000000 -370.000000L223.000000 -465.000000"></path>
    </g>
    <g transform="scale(0.009963,0.009963)" id="GLYPHpplb8r_115">
      <path style="fill-rule: evenodd;" d="M362.000000 -326.000000L370.000000 -448.000000C331.000000 -465.000000,300.000000 -471.000000,247.000000 -471.000000C112.000000 -471.000000,39.000000 -417.000000,39.000000 -317.000000C39.000000 -251.000000,75.000000 -209.000000,145.000000 -192.000000L231.000000 -171.000000C277.000000 -160.000000,294.000000 -143.000000,294.000000 -108.000000C294.000000 -61.000000,258.000000 -31.000000,202.000000 -31.000000C155.000000 -31.000000,122.000000 -46.000000,90.000000 -83.000000L85.000000 -152.000000L46.000000 -152.000000L39.000000 -11.000000C96.000000 9.000000,141.000000 17.000000,194.000000 17.000000C320.000000 17.000000,405.000000 -52.000000,405.000000 -155.000000C405.000000 -227.000000,368.000000 -264.000000,278.000000 -284.000000L196.000000 -302.000000C157.000000 -311.000000,141.000000 -327.000000,141.000000 -358.000000C141.000000 -398.000000,175.000000 -423.000000,229.000000 -423.000000C269.000000 -423.000000,313.000000 -404.000000,316.000000 -384.000000L326.000000 -326.000000"></path>
    </g>
    <g transform="scale(0.009963,0.009963)" id="GLYPHpplb8r_116">
      <path style="fill-rule: evenodd;" d="M324.000000 -60.000000L316.000000 -79.000000C296.000000 -69.000000,286.000000 -66.000000,270.000000 -66.000000C223.000000 -66.000000,208.000000 -82.000000,208.000000 -131.000000L208.000000 -369.000000L314.000000 -369.000000L322.000000 -434.000000L208.000000 -428.000000L208.000000 -486.000000C208.000000 -539.000000,211.000000 -572.000000,220.000000 -622.000000L206.000000 -632.000000C166.000000 -613.000000,135.000000 -601.000000,84.000000 -582.000000C87.000000 -530.000000,88.000000 -511.000000,88.000000 -490.000000L88.000000 -430.000000L22.000000 -387.000000L22.000000 -365.000000L86.000000 -369.000000L86.000000 -110.000000C86.000000 -21.000000,123.000000 17.000000,210.000000 17.000000C241.000000 17.000000,266.000000 10.000000,275.000000 -1.000000"></path>
    </g>
    <g transform="scale(0.009963,0.009963)" id="GLYPHpplb8r_117">
      <path style="fill-rule: evenodd;" d="M392.000000 -80.000000L387.000000 3.000000C470.000000 -0.000000,470.000000 -0.000000,481.000000 -0.000000C491.000000 -0.000000,508.000000 -0.000000,536.000000 2.000000C543.000000 2.000000,562.000000 2.000000,583.000000 3.000000L583.000000 -34.000000L550.000000 -36.000000C519.000000 -38.000000,514.000000 -46.000000,514.000000 -100.000000L514.000000 -465.000000L504.000000 -471.000000L434.000000 -449.000000C401.000000 -439.000000,383.000000 -436.000000,321.000000 -428.000000L321.000000 -392.000000L366.000000 -389.000000C389.000000 -387.000000,392.000000 -378.000000,392.000000 -319.000000L392.000000 -163.000000C392.000000 -114.000000,349.000000 -73.000000,296.000000 -73.000000C239.000000 -73.000000,218.000000 -108.000000,218.000000 -204.000000L218.000000 -465.000000L208.000000 -471.000000L138.000000 -449.000000C105.000000 -439.000000,88.000000 -436.000000,25.000000 -428.000000L25.000000 -392.000000L70.000000 -389.000000C93.000000 -387.000000,96.000000 -378.000000,96.000000 -319.000000L96.000000 -140.000000C96.000000 -39.000000,150.000000 17.000000,246.000000 17.000000C275.000000 17.000000,301.000000 9.000000,316.000000 -6.000000"></path>
    </g>
    <g transform="scale(0.009963,0.009963)" id="GLYPHpplb8r_119">
      <path style="fill-rule: evenodd;" d="M194.000000 3.000000L273.000000 3.000000C323.000000 -130.000000,334.000000 -154.000000,410.000000 -304.000000L542.000000 3.000000L623.000000 3.000000C632.000000 -26.000000,636.000000 -40.000000,637.000000 -44.000000C647.000000 -77.000000,654.000000 -100.000000,658.000000 -112.000000L750.000000 -372.000000C762.000000 -405.000000,772.000000 -418.000000,786.000000 -419.000000L820.000000 -421.000000L820.000000 -459.000000C736.000000 -456.000000,736.000000 -456.000000,719.000000 -456.000000C702.000000 -456.000000,702.000000 -456.000000,618.000000 -459.000000L618.000000 -421.000000L660.000000 -419.000000C677.000000 -418.000000,689.000000 -410.000000,689.000000 -398.000000C689.000000 -394.000000,687.000000 -383.000000,686.000000 -379.000000L650.000000 -266.000000C638.000000 -227.000000,628.000000 -200.000000,611.000000 -154.000000L473.000000 -471.000000L423.000000 -471.000000L336.000000 -276.000000C327.000000 -256.000000,317.000000 -235.000000,307.000000 -213.000000C303.000000 -205.000000,300.000000 -197.000000,296.000000 -188.000000C290.000000 -176.000000,284.000000 -163.000000,279.000000 -151.000000L220.000000 -378.000000C219.000000 -382.000000,218.000000 -392.000000,218.000000 -397.000000C218.000000 -410.000000,226.000000 -419.000000,237.000000 -419.000000L284.000000 -421.000000L284.000000 -459.000000L149.000000 -456.000000C135.000000 -456.000000,119.000000 -456.000000,13.000000 -459.000000L13.000000 -421.000000L46.000000 -419.000000C69.000000 -417.000000,79.000000 -408.000000,87.000000 -381.000000"></path>
    </g>
  </defs>
  <path d="M240.073257 129.417587l0 0" style="stroke:rgb(0.000000%,0.000000%,0.000000%); stroke-width: 6.000000;stroke-linecap: round;stroke-linejoin: round;stroke-miterlimit: 10.000000;fill: none;"></path>
  <path d="M264.165314 129.417587l0 0" style="stroke:rgb(0.000000%,0.000000%,0.000000%); stroke-width: 6.000000;stroke-linecap: round;stroke-linejoin: round;stroke-miterlimit: 10.000000;fill: none;"></path>
  <path d="M211.725082 114.836914l0 0" style="stroke:rgb(0.000000%,0.000000%,0.000000%); stroke-width: 6.000000;stroke-linecap: round;stroke-linejoin: round;stroke-miterlimit: 10.000000;fill: none;"></path>
  <path d="M296.293839 126.177917l0 0" style="stroke:rgb(0.000000%,0.000000%,0.000000%); stroke-width: 6.000000;stroke-linecap: round;stroke-linejoin: round;stroke-miterlimit: 10.000000;fill: none;"></path>
  <path d="M317.548477 148.042435l0 0" style="stroke:rgb(0.000000%,0.000000%,0.000000%); stroke-width: 6.000000;stroke-linecap: round;stroke-linejoin: round;stroke-miterlimit: 10.000000;fill: none;"></path>
  <path d="M319.442978 152.904099l0 0" style="stroke:rgb(0.000000%,0.000000%,0.000000%); stroke-width: 6.000000;stroke-linecap: round;stroke-linejoin: round;stroke-miterlimit: 10.000000;fill: none;"></path>
  <path d="M329.832397 183.678787l0 0" style="stroke:rgb(0.000000%,0.000000%,0.000000%); stroke-width: 6.000000;stroke-linecap: round;stroke-linejoin: round;stroke-miterlimit: 10.000000;fill: none;"></path>
  <path d="M293.932205 101.878235l0 0" style="stroke:rgb(0.000000%,0.000000%,0.000000%); stroke-width: 6.000000;stroke-linecap: round;stroke-linejoin: round;stroke-miterlimit: 10.000000;fill: none;"></path>
  <path d="M290.151871 114.836914l0 0" style="stroke:rgb(0.000000%,0.000000%,0.000000%); stroke-width: 6.000000;stroke-linecap: round;stroke-linejoin: round;stroke-miterlimit: 10.000000;fill: none;"></path>
  <path d="M317.548477 143.993927l0 0" style="stroke:rgb(0.000000%,0.000000%,0.000000%); stroke-width: 6.000000;stroke-linecap: round;stroke-linejoin: round;stroke-miterlimit: 10.000000;fill: none;"></path>
  <path d="M317.548477 155.334930l0 0" style="stroke:rgb(0.000000%,0.000000%,0.000000%); stroke-width: 6.000000;stroke-linecap: round;stroke-linejoin: round;stroke-miterlimit: 10.000000;fill: none;"></path>
  <path d="M377.082260 166.671616l0 0" style="stroke:rgb(0.000000%,0.000000%,0.000000%); stroke-width: 6.000000;stroke-linecap: round;stroke-linejoin: round;stroke-miterlimit: 10.000000;fill: none;"></path>
  <path d="M344.953735 159.383438l0 0" style="stroke:rgb(0.000000%,0.000000%,0.000000%); stroke-width: 6.000000;stroke-linecap: round;stroke-linejoin: round;stroke-miterlimit: 10.000000;fill: none;"></path>
  <path d="M349.677002 176.390610l0 0" style="stroke:rgb(0.000000%,0.000000%,0.000000%); stroke-width: 6.000000;stroke-linecap: round;stroke-linejoin: round;stroke-miterlimit: 10.000000;fill: none;"></path>
  <path d="M488.571838 215.266632l0 0" style="stroke:rgb(0.000000%,0.000000%,0.000000%); stroke-width: 6.000000;stroke-linecap: round;stroke-linejoin: round;stroke-miterlimit: 10.000000;fill: none;"></path>
  <path d="M505.016724 215.266632l0 0" style="stroke:rgb(0.000000%,0.000000%,0.000000%); stroke-width: 6.000000;stroke-linecap: round;stroke-linejoin: round;stroke-miterlimit: 10.000000;fill: none;"></path>
  <path d="M497.551208 180.439117l0 0" style="stroke:rgb(0.000000%,0.000000%,0.000000%); stroke-width: 6.000000;stroke-linecap: round;stroke-linejoin: round;stroke-miterlimit: 10.000000;fill: none;"></path>
  <path d="M200.384079 37.089188l0 0" style="stroke:rgb(0.000000%,0.000000%,0.000000%); stroke-width: 6.000000;stroke-linecap: round;stroke-linejoin: round;stroke-miterlimit: 10.000000;fill: none;"></path>
  <path d="M145.115067 53.287537l0 0" style="stroke:rgb(0.000000%,0.000000%,0.000000%); stroke-width: 6.000000;stroke-linecap: round;stroke-linejoin: round;stroke-miterlimit: 10.000000;fill: none;"></path>
  <path d="M165.902588 24.939362l0 0" style="stroke:rgb(0.000000%,0.000000%,0.000000%); stroke-width: 6.000000;stroke-linecap: round;stroke-linejoin: round;stroke-miterlimit: 10.000000;fill: none;"></path>
  <path d="M225.427704 125.364761l0 0" style="stroke:rgb(0.000000%,0.000000%,0.000000%); stroke-width: 6.000000;stroke-linecap: round;stroke-linejoin: round;stroke-miterlimit: 10.000000;fill: none;"></path>
  <path d="M325.109146 173.959778l0 0" style="stroke:rgb(0.000000%,0.000000%,0.000000%); stroke-width: 6.000000;stroke-linecap: round;stroke-linejoin: round;stroke-miterlimit: 10.000000;fill: none;"></path>
  <path d="M317.081345 176.390610l0 0" style="stroke:rgb(0.000000%,0.000000%,0.000000%); stroke-width: 6.000000;stroke-linecap: round;stroke-linejoin: round;stroke-miterlimit: 10.000000;fill: none;"></path>
  <path d="M355.343170 191.780121l0 0" style="stroke:rgb(0.000000%,0.000000%,0.000000%); stroke-width: 6.000000;stroke-linecap: round;stroke-linejoin: round;stroke-miterlimit: 10.000000;fill: none;"></path>
  <path d="M355.818954 143.993927l0 0" style="stroke:rgb(0.000000%,0.000000%,0.000000%); stroke-width: 6.000000;stroke-linecap: round;stroke-linejoin: round;stroke-miterlimit: 10.000000;fill: none;"></path>
  <path d="M175.349091 78.391724l0 0" style="stroke:rgb(0.000000%,0.000000%,0.000000%); stroke-width: 6.000000;stroke-linecap: round;stroke-linejoin: round;stroke-miterlimit: 10.000000;fill: none;"></path>
  <path d="M194.717896 88.919571l0 0" style="stroke:rgb(0.000000%,0.000000%,0.000000%); stroke-width: 6.000000;stroke-linecap: round;stroke-linejoin: round;stroke-miterlimit: 10.000000;fill: none;"></path>
  <path d="M135.469589 53.287537l0 0" style="stroke:rgb(0.000000%,0.000000%,0.000000%); stroke-width: 6.000000;stroke-linecap: round;stroke-linejoin: round;stroke-miterlimit: 10.000000;fill: none;"></path>
  <path d="M292.037720 171.528946l0 0" style="stroke:rgb(0.000000%,0.000000%,0.000000%); stroke-width: 6.000000;stroke-linecap: round;stroke-linejoin: round;stroke-miterlimit: 10.000000;fill: none;"></path>
  <path d="M254.243027 139.945419l0 0" style="stroke:rgb(0.000000%,0.000000%,0.000000%); stroke-width: 6.000000;stroke-linecap: round;stroke-linejoin: round;stroke-miterlimit: 10.000000;fill: none;"></path>
  <path d="M329.832397 178.008286l0 0" style="stroke:rgb(0.000000%,0.000000%,0.000000%); stroke-width: 6.000000;stroke-linecap: round;stroke-linejoin: round;stroke-miterlimit: 10.000000;fill: none;"></path>
  <path d="M255.185944 126.177917l0 0" style="stroke:rgb(0.000000%,0.000000%,0.000000%); stroke-width: 6.000000;stroke-linecap: round;stroke-linejoin: round;stroke-miterlimit: 10.000000;fill: none;"></path>
  <path d="M135.469589 259.000000L505.016724 259.000000" style="stroke:rgb(0.000000%,0.000000%,0.000000%); stroke-width: 0.500000;stroke-linecap: round;stroke-linejoin: round;stroke-miterlimit: 10.000000;fill: none;"></path>
  <path d="M87.000000 215.266632L87.000000 24.939362" style="stroke:rgb(0.000000%,0.000000%,0.000000%); stroke-width: 0.500000;stroke-linecap: round;stroke-linejoin: round;stroke-miterlimit: 10.000000;fill: none;"></path>
  <path d="M135.469589 261.988785L135.469589 259.000000" style="stroke:rgb(100.000000%,0.000000%,0.000000%); stroke-width: 2.000000;stroke-linecap: round;stroke-linejoin: round;stroke-miterlimit: 10.000000;fill: none;"></path>
  <g transform="matrix(1.399994,-0.000000,-0.000000,1.399994,126.752304 277.468842)" style="fill: rgb(0.000000%,0.000000%,0.000000%);">
    <use xlink:href="#GLYPHpplr8r_49"></use>
    <use xlink:href="#GLYPHpplr8r_46" x="5.000079"></use>
    <use xlink:href="#GLYPHpplr8r_53" x="7.500119"></use>
  </g>
  <path d="M505.016724 261.988785L505.016724 259.000000" style="stroke:rgb(100.000000%,0.000000%,0.000000%); stroke-width: 2.000000;stroke-linecap: round;stroke-linejoin: round;stroke-miterlimit: 10.000000;fill: none;"></path>
  <g transform="matrix(1.399994,-0.000000,-0.000000,1.399994,496.299438 277.468842)" style="fill: rgb(0.000000%,0.000000%,0.000000%);">
    <use xlink:href="#GLYPHpplr8r_53"></use>
    <use xlink:href="#GLYPHpplr8r_46" x="5.000079"></use>
    <use xlink:href="#GLYPHpplr8r_52" x="7.500119"></use>
  </g>
  <path d="M306.683258 261.988785L306.683258 259.000000" style="stroke:rgb(0.000000%,0.000000%,100.000000%); stroke-width: 2.000000;stroke-linecap: round;stroke-linejoin: round;stroke-miterlimit: 10.000000;fill: none;"></path>
  <g transform="matrix(1.399994,-0.000000,-0.000000,1.399994,297.965973 277.468842)" style="fill: rgb(0.000000%,0.000000%,0.000000%);">
    <use xlink:href="#GLYPHpplr8r_51"></use>
    <use xlink:href="#GLYPHpplr8r_46" x="5.000079"></use>
    <use xlink:href="#GLYPHpplr8r_51" x="7.500119"></use>
  </g>
  <path d="M232.746155 261.988785L232.746155 259.000000" style="stroke:rgb(100.000000%,0.000000%,0.000000%); stroke-width: 2.000000;stroke-linecap: round;stroke-linejoin: round;stroke-miterlimit: 10.000000;fill: none;"></path>
  <g transform="matrix(1.399994,-0.000000,-0.000000,1.399994,224.028870 277.468842)" style="fill: rgb(0.000000%,0.000000%,0.000000%);">
    <use xlink:href="#GLYPHpplr8r_50"></use>
    <use xlink:href="#GLYPHpplr8r_46" x="5.000079"></use>
    <use xlink:href="#GLYPHpplr8r_53" x="7.500119"></use>
  </g>
  <path d="M337.393066 261.988785L337.393066 259.000000" style="stroke:rgb(100.000000%,0.000000%,0.000000%); stroke-width: 2.000000;stroke-linecap: round;stroke-linejoin: round;stroke-miterlimit: 10.000000;fill: none;"></path>
  <g transform="matrix(1.399994,-0.000000,-0.000000,1.399994,328.675781 277.468842)" style="fill: rgb(0.000000%,0.000000%,0.000000%);">
    <use xlink:href="#GLYPHpplr8r_51"></use>
    <use xlink:href="#GLYPHpplr8r_46" x="5.000079"></use>
    <use xlink:href="#GLYPHpplr8r_55" x="7.500119"></use>
  </g>
  <path d="M87.000000 215.266632L84.011215 215.266632" style="stroke:rgb(100.000000%,0.000000%,0.000000%); stroke-width: 2.000000;stroke-linecap: round;stroke-linejoin: round;stroke-miterlimit: 10.000000;fill: none;"></path>
  <g transform="matrix(1.399994,-0.000000,-0.000000,1.399994,53.614059 219.966934)" style="fill: rgb(0.000000%,0.000000%,0.000000%);">
    <use xlink:href="#GLYPHpplr8r_49"></use>
    <use xlink:href="#GLYPHpplr8r_48" x="5.000079"></use>
    <use xlink:href="#GLYPHpplr8r_46" x="10.000159"></use>
    <use xlink:href="#GLYPHpplr8r_52" x="12.500199"></use>
  </g>
  <path d="M87.000000 24.939362L84.011215 24.939362" style="stroke:rgb(100.000000%,0.000000%,0.000000%); stroke-width: 2.000000;stroke-linecap: round;stroke-linejoin: round;stroke-miterlimit: 10.000000;fill: none;"></path>
  <g transform="matrix(1.399994,-0.000000,-0.000000,1.399994,53.614059 29.639664)" style="fill: rgb(0.000000%,0.000000%,0.000000%);">
    <use xlink:href="#GLYPHpplr8r_51"></use>
    <use xlink:href="#GLYPHpplr8r_51" x="5.000079"></use>
    <use xlink:href="#GLYPHpplr8r_46" x="10.000159"></use>
    <use xlink:href="#GLYPHpplr8r_57" x="12.500199"></use>
  </g>
  <path d="M87.000000 143.993927L84.011215 143.993927" style="stroke:rgb(0.000000%,0.000000%,100.000000%); stroke-width: 2.000000;stroke-linecap: round;stroke-linejoin: round;stroke-miterlimit: 10.000000;fill: none;"></path>
  <g transform="matrix(1.399994,-0.000000,-0.000000,1.399994,53.614059 148.694229)" style="fill: rgb(0.000000%,0.000000%,0.000000%);">
    <use xlink:href="#GLYPHpplr8r_49"></use>
    <use xlink:href="#GLYPHpplr8r_57" x="5.000079"></use>
    <use xlink:href="#GLYPHpplr8r_46" x="10.000159"></use>
    <use xlink:href="#GLYPHpplr8r_50" x="12.500199"></use>
  </g>
  <path d="M87.000000 175.175201L84.011215 175.175201" style="stroke:rgb(100.000000%,0.000000%,0.000000%); stroke-width: 2.000000;stroke-linecap: round;stroke-linejoin: round;stroke-miterlimit: 10.000000;fill: none;"></path>
  <g transform="matrix(1.399994,-0.000000,-0.000000,1.399994,53.614059 179.875504)" style="fill: rgb(0.000000%,0.000000%,0.000000%);">
    <use xlink:href="#GLYPHpplr8r_49"></use>
    <use xlink:href="#GLYPHpplr8r_53" x="5.000079"></use>
    <use xlink:href="#GLYPHpplr8r_46" x="10.000159"></use>
    <use xlink:href="#GLYPHpplr8r_52" x="12.500199"></use>
  </g>
  <path d="M87.000000 114.836914L84.011215 114.836914" style="stroke:rgb(100.000000%,0.000000%,0.000000%); stroke-width: 2.000000;stroke-linecap: round;stroke-linejoin: round;stroke-miterlimit: 10.000000;fill: none;"></path>
  <g transform="matrix(1.399994,-0.000000,-0.000000,1.399994,53.614059 119.537216)" style="fill: rgb(0.000000%,0.000000%,0.000000%);">
    <use xlink:href="#GLYPHpplr8r_50"></use>
    <use xlink:href="#GLYPHpplr8r_50" x="5.000079"></use>
    <use xlink:href="#GLYPHpplr8r_46" x="10.000159"></use>
    <use xlink:href="#GLYPHpplr8r_56" x="12.500199"></use>
  </g>
  <g transform="matrix(1.440002,-0.000000,-0.000000,1.440002,5.334351 9.327866)" style="fill: rgb(0.000000%,0.000000%,0.000000%);">
    <use xlink:href="#GLYPHpplb8r_77"></use>
    <use xlink:href="#GLYPHpplb8r_105" x="10.000159"></use>
  </g>
  <g transform="matrix(1.440002,-0.000000,-0.000000,1.440002,24.457855 9.327866)" style="fill: rgb(0.000000%,0.000000%,0.000000%);">
    <use xlink:href="#GLYPHpplb8r_108"></use>
  </g>
  <g transform="matrix(1.440002,-0.000000,-0.000000,1.440002,29.235046 9.327866)" style="fill: rgb(0.000000%,0.000000%,0.000000%);">
    <use xlink:href="#GLYPHpplb8r_101"></use>
    <use xlink:href="#GLYPHpplb8r_115" x="5.000079"></use>
  </g>
  <g transform="matrix(1.440002,-0.000000,-0.000000,1.440002,46.952652 9.327866)" style="fill: rgb(0.000000%,0.000000%,0.000000%);">
    <use xlink:href="#GLYPHpplb8r_112"></use>
  </g>
  <g transform="matrix(1.440002,-0.000000,-0.000000,1.440002,55.718155 9.327866)" style="fill: rgb(0.000000%,0.000000%,0.000000%);">
    <use xlink:href="#GLYPHpplb8r_101"></use>
    <use xlink:href="#GLYPHpplb8r_114" x="5.000079"></use>
  </g>
  <g transform="matrix(1.440002,-0.000000,-0.000000,1.440002,72.646652 9.327866)" style="fill: rgb(0.000000%,0.000000%,0.000000%);">
    <use xlink:href="#GLYPHpplb8r_71"></use>
  </g>
  <g transform="matrix(1.440002,-0.000000,-0.000000,1.440002,84.597046 9.327866)" style="fill: rgb(0.000000%,0.000000%,0.000000%);">
    <use xlink:href="#GLYPHpplb8r_97"></use>
    <use xlink:href="#GLYPHpplb8r_108" x="5.000079"></use>
  </g>
  <g transform="matrix(1.440002,-0.000000,-0.000000,1.440002,96.547455 9.327866)" style="fill: rgb(0.000000%,0.000000%,0.000000%);">
    <use xlink:href="#GLYPHpplb8r_108"></use>
  </g>
  <g transform="matrix(1.440002,-0.000000,-0.000000,1.440002,101.324753 9.327866)" style="fill: rgb(0.000000%,0.000000%,0.000000%);">
    <use xlink:href="#GLYPHpplb8r_111"></use>
  </g>
  <g transform="matrix(1.440002,-0.000000,-0.000000,1.440002,109.301147 9.327866)" style="fill: rgb(0.000000%,0.000000%,0.000000%);">
    <use xlink:href="#GLYPHpplb8r_110"></use>
  </g>
  <g transform="matrix(1.440002,-0.000000,-0.000000,1.440002,122.241455 9.327866)" style="fill: rgb(0.000000%,0.000000%,0.000000%);">
    <use xlink:href="#GLYPHpplb8r_111"></use>
  </g>
  <g transform="matrix(1.440002,-0.000000,-0.000000,1.440002,130.217957 9.327866)" style="fill: rgb(0.000000%,0.000000%,0.000000%);">
    <use xlink:href="#GLYPHpplb8r_102"></use>
  </g>
  <g transform="matrix(1.440002,-0.000000,-0.000000,1.440002,139.973343 9.327866)" style="fill: rgb(0.000000%,0.000000%,0.000000%);">
    <use xlink:href="#GLYPHpplb8r_70"></use>
  </g>
  <g transform="matrix(1.440002,-0.000000,-0.000000,1.440002,147.949753 9.327866)" style="fill: rgb(0.000000%,0.000000%,0.000000%);">
    <use xlink:href="#GLYPHpplb8r_117"></use>
  </g>
  <g transform="matrix(1.440002,-0.000000,-0.000000,1.440002,156.715256 9.327866)" style="fill: rgb(0.000000%,0.000000%,0.000000%);">
    <use xlink:href="#GLYPHpplb8r_101"></use>
    <use xlink:href="#GLYPHpplb8r_108" x="5.000079"></use>
  </g>
  <g transform="matrix(1.440002,-0.000000,-0.000000,1.440002,256.961121 300.654160)" style="fill: rgb(0.000000%,0.000000%,0.000000%);">
    <use xlink:href="#GLYPHpplb8r_67"></use>
  </g>
  <g transform="matrix(1.440002,-0.000000,-0.000000,1.440002,267.319016 300.654160)" style="fill: rgb(0.000000%,0.000000%,0.000000%);">
    <use xlink:href="#GLYPHpplb8r_97"></use>
    <use xlink:href="#GLYPHpplb8r_114" x="5.000079"></use>
  </g>
  <g transform="matrix(1.440002,-0.000000,-0.000000,1.440002,284.247620 300.654160)" style="fill: rgb(0.000000%,0.000000%,0.000000%);">
    <use xlink:href="#GLYPHpplb8r_119"></use>
  </g>
  <g transform="matrix(1.440002,-0.000000,-0.000000,1.440002,295.796219 300.654160)" style="fill: rgb(0.000000%,0.000000%,0.000000%);">
    <use xlink:href="#GLYPHpplb8r_101"></use>
    <use xlink:href="#GLYPHpplb8r_105" x="5.000079"></use>
  </g>
  <g transform="matrix(1.440002,-0.000000,-0.000000,1.440002,307.746628 300.654160)" style="fill: rgb(0.000000%,0.000000%,0.000000%);">
    <use xlink:href="#GLYPHpplb8r_103"></use>
  </g>
  <g transform="matrix(1.440002,-0.000000,-0.000000,1.440002,315.723114 300.654160)" style="fill: rgb(0.000000%,0.000000%,0.000000%);">
    <use xlink:href="#GLYPHpplb8r_104"></use>
  </g>
  <g transform="matrix(1.440002,-0.000000,-0.000000,1.440002,324.488617 300.654160)" style="fill: rgb(0.000000%,0.000000%,0.000000%);">
    <use xlink:href="#GLYPHpplb8r_116"></use>
  </g>
  <g transform="matrix(1.440002,-0.000000,-0.000000,1.440002,333.440628 300.654160)" style="fill: rgb(0.000000%,0.000000%,0.000000%);">
    <use xlink:href="#GLYPHpplb8r_40"></use>
  </g>
  <g transform="matrix(1.440002,-0.000000,-0.000000,1.440002,338.217926 300.654160)" style="fill: rgb(0.000000%,0.000000%,0.000000%);">
    <use xlink:href="#GLYPHpplb8r_108"></use>
  </g>
  <g transform="matrix(1.440002,-0.000000,-0.000000,1.440002,342.995224 300.654160)" style="fill: rgb(0.000000%,0.000000%,0.000000%);">
    <use xlink:href="#GLYPHpplb8r_98"></use>
  </g>
  <g transform="matrix(1.440002,-0.000000,-0.000000,1.440002,351.760727 300.654160)" style="fill: rgb(0.000000%,0.000000%,0.000000%);">
    <use xlink:href="#GLYPHpplb8r_47"></use>
  </g>
  <g transform="matrix(1.440002,-0.000000,-0.000000,1.440002,356.007217 300.654160)" style="fill: rgb(0.000000%,0.000000%,0.000000%);">
    <use xlink:href="#GLYPHpplb8r_49"></use>
    <use xlink:href="#GLYPHpplb8r_48" x="5.000079"></use>
    <use xlink:href="#GLYPHpplb8r_48" x="10.000159"></use>
    <use xlink:href="#GLYPHpplb8r_48" x="15.000238"></use>
    <use xlink:href="#GLYPHpplb8r_41" x="20.000318"></use>
  </g>
</svg>
