<?xml version="1.0"?>
<!-- Created by MetaPost 1.999 on 2016.03.06:1014 -->
<svg version="1.1" xmlns="http://www.w3.org/2000/svg" xmlns:xlink="http://www.w3.org/1999/xlink" width="305.706894" height="280.663437" viewBox="0 0 305.706894 280.663437">
<!-- Original BoundingBox: -78.685287 -26.981430 227.021606 253.682007 -->
  <defs>
    <g transform="scale(0.009963,0.009963)" id="GLYPHpplb8r_2">
      <path style="fill-rule: evenodd;" d="M524.000000 -471.000000L516.000000 -471.000000L444.000000 -449.000000C411.000000 -439.000000,373.000000 -434.000000,326.000000 -434.000000L215.000000 -434.000000L215.000000 -542.000000C215.000000 -580.000000,218.000000 -598.000000,225.000000 -611.000000C233.000000 -626.000000,251.000000 -634.000000,274.000000 -634.000000C295.000000 -634.000000,311.000000 -628.000000,341.000000 -610.000000L357.000000 -617.000000L357.000000 -714.000000C340.000000 -718.000000,330.000000 -720.000000,315.000000 -720.000000C283.000000 -720.000000,260.000000 -710.000000,222.000000 -678.000000L148.000000 -616.000000C100.000000 -576.000000,93.000000 -558.000000,93.000000 -479.000000L93.000000 -436.000000C67.000000 -418.000000,47.000000 -407.000000,14.000000 -391.000000L14.000000 -367.000000L93.000000 -372.000000L93.000000 -100.000000C93.000000 -45.000000,88.000000 -38.000000,51.000000 -36.000000L10.000000 -34.000000L10.000000 3.000000C132.000000 -0.000000,132.000000 -0.000000,153.000000 -0.000000C175.000000 -0.000000,175.000000 -0.000000,290.000000 3.000000L290.000000 -34.000000L255.000000 -36.000000C219.000000 -38.000000,215.000000 -45.000000,215.000000 -100.000000L215.000000 -372.000000L326.000000 -372.000000L333.000000 -391.000000L364.000000 -391.000000C391.000000 -391.000000,402.000000 -372.000000,402.000000 -326.000000L402.000000 -100.000000C402.000000 -46.000000,397.000000 -38.000000,366.000000 -36.000000L331.000000 -34.000000L331.000000 3.000000L460.000000 -0.000000C480.000000 -0.000000,528.000000 1.000000,595.000000 3.000000L595.000000 -34.000000L560.000000 -36.000000C529.000000 -38.000000,524.000000 -46.000000,524.000000 -100.000000M473.000000 -706.000000C430.000000 -706.000000,397.000000 -674.000000,397.000000 -632.000000C397.000000 -590.000000,430.000000 -556.000000,472.000000 -556.000000C513.000000 -556.000000,547.000000 -590.000000,547.000000 -631.000000C547.000000 -672.000000,514.000000 -706.000000,473.000000 -706.000000"></path>
    </g>
    <g transform="scale(0.009963,0.009963)" id="GLYPHpplb8r_40">
      <path style="fill-rule: evenodd;" d="M279.000000 -723.000000C179.000000 -643.000000,139.000000 -595.000000,104.000000 -511.000000C78.000000 -450.000000,65.000000 -382.000000,65.000000 -307.000000C65.000000 -231.000000,78.000000 -164.000000,105.000000 -103.000000C141.000000 -19.000000,181.000000 28.000000,281.000000 104.000000L305.000000 80.000000C218.000000 -30.000000,198.000000 -104.000000,198.000000 -308.000000C198.000000 -417.000000,208.000000 -505.000000,226.000000 -562.000000C244.000000 -617.000000,261.000000 -647.000000,305.000000 -701.000000"></path>
    </g>
    <g transform="scale(0.009963,0.009963)" id="GLYPHpplb8r_41">
      <path style="fill-rule: evenodd;" d="M28.000000 -701.000000C70.000000 -648.000000,86.000000 -621.000000,104.000000 -570.000000C125.000000 -509.000000,135.000000 -424.000000,135.000000 -308.000000C135.000000 -103.000000,115.000000 -31.000000,28.000000 80.000000L52.000000 104.000000C152.000000 28.000000,192.000000 -19.000000,228.000000 -103.000000C255.000000 -164.000000,268.000000 -231.000000,268.000000 -307.000000C268.000000 -382.000000,255.000000 -450.000000,229.000000 -511.000000C194.000000 -594.000000,154.000000 -643.000000,54.000000 -723.000000"></path>
    </g>
    <g transform="scale(0.009963,0.009963)" id="GLYPHpplb8r_47">
      <path style="fill-rule: evenodd;" d="M215.000000 -720.000000L-9.000000 17.000000L81.000000 17.000000L305.000000 -720.000000"></path>
    </g>
    <g transform="scale(0.009963,0.009963)" id="GLYPHpplb8r_49">
      <path style="fill-rule: evenodd;" d="M189.000000 -564.000000C191.000000 -565.000000,193.000000 -565.000000,194.000000 -565.000000C202.000000 -564.000000,204.000000 -557.000000,204.000000 -527.000000L204.000000 -84.000000C204.000000 -55.000000,185.000000 -39.000000,147.000000 -37.000000L75.000000 -34.000000L75.000000 3.000000C136.000000 2.000000,197.000000 1.000000,215.000000 1.000000C245.000000 -0.000000,266.000000 -0.000000,278.000000 -0.000000C290.000000 -0.000000,314.000000 -0.000000,347.000000 1.000000C360.000000 1.000000,406.000000 2.000000,455.000000 3.000000L455.000000 -34.000000L393.000000 -37.000000C355.000000 -39.000000,336.000000 -54.000000,336.000000 -84.000000L336.000000 -406.000000C336.000000 -485.000000,338.000000 -548.000000,346.000000 -660.000000L334.000000 -670.000000C212.000000 -622.000000,97.000000 -583.000000,35.000000 -569.000000C35.000000 -544.000000,39.000000 -525.000000,49.000000 -499.000000"></path>
    </g>
    <g transform="scale(0.009963,0.009963)" id="GLYPHpplb8r_54">
      <path style="fill-rule: evenodd;" d="M396.000000 -660.000000C303.000000 -658.000000,251.000000 -640.000000,186.000000 -590.000000C86.000000 -513.000000,37.000000 -404.000000,37.000000 -264.000000C37.000000 -182.000000,57.000000 -106.000000,89.000000 -60.000000C125.000000 -9.000000,181.000000 17.000000,252.000000 17.000000C381.000000 17.000000,469.000000 -79.000000,469.000000 -221.000000C469.000000 -336.000000,409.000000 -409.000000,314.000000 -409.000000C255.000000 -409.000000,216.000000 -387.000000,168.000000 -326.000000C176.000000 -426.000000,190.000000 -478.000000,221.000000 -524.000000C261.000000 -584.000000,327.000000 -618.000000,399.000000 -618.000000C403.000000 -618.000000,411.000000 -618.000000,420.000000 -617.000000L435.000000 -633.000000M254.000000 -323.000000C312.000000 -323.000000,351.000000 -262.000000,351.000000 -171.000000C351.000000 -84.000000,319.000000 -33.000000,263.000000 -33.000000C203.000000 -33.000000,165.000000 -97.000000,165.000000 -198.000000C165.000000 -282.000000,195.000000 -323.000000,254.000000 -323.000000"></path>
    </g>
    <g transform="scale(0.009963,0.009963)" id="GLYPHpplb8r_66">
      <path style="fill-rule: evenodd;" d="M316.000000 -680.000000C292.000000 -679.000000,223.000000 -678.000000,207.000000 -678.000000C193.000000 -678.000000,164.000000 -678.000000,118.000000 -679.000000L39.000000 -681.000000L39.000000 -644.000000L76.000000 -641.000000C121.000000 -637.000000,124.000000 -631.000000,124.000000 -543.000000L124.000000 -95.000000C124.000000 -61.000000,119.000000 -46.000000,104.000000 -38.000000L72.000000 -20.000000L72.000000 3.000000C144.000000 1.000000,170.000000 -0.000000,198.000000 -0.000000C213.000000 -0.000000,234.000000 -0.000000,258.000000 1.000000C310.000000 2.000000,337.000000 3.000000,340.000000 3.000000C500.000000 3.000000,611.000000 -87.000000,611.000000 -216.000000C611.000000 -269.000000,591.000000 -313.000000,556.000000 -338.000000C520.000000 -363.000000,486.000000 -372.000000,406.000000 -377.000000C490.000000 -407.000000,519.000000 -421.000000,550.000000 -450.000000C574.000000 -472.000000,588.000000 -508.000000,588.000000 -546.000000C588.000000 -637.000000,526.000000 -681.000000,399.000000 -681.000000M265.000000 -348.000000L295.000000 -348.000000C411.000000 -348.000000,461.000000 -304.000000,461.000000 -202.000000C461.000000 -98.000000,414.000000 -52.000000,308.000000 -52.000000C293.000000 -52.000000,282.000000 -53.000000,265.000000 -56.000000M265.000000 -627.000000C289.000000 -630.000000,304.000000 -631.000000,323.000000 -631.000000C404.000000 -631.000000,440.000000 -598.000000,440.000000 -524.000000C440.000000 -437.000000,396.000000 -400.000000,295.000000 -400.000000L265.000000 -400.000000"></path>
    </g>
    <g transform="scale(0.009963,0.009963)" id="GLYPHpplb8r_71">
      <path style="fill-rule: evenodd;" d="M776.000000 -276.000000C652.000000 -273.000000,652.000000 -273.000000,626.000000 -273.000000C603.000000 -273.000000,564.000000 -274.000000,483.000000 -276.000000L483.000000 -235.000000L536.000000 -233.000000C578.000000 -231.000000,593.000000 -222.000000,593.000000 -196.000000L593.000000 -64.000000C542.000000 -45.000000,509.000000 -39.000000,466.000000 -39.000000C305.000000 -39.000000,197.000000 -168.000000,197.000000 -358.000000C197.000000 -534.000000,293.000000 -639.000000,456.000000 -639.000000C507.000000 -639.000000,560.000000 -629.000000,603.000000 -610.000000C628.000000 -600.000000,637.000000 -593.000000,661.000000 -570.000000L666.000000 -484.000000L705.000000 -484.000000C716.000000 -580.000000,719.000000 -599.000000,728.000000 -637.000000L722.000000 -648.000000C631.000000 -682.000000,559.000000 -695.000000,461.000000 -695.000000C205.000000 -695.000000,47.000000 -562.000000,47.000000 -346.000000C47.000000 -126.000000,201.000000 17.000000,438.000000 17.000000C539.000000 17.000000,615.000000 2.000000,735.000000 -43.000000L735.000000 -206.000000C735.000000 -230.000000,739.000000 -234.000000,776.000000 -242.000000"></path>
    </g>
    <g transform="scale(0.009963,0.009963)" id="GLYPHpplb8r_73">
      <path style="fill-rule: evenodd;" d="M265.000000 -543.000000C265.000000 -632.000000,266.000000 -634.000000,313.000000 -638.000000L350.000000 -641.000000L350.000000 -681.000000C228.000000 -678.000000,228.000000 -678.000000,194.000000 -678.000000C160.000000 -678.000000,159.000000 -678.000000,39.000000 -681.000000L39.000000 -641.000000L76.000000 -638.000000C123.000000 -634.000000,124.000000 -632.000000,124.000000 -543.000000L124.000000 -135.000000C124.000000 -46.000000,123.000000 -44.000000,76.000000 -40.000000L39.000000 -37.000000L39.000000 3.000000C160.000000 -0.000000,160.000000 -0.000000,194.000000 -0.000000C228.000000 -0.000000,229.000000 -0.000000,350.000000 3.000000L350.000000 -37.000000L313.000000 -40.000000C266.000000 -44.000000,265.000000 -46.000000,265.000000 -135.000000"></path>
    </g>
    <g transform="scale(0.009963,0.009963)" id="GLYPHpplb8r_76">
      <path style="fill-rule: evenodd;" d="M265.000000 -543.000000C265.000000 -632.000000,266.000000 -634.000000,313.000000 -638.000000L350.000000 -641.000000L350.000000 -681.000000C228.000000 -678.000000,228.000000 -678.000000,194.000000 -678.000000C160.000000 -678.000000,159.000000 -678.000000,39.000000 -681.000000L39.000000 -641.000000L76.000000 -638.000000C123.000000 -634.000000,124.000000 -632.000000,124.000000 -543.000000L124.000000 -95.000000C124.000000 -61.000000,119.000000 -46.000000,104.000000 -38.000000L72.000000 -20.000000L72.000000 3.000000C171.000000 -0.000000,171.000000 -0.000000,194.000000 -0.000000L228.000000 -0.000000C329.000000 3.000000,369.000000 4.000000,420.000000 4.000000C472.000000 4.000000,503.000000 3.000000,561.000000 -0.000000L566.000000 -8.000000L577.000000 -174.000000L538.000000 -174.000000L515.000000 -72.000000C513.000000 -63.000000,458.000000 -55.000000,396.000000 -55.000000C354.000000 -55.000000,317.000000 -56.000000,265.000000 -58.000000"></path>
    </g>
    <g transform="scale(0.009963,0.009963)" id="GLYPHpplb8r_97">
      <path style="fill-rule: evenodd;" d="M299.000000 -67.000000L294.000000 -5.000000L299.000000 3.000000C361.000000 1.000000,378.000000 -0.000000,390.000000 -0.000000C402.000000 -0.000000,418.000000 1.000000,478.000000 3.000000L478.000000 -34.000000L448.000000 -37.000000C426.000000 -41.000000,421.000000 -51.000000,420.000000 -98.000000L420.000000 -119.000000C419.000000 -151.000000,418.000000 -179.000000,418.000000 -203.000000C418.000000 -230.000000,419.000000 -262.000000,420.000000 -300.000000C421.000000 -313.000000,421.000000 -322.000000,421.000000 -329.000000C421.000000 -418.000000,361.000000 -471.000000,260.000000 -471.000000C218.000000 -471.000000,177.000000 -460.000000,140.000000 -437.000000L87.000000 -405.000000L87.000000 -336.000000L117.000000 -329.000000L139.000000 -379.000000C142.000000 -386.000000,170.000000 -393.000000,197.000000 -393.000000C264.000000 -393.000000,296.000000 -357.000000,299.000000 -275.000000L211.000000 -257.000000C85.000000 -231.000000,40.000000 -192.000000,40.000000 -107.000000C40.000000 -26.000000,81.000000 17.000000,157.000000 17.000000C179.000000 17.000000,196.000000 13.000000,206.000000 5.000000M299.000000 -115.000000C280.000000 -89.000000,243.000000 -70.000000,213.000000 -70.000000C181.000000 -70.000000,162.000000 -94.000000,162.000000 -133.000000C162.000000 -182.000000,183.000000 -202.000000,254.000000 -221.000000L299.000000 -233.000000"></path>
    </g>
    <g transform="scale(0.009963,0.009963)" id="GLYPHpplb8r_98">
      <path style="fill-rule: evenodd;" d="M211.000000 -714.000000L203.000000 -720.000000L131.000000 -698.000000C102.000000 -689.000000,68.000000 -683.000000,10.000000 -677.000000L10.000000 -641.000000L63.000000 -638.000000C85.000000 -637.000000,89.000000 -627.000000,89.000000 -568.000000L89.000000 -162.000000C89.000000 -109.000000,86.000000 -49.000000,80.000000 4.000000L102.000000 12.000000L141.000000 -20.000000C187.000000 5.000000,229.000000 17.000000,272.000000 17.000000C303.000000 17.000000,330.000000 9.000000,359.000000 -8.000000C399.000000 -32.000000,445.000000 -63.000000,473.000000 -86.000000C523.000000 -127.000000,556.000000 -204.000000,556.000000 -281.000000C556.000000 -392.000000,481.000000 -471.000000,375.000000 -471.000000C336.000000 -471.000000,307.000000 -460.000000,272.000000 -432.000000L211.000000 -383.000000M211.000000 -331.000000C233.000000 -364.000000,266.000000 -381.000000,307.000000 -381.000000C384.000000 -381.000000,430.000000 -321.000000,430.000000 -221.000000C430.000000 -117.000000,385.000000 -51.000000,312.000000 -51.000000C270.000000 -51.000000,238.000000 -68.000000,211.000000 -106.000000"></path>
    </g>
    <g transform="scale(0.009963,0.009963)" id="GLYPHpplb8r_99">
      <path style="fill-rule: evenodd;" d="M390.000000 -297.000000C396.000000 -361.000000,401.000000 -394.000000,410.000000 -438.000000L403.000000 -451.000000C357.000000 -467.000000,336.000000 -471.000000,300.000000 -471.000000C262.000000 -471.000000,234.000000 -464.000000,210.000000 -450.000000L158.000000 -419.000000C69.000000 -366.000000,37.000000 -316.000000,37.000000 -229.000000C37.000000 -70.000000,116.000000 17.000000,259.000000 17.000000C309.000000 17.000000,346.000000 8.000000,393.000000 -17.000000L414.000000 -63.000000L405.000000 -73.000000C371.000000 -59.000000,349.000000 -54.000000,320.000000 -54.000000C222.000000 -54.000000,161.000000 -133.000000,161.000000 -260.000000C161.000000 -351.000000,195.000000 -400.000000,259.000000 -400.000000C304.000000 -400.000000,344.000000 -380.000000,347.000000 -357.000000L354.000000 -297.000000"></path>
    </g>
    <g transform="scale(0.009963,0.009963)" id="GLYPHpplb8r_100">
      <path style="fill-rule: evenodd;" d="M508.000000 -714.000000L500.000000 -720.000000L428.000000 -698.000000C399.000000 -689.000000,365.000000 -683.000000,307.000000 -677.000000L307.000000 -641.000000L360.000000 -638.000000C382.000000 -637.000000,386.000000 -627.000000,386.000000 -568.000000L386.000000 -446.000000L366.000000 -454.000000C338.000000 -465.000000,311.000000 -471.000000,286.000000 -471.000000C254.000000 -471.000000,225.000000 -462.000000,198.000000 -445.000000L126.000000 -398.000000C69.000000 -360.000000,42.000000 -303.000000,42.000000 -217.000000C42.000000 -74.000000,116.000000 17.000000,233.000000 17.000000C256.000000 17.000000,272.000000 13.000000,282.000000 5.000000L386.000000 -80.000000L381.000000 -5.000000L386.000000 3.000000C446.000000 1.000000,465.000000 -0.000000,476.000000 -0.000000C484.000000 -0.000000,502.000000 1.000000,530.000000 2.000000C537.000000 2.000000,556.000000 2.000000,577.000000 3.000000L577.000000 -34.000000L544.000000 -36.000000C513.000000 -38.000000,508.000000 -46.000000,508.000000 -100.000000M386.000000 -160.000000C386.000000 -115.000000,339.000000 -78.000000,284.000000 -78.000000C213.000000 -78.000000,168.000000 -147.000000,168.000000 -255.000000C168.000000 -356.000000,203.000000 -407.000000,274.000000 -407.000000C317.000000 -407.000000,353.000000 -387.000000,386.000000 -344.000000"></path>
    </g>
    <g transform="scale(0.009963,0.009963)" id="GLYPHpplb8r_101">
      <path style="fill-rule: evenodd;" d="M461.000000 -295.000000C461.000000 -402.000000,386.000000 -471.000000,272.000000 -471.000000C237.000000 -471.000000,211.000000 -464.000000,184.000000 -448.000000L137.000000 -420.000000C71.000000 -381.000000,42.000000 -321.000000,42.000000 -226.000000C42.000000 -67.000000,122.000000 17.000000,271.000000 17.000000C328.000000 17.000000,365.000000 7.000000,429.000000 -26.000000L451.000000 -74.000000L439.000000 -89.000000C392.000000 -63.000000,362.000000 -54.000000,322.000000 -54.000000C270.000000 -54.000000,221.000000 -82.000000,196.000000 -125.000000C180.000000 -153.000000,174.000000 -176.000000,172.000000 -223.000000L303.000000 -223.000000C360.000000 -223.000000,405.000000 -229.000000,461.000000 -243.000000M250.000000 -273.000000L246.000000 -273.000000C240.000000 -273.000000,213.000000 -274.000000,198.000000 -275.000000L166.000000 -276.000000C169.000000 -375.000000,193.000000 -415.000000,251.000000 -415.000000C308.000000 -415.000000,332.000000 -375.000000,334.000000 -276.000000"></path>
    </g>
    <g transform="scale(0.009963,0.009963)" id="GLYPHpplb8r_102">
      <path style="fill-rule: evenodd;" d="M239.000000 -542.000000C239.000000 -580.000000,242.000000 -598.000000,249.000000 -611.000000C257.000000 -626.000000,275.000000 -634.000000,298.000000 -634.000000C319.000000 -634.000000,335.000000 -628.000000,365.000000 -610.000000L381.000000 -617.000000L381.000000 -714.000000C364.000000 -718.000000,354.000000 -720.000000,339.000000 -720.000000C307.000000 -720.000000,284.000000 -710.000000,246.000000 -678.000000L172.000000 -616.000000C124.000000 -576.000000,117.000000 -558.000000,117.000000 -479.000000L117.000000 -436.000000C91.000000 -418.000000,71.000000 -407.000000,38.000000 -391.000000L38.000000 -367.000000L117.000000 -372.000000L117.000000 -100.000000C117.000000 -45.000000,112.000000 -38.000000,75.000000 -36.000000L34.000000 -34.000000L34.000000 3.000000C156.000000 -0.000000,156.000000 -0.000000,175.000000 -0.000000C189.000000 -0.000000,189.000000 -0.000000,334.000000 3.000000L334.000000 -34.000000L289.000000 -36.000000C262.000000 -37.000000,245.000000 -44.000000,242.000000 -55.000000C240.000000 -64.000000,239.000000 -76.000000,239.000000 -100.000000L239.000000 -372.000000L363.000000 -372.000000L374.000000 -430.000000L370.000000 -438.000000C305.000000 -435.000000,280.000000 -434.000000,239.000000 -434.000000"></path>
    </g>
    <g transform="scale(0.009963,0.009963)" id="GLYPHpplb8r_104">
      <path style="fill-rule: evenodd;" d="M209.000000 -720.000000L137.000000 -698.000000C111.000000 -690.000000,78.000000 -684.000000,24.000000 -677.000000L24.000000 -641.000000L69.000000 -638.000000C92.000000 -636.000000,95.000000 -627.000000,95.000000 -568.000000L95.000000 -100.000000C95.000000 -46.000000,90.000000 -38.000000,59.000000 -36.000000L24.000000 -34.000000L24.000000 3.000000L153.000000 -0.000000C173.000000 -0.000000,221.000000 1.000000,288.000000 3.000000L288.000000 -34.000000L253.000000 -36.000000C222.000000 -38.000000,217.000000 -46.000000,217.000000 -100.000000L217.000000 -317.000000C217.000000 -352.000000,258.000000 -385.000000,302.000000 -385.000000C368.000000 -385.000000,396.000000 -350.000000,396.000000 -269.000000L396.000000 3.000000C453.000000 1.000000,470.000000 -0.000000,486.000000 -0.000000C500.000000 -0.000000,500.000000 -0.000000,587.000000 3.000000L587.000000 -34.000000L554.000000 -36.000000C523.000000 -38.000000,518.000000 -46.000000,518.000000 -100.000000L518.000000 -286.000000C518.000000 -363.000000,509.000000 -401.000000,483.000000 -429.000000C457.000000 -456.000000,416.000000 -471.000000,367.000000 -471.000000C337.000000 -471.000000,313.000000 -465.000000,297.000000 -452.000000L217.000000 -390.000000L217.000000 -714.000000"></path>
    </g>
    <g transform="scale(0.009963,0.009963)" id="GLYPHpplb8r_105">
      <path style="fill-rule: evenodd;" d="M217.000000 -471.000000L147.000000 -449.000000C115.000000 -439.000000,91.000000 -435.000000,49.000000 -430.000000C46.000000 -430.000000,41.000000 -429.000000,34.000000 -428.000000L34.000000 -392.000000L79.000000 -389.000000C102.000000 -387.000000,105.000000 -378.000000,105.000000 -319.000000L105.000000 -100.000000C105.000000 -46.000000,100.000000 -38.000000,69.000000 -36.000000L34.000000 -34.000000L34.000000 3.000000L163.000000 -0.000000C183.000000 -0.000000,231.000000 1.000000,298.000000 3.000000L298.000000 -34.000000L263.000000 -36.000000C232.000000 -38.000000,227.000000 -46.000000,227.000000 -100.000000L227.000000 -465.000000M163.000000 -706.000000C120.000000 -706.000000,87.000000 -674.000000,87.000000 -632.000000C87.000000 -590.000000,120.000000 -556.000000,162.000000 -556.000000C203.000000 -556.000000,237.000000 -590.000000,237.000000 -631.000000C237.000000 -672.000000,204.000000 -706.000000,163.000000 -706.000000"></path>
    </g>
    <g transform="scale(0.009963,0.009963)" id="GLYPHpplb8r_107">
      <path style="fill-rule: evenodd;" d="M214.000000 -720.000000L142.000000 -698.000000C113.000000 -689.000000,79.000000 -683.000000,21.000000 -677.000000L21.000000 -641.000000L74.000000 -638.000000C96.000000 -637.000000,100.000000 -627.000000,100.000000 -568.000000L100.000000 -100.000000C100.000000 -46.000000,95.000000 -38.000000,64.000000 -36.000000L29.000000 -34.000000L29.000000 3.000000L158.000000 -0.000000C178.000000 -0.000000,226.000000 1.000000,293.000000 3.000000L293.000000 -34.000000L258.000000 -36.000000C227.000000 -38.000000,222.000000 -46.000000,222.000000 -100.000000L222.000000 -226.000000L232.000000 -226.000000L338.000000 -106.000000C353.000000 -89.000000,410.000000 -19.000000,425.000000 -0.000000L597.000000 -0.000000L597.000000 -34.000000C576.000000 -36.000000,560.000000 -46.000000,542.000000 -66.000000L346.000000 -286.000000L354.000000 -294.000000C384.000000 -324.000000,413.000000 -351.000000,424.000000 -358.000000L486.000000 -403.000000C502.000000 -415.000000,519.000000 -421.000000,534.000000 -421.000000L565.000000 -421.000000L565.000000 -459.000000L435.000000 -459.000000L328.000000 -346.000000C305.000000 -322.000000,278.000000 -297.000000,222.000000 -249.000000L222.000000 -714.000000"></path>
    </g>
    <g transform="scale(0.009963,0.009963)" id="GLYPHpplb8r_108">
      <path style="fill-rule: evenodd;" d="M217.000000 -720.000000L145.000000 -698.000000C116.000000 -689.000000,82.000000 -683.000000,24.000000 -677.000000L24.000000 -641.000000L77.000000 -638.000000C99.000000 -637.000000,103.000000 -627.000000,103.000000 -568.000000L103.000000 -100.000000C103.000000 -46.000000,98.000000 -38.000000,67.000000 -36.000000L32.000000 -34.000000L32.000000 3.000000L161.000000 -0.000000C181.000000 -0.000000,229.000000 1.000000,296.000000 3.000000L296.000000 -34.000000L261.000000 -36.000000C230.000000 -38.000000,225.000000 -46.000000,225.000000 -100.000000L225.000000 -714.000000"></path>
    </g>
    <g transform="scale(0.009963,0.009963)" id="GLYPHpplb8r_110">
      <path style="fill-rule: evenodd;" d="M24.000000 -392.000000L69.000000 -389.000000C92.000000 -387.000000,95.000000 -378.000000,95.000000 -319.000000L95.000000 -100.000000C95.000000 -46.000000,90.000000 -38.000000,59.000000 -36.000000L24.000000 -34.000000L24.000000 3.000000L153.000000 -0.000000C173.000000 -0.000000,221.000000 1.000000,288.000000 3.000000L288.000000 -34.000000L253.000000 -36.000000C222.000000 -38.000000,217.000000 -46.000000,217.000000 -100.000000L217.000000 -317.000000C217.000000 -352.000000,258.000000 -385.000000,302.000000 -385.000000C368.000000 -385.000000,396.000000 -350.000000,396.000000 -270.000000L396.000000 3.000000C453.000000 1.000000,470.000000 -0.000000,486.000000 -0.000000C500.000000 -0.000000,500.000000 -0.000000,587.000000 3.000000L587.000000 -34.000000L554.000000 -36.000000C523.000000 -38.000000,518.000000 -46.000000,518.000000 -100.000000L518.000000 -286.000000C518.000000 -363.000000,509.000000 -401.000000,483.000000 -429.000000C457.000000 -456.000000,416.000000 -471.000000,367.000000 -471.000000C337.000000 -471.000000,313.000000 -465.000000,297.000000 -452.000000L217.000000 -390.000000L217.000000 -465.000000L211.000000 -471.000000C107.000000 -437.000000,79.000000 -431.000000,24.000000 -428.000000"></path>
    </g>
    <g transform="scale(0.009963,0.009963)" id="GLYPHpplb8r_111">
      <path style="fill-rule: evenodd;" d="M287.000000 -471.000000C128.000000 -471.000000,40.000000 -383.000000,40.000000 -224.000000C40.000000 -70.000000,122.000000 17.000000,267.000000 17.000000C427.000000 17.000000,517.000000 -74.000000,517.000000 -236.000000C517.000000 -388.000000,435.000000 -471.000000,287.000000 -471.000000M275.000000 -423.000000C347.000000 -423.000000,381.000000 -352.000000,381.000000 -205.000000C381.000000 -83.000000,353.000000 -31.000000,285.000000 -31.000000C213.000000 -31.000000,176.000000 -104.000000,176.000000 -248.000000C176.000000 -369.000000,206.000000 -423.000000,275.000000 -423.000000"></path>
    </g>
    <g transform="scale(0.009963,0.009963)" id="GLYPHpplb8r_114">
      <path style="fill-rule: evenodd;" d="M213.000000 -471.000000L143.000000 -449.000000C111.000000 -439.000000,93.000000 -436.000000,30.000000 -428.000000L30.000000 -392.000000L75.000000 -389.000000C98.000000 -387.000000,101.000000 -378.000000,101.000000 -319.000000L101.000000 -100.000000C101.000000 -46.000000,96.000000 -38.000000,65.000000 -36.000000L30.000000 -34.000000L30.000000 3.000000L159.000000 -0.000000C172.000000 -0.000000,175.000000 -0.000000,310.000000 3.000000L310.000000 -34.000000L271.000000 -36.000000C228.000000 -38.000000,223.000000 -44.000000,223.000000 -100.000000L223.000000 -298.000000C223.000000 -329.000000,264.000000 -362.000000,303.000000 -362.000000C328.000000 -362.000000,346.000000 -350.000000,360.000000 -326.000000L384.000000 -336.000000L389.000000 -465.000000C379.000000 -469.000000,366.000000 -471.000000,352.000000 -471.000000C324.000000 -471.000000,305.000000 -459.000000,267.000000 -418.000000L223.000000 -370.000000L223.000000 -465.000000"></path>
    </g>
    <g transform="scale(0.009963,0.009963)" id="GLYPHpplb8r_115">
      <path style="fill-rule: evenodd;" d="M362.000000 -326.000000L370.000000 -448.000000C331.000000 -465.000000,300.000000 -471.000000,247.000000 -471.000000C112.000000 -471.000000,39.000000 -417.000000,39.000000 -317.000000C39.000000 -251.000000,75.000000 -209.000000,145.000000 -192.000000L231.000000 -171.000000C277.000000 -160.000000,294.000000 -143.000000,294.000000 -108.000000C294.000000 -61.000000,258.000000 -31.000000,202.000000 -31.000000C155.000000 -31.000000,122.000000 -46.000000,90.000000 -83.000000L85.000000 -152.000000L46.000000 -152.000000L39.000000 -11.000000C96.000000 9.000000,141.000000 17.000000,194.000000 17.000000C320.000000 17.000000,405.000000 -52.000000,405.000000 -155.000000C405.000000 -227.000000,368.000000 -264.000000,278.000000 -284.000000L196.000000 -302.000000C157.000000 -311.000000,141.000000 -327.000000,141.000000 -358.000000C141.000000 -398.000000,175.000000 -423.000000,229.000000 -423.000000C269.000000 -423.000000,313.000000 -404.000000,316.000000 -384.000000L326.000000 -326.000000"></path>
    </g>
    <g transform="scale(0.009963,0.009963)" id="GLYPHpplb8r_116">
      <path style="fill-rule: evenodd;" d="M324.000000 -60.000000L316.000000 -79.000000C296.000000 -69.000000,286.000000 -66.000000,270.000000 -66.000000C223.000000 -66.000000,208.000000 -82.000000,208.000000 -131.000000L208.000000 -369.000000L314.000000 -369.000000L322.000000 -434.000000L208.000000 -428.000000L208.000000 -486.000000C208.000000 -539.000000,211.000000 -572.000000,220.000000 -622.000000L206.000000 -632.000000C166.000000 -613.000000,135.000000 -601.000000,84.000000 -582.000000C87.000000 -530.000000,88.000000 -511.000000,88.000000 -490.000000L88.000000 -430.000000L22.000000 -387.000000L22.000000 -365.000000L86.000000 -369.000000L86.000000 -110.000000C86.000000 -21.000000,123.000000 17.000000,210.000000 17.000000C241.000000 17.000000,266.000000 10.000000,275.000000 -1.000000"></path>
    </g>
    <g transform="scale(0.009963,0.009963)" id="GLYPHpplb8r_117">
      <path style="fill-rule: evenodd;" d="M392.000000 -80.000000L387.000000 3.000000C470.000000 -0.000000,470.000000 -0.000000,481.000000 -0.000000C491.000000 -0.000000,508.000000 -0.000000,536.000000 2.000000C543.000000 2.000000,562.000000 2.000000,583.000000 3.000000L583.000000 -34.000000L550.000000 -36.000000C519.000000 -38.000000,514.000000 -46.000000,514.000000 -100.000000L514.000000 -465.000000L504.000000 -471.000000L434.000000 -449.000000C401.000000 -439.000000,383.000000 -436.000000,321.000000 -428.000000L321.000000 -392.000000L366.000000 -389.000000C389.000000 -387.000000,392.000000 -378.000000,392.000000 -319.000000L392.000000 -163.000000C392.000000 -114.000000,349.000000 -73.000000,296.000000 -73.000000C239.000000 -73.000000,218.000000 -108.000000,218.000000 -204.000000L218.000000 -465.000000L208.000000 -471.000000L138.000000 -449.000000C105.000000 -439.000000,88.000000 -436.000000,25.000000 -428.000000L25.000000 -392.000000L70.000000 -389.000000C93.000000 -387.000000,96.000000 -378.000000,96.000000 -319.000000L96.000000 -140.000000C96.000000 -39.000000,150.000000 17.000000,246.000000 17.000000C275.000000 17.000000,301.000000 9.000000,316.000000 -6.000000"></path>
    </g>
    <g transform="scale(0.009963,0.009963)" id="GLYPHpplb8r_119">
      <path style="fill-rule: evenodd;" d="M194.000000 3.000000L273.000000 3.000000C323.000000 -130.000000,334.000000 -154.000000,410.000000 -304.000000L542.000000 3.000000L623.000000 3.000000C632.000000 -26.000000,636.000000 -40.000000,637.000000 -44.000000C647.000000 -77.000000,654.000000 -100.000000,658.000000 -112.000000L750.000000 -372.000000C762.000000 -405.000000,772.000000 -418.000000,786.000000 -419.000000L820.000000 -421.000000L820.000000 -459.000000C736.000000 -456.000000,736.000000 -456.000000,719.000000 -456.000000C702.000000 -456.000000,702.000000 -456.000000,618.000000 -459.000000L618.000000 -421.000000L660.000000 -419.000000C677.000000 -418.000000,689.000000 -410.000000,689.000000 -398.000000C689.000000 -394.000000,687.000000 -383.000000,686.000000 -379.000000L650.000000 -266.000000C638.000000 -227.000000,628.000000 -200.000000,611.000000 -154.000000L473.000000 -471.000000L423.000000 -471.000000L336.000000 -276.000000C327.000000 -256.000000,317.000000 -235.000000,307.000000 -213.000000C303.000000 -205.000000,300.000000 -197.000000,296.000000 -188.000000C290.000000 -176.000000,284.000000 -163.000000,279.000000 -151.000000L220.000000 -378.000000C219.000000 -382.000000,218.000000 -392.000000,218.000000 -397.000000C218.000000 -410.000000,226.000000 -419.000000,237.000000 -419.000000L284.000000 -421.000000L284.000000 -459.000000L149.000000 -456.000000C135.000000 -456.000000,119.000000 -456.000000,13.000000 -459.000000L13.000000 -421.000000L46.000000 -419.000000C69.000000 -417.000000,79.000000 -408.000000,87.000000 -381.000000"></path>
    </g>
    <g transform="scale(0.009963,0.009963)" id="GLYPHpplb8r_120">
      <path style="fill-rule: evenodd;" d="M200.000000 -210.000000L90.000000 -70.000000C70.000000 -46.000000,52.000000 -36.000000,21.000000 -34.000000L21.000000 -0.000000L112.000000 -0.000000C141.000000 -45.000000,152.000000 -61.000000,164.000000 -78.000000L228.000000 -166.000000L328.000000 3.000000L406.000000 -0.000000C446.000000 1.000000,454.000000 1.000000,483.000000 3.000000L483.000000 -34.000000C452.000000 -37.000000,432.000000 -56.000000,397.000000 -113.000000L308.000000 -265.000000L405.000000 -379.000000C436.000000 -415.000000,446.000000 -421.000000,483.000000 -422.000000L483.000000 -459.000000L388.000000 -459.000000L280.000000 -309.000000L228.000000 -394.000000C204.000000 -432.000000,186.000000 -455.000000,166.000000 -471.000000C131.000000 -462.000000,57.000000 -446.000000,20.000000 -439.000000L28.000000 -403.000000C33.000000 -404.000000,40.000000 -404.000000,43.000000 -404.000000C76.000000 -404.000000,94.000000 -390.000000,120.000000 -346.000000"></path>
    </g>
    <g transform="scale(0.009963,0.009963)" id="GLYPHpplb8r_121">
      <path style="fill-rule: evenodd;" d="M275.000000 -421.000000L275.000000 -459.000000L143.000000 -456.000000C130.000000 -456.000000,114.000000 -456.000000,10.000000 -459.000000L10.000000 -421.000000L45.000000 -419.000000C60.000000 -418.000000,72.000000 -402.000000,87.000000 -364.000000L245.000000 40.000000L222.000000 96.000000C199.000000 153.000000,164.000000 187.000000,130.000000 187.000000C104.000000 187.000000,83.000000 176.000000,60.000000 150.000000L49.000000 154.000000L31.000000 249.000000C58.000000 261.000000,81.000000 266.000000,104.000000 266.000000C174.000000 266.000000,229.000000 212.000000,280.000000 94.000000L479.000000 -369.000000C491.000000 -396.000000,506.000000 -413.000000,520.000000 -416.000000L546.000000 -421.000000L546.000000 -459.000000L453.000000 -456.000000C450.000000 -456.000000,419.000000 -457.000000,360.000000 -459.000000L360.000000 -421.000000L393.000000 -419.000000C409.000000 -418.000000,420.000000 -410.000000,420.000000 -399.000000C420.000000 -393.000000,418.000000 -382.000000,416.000000 -377.000000L315.000000 -125.000000L231.000000 -343.000000C231.000000 -344.000000,228.000000 -351.000000,225.000000 -358.000000C217.000000 -377.000000,214.000000 -386.000000,214.000000 -396.000000C214.000000 -409.000000,225.000000 -418.000000,240.000000 -419.000000"></path>
    </g>
    <g transform="scale(0.009963,0.009963)" id="GLYPHpplr8r_46">
      <path style="fill-rule: evenodd;" d="M124.000000 -111.000000C94.000000 -111.000000,67.000000 -83.000000,67.000000 -53.000000C67.000000 -23.000000,94.000000 5.000000,123.000000 5.000000C155.000000 5.000000,183.000000 -22.000000,183.000000 -53.000000C183.000000 -83.000000,155.000000 -111.000000,124.000000 -111.000000"></path>
    </g>
    <g transform="scale(0.009963,0.009963)" id="GLYPHpplr8r_48">
      <path style="fill-rule: evenodd;" d="M263.000000 -689.000000C108.000000 -689.000000,29.000000 -566.000000,29.000000 -324.000000C29.000000 -207.000000,50.000000 -106.000000,85.000000 -57.000000C120.000000 -8.000000,176.000000 20.000000,238.000000 20.000000C389.000000 20.000000,465.000000 -110.000000,465.000000 -366.000000C465.000000 -585.000000,400.000000 -689.000000,263.000000 -689.000000M245.000000 -654.000000C342.000000 -654.000000,381.000000 -556.000000,381.000000 -316.000000C381.000000 -103.000000,343.000000 -15.000000,251.000000 -15.000000C154.000000 -15.000000,113.000000 -116.000000,113.000000 -360.000000C113.000000 -571.000000,150.000000 -654.000000,245.000000 -654.000000"></path>
    </g>
    <g transform="scale(0.009963,0.009963)" id="GLYPHpplr8r_49">
      <path style="fill-rule: evenodd;" d="M67.000000 -555.000000L77.000000 -555.000000L206.000000 -613.000000C207.000000 -614.000000,208.000000 -614.000000,209.000000 -614.000000C215.000000 -614.000000,217.000000 -605.000000,217.000000 -581.000000L217.000000 -96.000000C217.000000 -44.000000,206.000000 -33.000000,152.000000 -30.000000L96.000000 -27.000000L96.000000 3.000000C250.000000 -0.000000,250.000000 -0.000000,261.000000 -0.000000C274.000000 -0.000000,296.000000 -0.000000,330.000000 1.000000C342.000000 2.000000,377.000000 2.000000,418.000000 3.000000L418.000000 -27.000000L366.000000 -30.000000C311.000000 -33.000000,301.000000 -44.000000,301.000000 -96.000000L301.000000 -689.000000L287.000000 -694.000000C222.000000 -660.000000,151.000000 -630.000000,60.000000 -598.000000"></path>
    </g>
    <g transform="scale(0.009963,0.009963)" id="GLYPHpplr8r_50">
      <path style="fill-rule: evenodd;" d="M16.000000 -23.000000L16.000000 3.000000C203.000000 -0.000000,203.000000 -0.000000,239.000000 -0.000000C275.000000 -0.000000,275.000000 -0.000000,468.000000 3.000000C466.000000 -18.000000,466.000000 -28.000000,466.000000 -42.000000C466.000000 -55.000000,466.000000 -65.000000,468.000000 -87.000000C353.000000 -82.000000,307.000000 -81.000000,122.000000 -77.000000L304.000000 -270.000000C401.000000 -373.000000,431.000000 -428.000000,431.000000 -503.000000C431.000000 -618.000000,353.000000 -689.000000,226.000000 -689.000000C154.000000 -689.000000,105.000000 -669.000000,56.000000 -619.000000L39.000000 -483.000000L68.000000 -483.000000L81.000000 -529.000000C97.000000 -587.000000,133.000000 -612.000000,200.000000 -612.000000C286.000000 -612.000000,341.000000 -558.000000,341.000000 -473.000000C341.000000 -398.000000,299.000000 -324.000000,186.000000 -204.000000"></path>
    </g>
    <g transform="scale(0.009963,0.009963)" id="GLYPHpplr8r_51">
      <path style="fill-rule: evenodd;" d="M43.000000 -498.000000L74.000000 -498.000000L92.000000 -554.000000C103.000000 -588.000000,166.000000 -622.000000,218.000000 -622.000000C283.000000 -622.000000,336.000000 -569.000000,336.000000 -506.000000C336.000000 -431.000000,277.000000 -368.000000,206.000000 -368.000000C198.000000 -368.000000,187.000000 -369.000000,174.000000 -370.000000L159.000000 -371.000000L147.000000 -318.000000L154.000000 -312.000000C192.000000 -329.000000,211.000000 -334.000000,238.000000 -334.000000C321.000000 -334.000000,369.000000 -281.000000,369.000000 -190.000000C369.000000 -88.000000,308.000000 -21.000000,215.000000 -21.000000C169.000000 -21.000000,128.000000 -36.000000,98.000000 -64.000000C74.000000 -86.000000,61.000000 -109.000000,42.000000 -163.000000L15.000000 -153.000000C36.000000 -92.000000,44.000000 -56.000000,50.000000 -6.000000C103.000000 12.000000,147.000000 20.000000,184.000000 20.000000C264.000000 20.000000,356.000000 -25.000000,411.000000 -92.000000C445.000000 -133.000000,462.000000 -177.000000,462.000000 -224.000000C462.000000 -272.000000,442.000000 -314.000000,406.000000 -339.000000C381.000000 -357.000000,358.000000 -365.000000,308.000000 -374.000000C388.000000 -436.000000,418.000000 -482.000000,418.000000 -541.000000C418.000000 -630.000000,344.000000 -689.000000,233.000000 -689.000000C165.000000 -689.000000,120.000000 -670.000000,72.000000 -622.000000"></path>
    </g>
    <g transform="scale(0.009963,0.009963)" id="GLYPHpplr8r_52">
      <path style="fill-rule: evenodd;" d="M280.000000 -181.000000L280.000000 -106.000000C280.000000 -46.000000,269.000000 -32.000000,220.000000 -30.000000L158.000000 -27.000000L158.000000 3.000000C291.000000 -0.000000,291.000000 -0.000000,315.000000 -0.000000C339.000000 -0.000000,339.000000 -0.000000,472.000000 3.000000L472.000000 -27.000000L424.000000 -30.000000C375.000000 -33.000000,364.000000 -46.000000,364.000000 -106.000000L364.000000 -181.000000C423.000000 -181.000000,444.000000 -180.000000,472.000000 -177.000000L472.000000 -248.000000C425.000000 -244.000000,406.000000 -244.000000,391.000000 -245.000000L388.000000 -245.000000L364.000000 -245.000000L364.000000 -384.000000C364.000000 -562.000000,366.000000 -648.000000,371.000000 -689.000000L359.000000 -694.000000L285.000000 -667.000000L2.000000 -204.000000L13.000000 -181.000000M280.000000 -245.000000L65.000000 -245.000000L280.000000 -597.000000"></path>
    </g>
    <g transform="scale(0.009963,0.009963)" id="GLYPHpplr8r_53">
      <path style="fill-rule: evenodd;" d="M127.000000 -605.000000C256.000000 -601.000000,312.000000 -600.000000,432.000000 -600.000000L437.000000 -605.000000C435.000000 -623.000000,435.000000 -631.000000,435.000000 -644.000000C435.000000 -658.000000,435.000000 -666.000000,437.000000 -684.000000L432.000000 -689.000000C357.000000 -685.000000,312.000000 -684.000000,258.000000 -684.000000C203.000000 -684.000000,159.000000 -685.000000,84.000000 -689.000000L79.000000 -684.000000C80.000000 -623.000000,81.000000 -579.000000,81.000000 -547.000000C81.000000 -462.000000,78.000000 -366.000000,75.000000 -322.000000L95.000000 -316.000000C142.000000 -363.000000,169.000000 -377.000000,218.000000 -377.000000C314.000000 -377.000000,374.000000 -309.000000,374.000000 -201.000000C374.000000 -90.000000,310.000000 -25.000000,201.000000 -25.000000C147.000000 -25.000000,97.000000 -43.000000,83.000000 -69.000000L37.000000 -151.000000L13.000000 -137.000000C36.000000 -80.000000,48.000000 -48.000000,62.000000 -4.000000C90.000000 11.000000,130.000000 20.000000,173.000000 20.000000C240.000000 20.000000,311.000000 -9.000000,366.000000 -57.000000C427.000000 -111.000000,459.000000 -179.000000,459.000000 -253.000000C459.000000 -366.000000,378.000000 -446.000000,264.000000 -446.000000C216.000000 -446.000000,180.000000 -433.000000,118.000000 -396.000000"></path>
    </g>
    <g transform="scale(0.009963,0.009963)" id="GLYPHpplr8r_54">
      <path style="fill-rule: evenodd;" d="M416.000000 -672.000000L379.000000 -689.000000C283.000000 -657.000000,242.000000 -637.000000,191.000000 -593.000000C88.000000 -506.000000,32.000000 -384.000000,32.000000 -247.000000C32.000000 -82.000000,112.000000 20.000000,241.000000 20.000000C371.000000 20.000000,468.000000 -83.000000,468.000000 -219.000000C468.000000 -334.000000,399.000000 -409.000000,293.000000 -409.000000C243.000000 -409.000000,213.000000 -396.000000,154.000000 -349.000000C143.000000 -340.000000,142.000000 -339.000000,131.000000 -331.000000C152.000000 -512.000000,236.000000 -610.000000,416.000000 -664.000000M255.000000 -349.000000C331.000000 -349.000000,382.000000 -283.000000,382.000000 -184.000000C382.000000 -80.000000,331.000000 -13.000000,254.000000 -13.000000C169.000000 -13.000000,123.000000 -86.000000,123.000000 -220.000000C123.000000 -255.000000,127.000000 -274.000000,138.000000 -291.000000C160.000000 -325.000000,207.000000 -349.000000,255.000000 -349.000000"></path>
    </g>
    <g transform="scale(0.009963,0.009963)" id="GLYPHpplr8r_56">
      <path style="fill-rule: evenodd;" d="M168.000000 -345.000000C127.000000 -326.000000,110.000000 -315.000000,88.000000 -294.000000C50.000000 -256.000000,30.000000 -211.000000,30.000000 -159.000000C30.000000 -56.000000,113.000000 20.000000,226.000000 20.000000C356.000000 20.000000,464.000000 -82.000000,464.000000 -206.000000C464.000000 -286.000000,427.000000 -329.000000,313.000000 -381.000000C404.000000 -443.000000,436.000000 -485.000000,436.000000 -545.000000C436.000000 -631.000000,365.000000 -689.000000,259.000000 -689.000000C140.000000 -689.000000,53.000000 -613.000000,53.000000 -508.000000C53.000000 -440.000000,80.000000 -402.000000,168.000000 -345.000000M284.000000 -295.000000C347.000000 -267.000000,385.000000 -218.000000,385.000000 -164.000000C385.000000 -80.000000,322.000000 -14.000000,241.000000 -14.000000C156.000000 -14.000000,101.000000 -74.000000,101.000000 -167.000000C101.000000 -240.000000,130.000000 -286.000000,204.000000 -331.000000M223.000000 -423.000000C160.000000 -454.000000,128.000000 -494.000000,128.000000 -544.000000C128.000000 -610.000000,176.000000 -655.000000,247.000000 -655.000000C320.000000 -655.000000,368.000000 -607.000000,368.000000 -534.000000C368.000000 -477.000000,343.000000 -438.000000,278.000000 -396.000000"></path>
    </g>
    <g transform="scale(0.009963,0.009963)" id="GLYPHpplr8r_57">
      <path style="fill-rule: evenodd;" d="M96.000000 20.000000C207.000000 -16.000000,255.000000 -39.000000,309.000000 -85.000000C406.000000 -168.000000,457.000000 -283.000000,457.000000 -417.000000C457.000000 -586.000000,376.000000 -689.000000,244.000000 -689.000000C116.000000 -689.000000,20.000000 -589.000000,20.000000 -455.000000C20.000000 -340.000000,95.000000 -256.000000,199.000000 -256.000000C233.000000 -256.000000,272.000000 -267.000000,290.000000 -282.000000L360.000000 -340.000000C352.000000 -172.000000,243.000000 -49.000000,62.000000 -5.000000L62.000000 3.000000M240.000000 -656.000000C285.000000 -656.000000,318.000000 -637.000000,340.000000 -597.000000C358.000000 -565.000000,370.000000 -516.000000,370.000000 -471.000000C370.000000 -379.000000,317.000000 -317.000000,240.000000 -317.000000C160.000000 -317.000000,106.000000 -388.000000,106.000000 -492.000000C106.000000 -593.000000,158.000000 -656.000000,240.000000 -656.000000"></path>
    </g>
    <g transform="scale(0.009963,0.009963)" id="GLYPHpplr8r_67">
      <path style="fill-rule: evenodd;" d="M670.000000 -84.000000L661.000000 -94.000000C599.000000 -54.000000,530.000000 -34.000000,454.000000 -34.000000C259.000000 -34.000000,129.000000 -164.000000,129.000000 -361.000000C129.000000 -545.000000,243.000000 -667.000000,415.000000 -667.000000C513.000000 -667.000000,614.000000 -627.000000,614.000000 -588.000000L614.000000 -516.000000L645.000000 -516.000000C646.000000 -566.000000,650.000000 -602.000000,664.000000 -668.000000C579.000000 -696.000000,506.000000 -709.000000,433.000000 -709.000000C346.000000 -709.000000,263.000000 -688.000000,196.000000 -649.000000C82.000000 -582.000000,22.000000 -477.000000,22.000000 -342.000000C22.000000 -126.000000,180.000000 20.000000,415.000000 20.000000C498.000000 20.000000,573.000000 2.000000,642.000000 -34.000000"></path>
    </g>
    <g transform="scale(0.009963,0.009963)" id="GLYPHpplr8r_68">
      <path style="fill-rule: evenodd;" d="M57.000000 -20.000000L57.000000 3.000000C173.000000 -0.000000,173.000000 -0.000000,196.000000 -0.000000C214.000000 -0.000000,230.000000 -0.000000,248.000000 1.000000C327.000000 3.000000,327.000000 3.000000,341.000000 3.000000C469.000000 3.000000,565.000000 -30.000000,635.000000 -99.000000C707.000000 -170.000000,751.000000 -278.000000,751.000000 -385.000000C751.000000 -571.000000,613.000000 -692.000000,402.000000 -692.000000C395.000000 -692.000000,382.000000 -692.000000,364.000000 -691.000000C314.000000 -690.000000,271.000000 -689.000000,228.000000 -689.000000C191.000000 -689.000000,136.000000 -690.000000,22.000000 -692.000000L22.000000 -662.000000L62.000000 -659.000000C108.000000 -656.000000,113.000000 -647.000000,113.000000 -569.000000L113.000000 -95.000000C113.000000 -66.000000,104.000000 -44.000000,88.000000 -36.000000M208.000000 -644.000000C234.000000 -649.000000,269.000000 -652.000000,319.000000 -652.000000C392.000000 -652.000000,472.000000 -639.000000,514.000000 -620.000000C536.000000 -611.000000,555.000000 -597.000000,573.000000 -579.000000C621.000000 -531.000000,644.000000 -459.000000,644.000000 -359.000000C644.000000 -247.000000,610.000000 -161.000000,544.000000 -107.000000C484.000000 -58.000000,424.000000 -41.000000,311.000000 -41.000000C265.000000 -41.000000,234.000000 -43.000000,208.000000 -49.000000"></path>
    </g>
    <g transform="scale(0.009963,0.009963)" id="GLYPHpplr8r_69">
      <path style="fill-rule: evenodd;" d="M22.000000 -662.000000L70.000000 -659.000000C116.000000 -656.000000,121.000000 -648.000000,121.000000 -569.000000L121.000000 -120.000000C121.000000 -41.000000,117.000000 -34.000000,70.000000 -30.000000L34.000000 -27.000000L34.000000 3.000000C100.000000 1.000000,129.000000 -0.000000,157.000000 -0.000000C162.000000 -0.000000,190.000000 -0.000000,228.000000 1.000000C367.000000 3.000000,367.000000 3.000000,389.000000 3.000000C420.000000 3.000000,420.000000 3.000000,556.000000 -0.000000C556.000000 -58.000000,562.000000 -112.000000,572.000000 -164.000000L537.000000 -164.000000C535.000000 -148.000000,533.000000 -134.000000,532.000000 -130.000000C526.000000 -87.000000,513.000000 -56.000000,499.000000 -51.000000C478.000000 -44.000000,405.000000 -39.000000,315.000000 -39.000000C263.000000 -39.000000,245.000000 -41.000000,216.000000 -47.000000L216.000000 -327.000000C244.000000 -329.000000,274.000000 -330.000000,319.000000 -330.000000C393.000000 -330.000000,420.000000 -327.000000,438.000000 -318.000000L446.000000 -293.000000L451.000000 -234.000000L481.000000 -234.000000C478.000000 -327.000000,478.000000 -327.000000,478.000000 -345.000000C478.000000 -361.000000,478.000000 -361.000000,481.000000 -461.000000L451.000000 -461.000000L446.000000 -409.000000C445.000000 -400.000000,442.000000 -391.000000,438.000000 -383.000000C420.000000 -375.000000,392.000000 -372.000000,326.000000 -372.000000C284.000000 -372.000000,250.000000 -373.000000,216.000000 -375.000000L216.000000 -642.000000C247.000000 -649.000000,264.000000 -650.000000,333.000000 -650.000000C390.000000 -650.000000,446.000000 -645.000000,478.000000 -636.000000C502.000000 -630.000000,505.000000 -625.000000,505.000000 -602.000000L505.000000 -537.000000L540.000000 -537.000000C540.000000 -597.000000,545.000000 -645.000000,556.000000 -689.000000C507.000000 -691.000000,476.000000 -692.000000,432.000000 -692.000000C407.000000 -692.000000,374.000000 -692.000000,333.000000 -691.000000C270.000000 -690.000000,227.000000 -689.000000,200.000000 -689.000000C166.000000 -689.000000,121.000000 -690.000000,22.000000 -692.000000"></path>
    </g>
    <g transform="scale(0.009963,0.009963)" id="GLYPHpplr8r_70">
      <path style="fill-rule: evenodd;" d="M216.000000 -327.000000C244.000000 -329.000000,274.000000 -330.000000,319.000000 -330.000000C393.000000 -330.000000,420.000000 -327.000000,438.000000 -318.000000L446.000000 -293.000000L451.000000 -234.000000L481.000000 -234.000000C478.000000 -327.000000,478.000000 -327.000000,478.000000 -345.000000C478.000000 -361.000000,478.000000 -361.000000,481.000000 -461.000000L451.000000 -461.000000L446.000000 -409.000000C445.000000 -400.000000,442.000000 -391.000000,438.000000 -383.000000C420.000000 -375.000000,392.000000 -372.000000,326.000000 -372.000000C284.000000 -372.000000,250.000000 -373.000000,216.000000 -375.000000L216.000000 -642.000000C246.000000 -649.000000,264.000000 -650.000000,323.000000 -650.000000C371.000000 -650.000000,427.000000 -644.000000,458.000000 -636.000000C482.000000 -630.000000,485.000000 -625.000000,485.000000 -602.000000L485.000000 -537.000000L520.000000 -537.000000C520.000000 -597.000000,525.000000 -645.000000,536.000000 -689.000000C487.000000 -691.000000,457.000000 -692.000000,414.000000 -692.000000L307.000000 -691.000000C258.000000 -689.000000,223.000000 -689.000000,198.000000 -689.000000C169.000000 -689.000000,169.000000 -689.000000,22.000000 -692.000000L22.000000 -662.000000L70.000000 -659.000000C116.000000 -656.000000,121.000000 -648.000000,121.000000 -569.000000L121.000000 -120.000000C121.000000 -41.000000,116.000000 -33.000000,70.000000 -30.000000L22.000000 -27.000000L22.000000 3.000000C81.000000 1.000000,116.000000 -0.000000,168.000000 -0.000000C220.000000 -0.000000,256.000000 1.000000,315.000000 3.000000L315.000000 -27.000000L267.000000 -30.000000C221.000000 -33.000000,216.000000 -41.000000,216.000000 -120.000000"></path>
    </g>
    <g transform="scale(0.009963,0.009963)" id="GLYPHpplr8r_73">
      <path style="fill-rule: evenodd;" d="M216.000000 -569.000000C216.000000 -648.000000,221.000000 -656.000000,267.000000 -659.000000L315.000000 -662.000000L315.000000 -692.000000C242.000000 -689.000000,220.000000 -689.000000,168.000000 -689.000000C118.000000 -689.000000,94.000000 -690.000000,22.000000 -692.000000L22.000000 -662.000000L70.000000 -659.000000C116.000000 -656.000000,121.000000 -648.000000,121.000000 -569.000000L121.000000 -120.000000C121.000000 -41.000000,116.000000 -33.000000,70.000000 -30.000000L22.000000 -27.000000L22.000000 3.000000C81.000000 1.000000,116.000000 -0.000000,168.000000 -0.000000C220.000000 -0.000000,256.000000 1.000000,315.000000 3.000000L315.000000 -27.000000L267.000000 -30.000000C221.000000 -33.000000,216.000000 -41.000000,216.000000 -120.000000"></path>
    </g>
    <g transform="scale(0.009963,0.009963)" id="GLYPHpplr8r_80">
      <path style="fill-rule: evenodd;" d="M216.000000 -642.000000C251.000000 -650.000000,280.000000 -654.000000,314.000000 -654.000000C422.000000 -654.000000,480.000000 -604.000000,480.000000 -509.000000C480.000000 -419.000000,419.000000 -356.000000,332.000000 -356.000000C311.000000 -356.000000,296.000000 -358.000000,270.000000 -366.000000L280.000000 -330.000000C304.000000 -325.000000,318.000000 -324.000000,338.000000 -324.000000C475.000000 -324.000000,580.000000 -417.000000,580.000000 -537.000000C580.000000 -633.000000,502.000000 -692.000000,375.000000 -692.000000C370.000000 -692.000000,360.000000 -692.000000,347.000000 -691.000000C310.000000 -690.000000,234.000000 -689.000000,205.000000 -689.000000C183.000000 -689.000000,183.000000 -689.000000,23.000000 -692.000000L23.000000 -662.000000L68.000000 -659.000000C113.000000 -656.000000,121.000000 -643.000000,121.000000 -569.000000L121.000000 -120.000000C121.000000 -41.000000,116.000000 -33.000000,70.000000 -30.000000L22.000000 -27.000000L22.000000 3.000000C81.000000 1.000000,116.000000 -0.000000,168.000000 -0.000000C220.000000 -0.000000,256.000000 1.000000,315.000000 3.000000L315.000000 -27.000000L267.000000 -30.000000C221.000000 -33.000000,216.000000 -41.000000,216.000000 -120.000000"></path>
    </g>
    <g transform="scale(0.009963,0.009963)" id="GLYPHpplr8r_81">
      <path style="fill-rule: evenodd;" d="M388.000000 19.000000L372.000000 25.000000C353.000000 31.000000,319.000000 54.000000,263.000000 97.000000L261.000000 129.000000L320.000000 97.000000C332.000000 91.000000,338.000000 89.000000,348.000000 89.000000C367.000000 89.000000,395.000000 94.000000,426.000000 104.000000L574.000000 150.000000C609.000000 161.000000,640.000000 168.000000,680.000000 176.000000L764.000000 120.000000L764.000000 99.000000C725.000000 104.000000,714.000000 105.000000,705.000000 105.000000C657.000000 105.000000,602.000000 90.000000,522.000000 56.000000C460.000000 29.000000,443.000000 24.000000,401.000000 19.000000C480.000000 12.000000,517.000000 1.000000,569.000000 -28.000000C690.000000 -98.000000,764.000000 -227.000000,764.000000 -371.000000C764.000000 -578.000000,622.000000 -709.000000,398.000000 -709.000000C174.000000 -709.000000,22.000000 -561.000000,22.000000 -343.000000C22.000000 -124.000000,162.000000 19.000000,377.000000 19.000000M385.000000 -667.000000C557.000000 -667.000000,657.000000 -545.000000,657.000000 -335.000000C657.000000 -135.000000,569.000000 -23.000000,412.000000 -23.000000C327.000000 -23.000000,259.000000 -55.000000,209.000000 -117.000000C159.000000 -180.000000,129.000000 -276.000000,129.000000 -375.000000C129.000000 -563.000000,220.000000 -667.000000,385.000000 -667.000000"></path>
    </g>
    <g transform="scale(0.009963,0.009963)" id="GLYPHpplr8r_82">
      <path style="fill-rule: evenodd;" d="M216.000000 -642.000000C250.000000 -650.000000,280.000000 -654.000000,314.000000 -654.000000C418.000000 -654.000000,476.000000 -606.000000,476.000000 -521.000000C476.000000 -429.000000,403.000000 -371.000000,287.000000 -371.000000C280.000000 -371.000000,271.000000 -371.000000,258.000000 -372.000000L252.000000 -360.000000C263.000000 -347.000000,266.000000 -343.000000,278.000000 -330.000000C292.000000 -314.000000,295.000000 -310.000000,304.000000 -298.000000L488.000000 -51.000000C494.000000 -43.000000,500.000000 -35.000000,506.000000 -28.000000C513.000000 -19.000000,519.000000 -10.000000,529.000000 3.000000C576.000000 -0.000000,586.000000 -0.000000,597.000000 -0.000000C606.000000 -0.000000,606.000000 -0.000000,669.000000 3.000000L669.000000 -27.000000C637.000000 -30.000000,621.000000 -36.000000,608.000000 -53.000000L381.000000 -349.000000C437.000000 -363.000000,463.000000 -374.000000,496.000000 -397.000000C548.000000 -434.000000,576.000000 -484.000000,576.000000 -542.000000C576.000000 -638.000000,506.000000 -692.000000,382.000000 -692.000000L366.000000 -692.000000C236.000000 -689.000000,236.000000 -689.000000,202.000000 -689.000000C169.000000 -689.000000,169.000000 -689.000000,29.000000 -692.000000L29.000000 -662.000000L70.000000 -659.000000C116.000000 -656.000000,121.000000 -647.000000,121.000000 -569.000000L121.000000 -120.000000C121.000000 -41.000000,116.000000 -33.000000,70.000000 -30.000000L22.000000 -27.000000L22.000000 3.000000C81.000000 1.000000,116.000000 -0.000000,168.000000 -0.000000C220.000000 -0.000000,256.000000 1.000000,315.000000 3.000000L315.000000 -27.000000L267.000000 -30.000000C221.000000 -33.000000,216.000000 -41.000000,216.000000 -120.000000"></path>
    </g>
    <g transform="scale(0.009963,0.009963)" id="GLYPHpplr8r_83">
      <path style="fill-rule: evenodd;" d="M447.000000 -526.000000C447.000000 -579.000000,451.000000 -613.000000,461.000000 -667.000000C381.000000 -699.000000,336.000000 -709.000000,281.000000 -709.000000C132.000000 -709.000000,24.000000 -615.000000,24.000000 -484.000000C24.000000 -435.000000,37.000000 -399.000000,66.000000 -372.000000C100.000000 -341.000000,146.000000 -325.000000,243.000000 -312.000000C320.000000 -301.000000,355.000000 -290.000000,381.000000 -267.000000C407.000000 -246.000000,419.000000 -217.000000,419.000000 -179.000000C419.000000 -89.000000,344.000000 -24.000000,240.000000 -24.000000C160.000000 -24.000000,82.000000 -63.000000,77.000000 -104.000000L69.000000 -171.000000L37.000000 -171.000000C38.000000 -153.000000,38.000000 -137.000000,38.000000 -131.000000C38.000000 -85.000000,36.000000 -63.000000,30.000000 -18.000000C87.000000 7.000000,145.000000 20.000000,203.000000 20.000000C377.000000 20.000000,503.000000 -85.000000,503.000000 -230.000000C503.000000 -277.000000,490.000000 -310.000000,462.000000 -336.000000C427.000000 -369.000000,385.000000 -382.000000,273.000000 -397.000000C151.000000 -413.000000,108.000000 -446.000000,108.000000 -523.000000C108.000000 -607.000000,171.000000 -667.000000,259.000000 -667.000000C298.000000 -667.000000,335.000000 -659.000000,362.000000 -644.000000C395.000000 -627.000000,406.000000 -612.000000,409.000000 -583.000000L415.000000 -526.000000"></path>
    </g>
    <g transform="scale(0.009963,0.009963)" id="GLYPHpplr8r_101">
      <path style="fill-rule: evenodd;" d="M437.000000 -70.000000L424.000000 -80.000000C360.000000 -42.000000,337.000000 -33.000000,294.000000 -33.000000C229.000000 -33.000000,175.000000 -62.000000,147.000000 -111.000000C128.000000 -144.000000,121.000000 -172.000000,119.000000 -230.000000L265.000000 -230.000000C334.000000 -230.000000,377.000000 -233.000000,446.000000 -244.000000C447.000000 -258.000000,448.000000 -267.000000,448.000000 -279.000000C448.000000 -394.000000,374.000000 -469.000000,262.000000 -469.000000C225.000000 -469.000000,182.000000 -456.000000,141.000000 -432.000000C59.000000 -385.000000,26.000000 -323.000000,26.000000 -219.000000C26.000000 -156.000000,41.000000 -102.000000,68.000000 -64.000000C108.000000 -11.000000,175.000000 20.000000,250.000000 20.000000C287.000000 20.000000,324.000000 12.000000,365.000000 -6.000000C392.000000 -17.000000,413.000000 -30.000000,417.000000 -36.000000M359.000000 -267.000000C307.000000 -265.000000,283.000000 -264.000000,247.000000 -264.000000C201.000000 -264.000000,175.000000 -265.000000,121.000000 -270.000000C121.000000 -317.000000,125.000000 -339.000000,138.000000 -365.000000C159.000000 -409.000000,202.000000 -436.000000,250.000000 -436.000000C283.000000 -436.000000,309.000000 -423.000000,327.000000 -396.000000C349.000000 -363.000000,356.000000 -334.000000,359.000000 -267.000000"></path>
    </g>
  </defs>
  <path d="M78.000000 253.000000L78.000000 26.228394" style="stroke:rgb(0.000000%,0.000000%,0.000000%); stroke-width: 0.500000;stroke-linecap: round;stroke-linejoin: round;stroke-miterlimit: 10.000000;fill: none;"></path>
  <path d="M79.530792 29.923965L78.000000 26.228394L76.469208 29.923965Z" style="stroke:rgb(0.000000%,0.000000%,0.000000%); stroke-width: 0.500000;fill: rgb(0.000000%,0.000000%,0.000000%);"></path>
  <path d="M78.000000 253.000000L304.771606 253.000000" style="stroke:rgb(0.000000%,0.000000%,0.000000%); stroke-width: 0.500000;stroke-linecap: round;stroke-linejoin: round;stroke-miterlimit: 10.000000;fill: none;"></path>
  <path d="M301.076035 254.530792L304.771606 253.000000L301.076035 251.469208Z" style="stroke:rgb(0.000000%,0.000000%,0.000000%); stroke-width: 0.500000;fill: rgb(0.000000%,0.000000%,0.000000%);"></path>
  <g transform="translate(18.373596 7.686584)" style="fill: rgb(0.000000%,0.000000%,0.000000%);">
    <use xlink:href="#GLYPHpplb8r_73"></use>
  </g>
  <g transform="translate(22.249100 7.686584)" style="fill: rgb(0.000000%,0.000000%,0.000000%);">
    <use xlink:href="#GLYPHpplb8r_110"></use>
  </g>
  <g transform="translate(28.336197 7.686584)" style="fill: rgb(0.000000%,0.000000%,0.000000%);">
    <use xlink:href="#GLYPHpplb8r_2"></use>
  </g>
  <g transform="translate(34.423401 7.686584)" style="fill: rgb(0.000000%,0.000000%,0.000000%);">
    <use xlink:href="#GLYPHpplb8r_110"></use>
  </g>
  <g transform="translate(40.510590 7.686584)" style="fill: rgb(0.000000%,0.000000%,0.000000%);">
    <use xlink:href="#GLYPHpplb8r_105"></use>
  </g>
  <g transform="translate(43.828094 7.686584)" style="fill: rgb(0.000000%,0.000000%,0.000000%);">
    <use xlink:href="#GLYPHpplb8r_66"></use>
  </g>
  <g transform="translate(50.473190 7.686584)" style="fill: rgb(0.000000%,0.000000%,0.000000%);">
    <use xlink:href="#GLYPHpplb8r_97"></use>
    <use xlink:href="#GLYPHpplb8r_110" x="5.000079"></use>
  </g>
  <g transform="translate(61.541702 7.686584)" style="fill: rgb(0.000000%,0.000000%,0.000000%);">
    <use xlink:href="#GLYPHpplb8r_100"></use>
  </g>
  <g transform="translate(70.528000 7.686584)" style="fill: rgb(0.000000%,0.000000%,0.000000%);">
    <use xlink:href="#GLYPHpplb8r_66"></use>
  </g>
  <g transform="translate(77.173096 7.686584)" style="fill: rgb(0.000000%,0.000000%,0.000000%);">
    <use xlink:href="#GLYPHpplb8r_97"></use>
    <use xlink:href="#GLYPHpplb8r_110" x="5.000079"></use>
  </g>
  <g transform="translate(88.241592 7.686584)" style="fill: rgb(0.000000%,0.000000%,0.000000%);">
    <use xlink:href="#GLYPHpplb8r_100"></use>
  </g>
  <g transform="translate(94.328796 7.686584)" style="fill: rgb(0.000000%,0.000000%,0.000000%);">
    <use xlink:href="#GLYPHpplb8r_119"></use>
  </g>
  <g transform="translate(102.627594 7.686584)" style="fill: rgb(0.000000%,0.000000%,0.000000%);">
    <use xlink:href="#GLYPHpplb8r_105"></use>
  </g>
  <g transform="translate(105.945190 7.686584)" style="fill: rgb(0.000000%,0.000000%,0.000000%);">
    <use xlink:href="#GLYPHpplb8r_100"></use>
  </g>
  <g transform="translate(112.032394 7.686584)" style="fill: rgb(0.000000%,0.000000%,0.000000%);">
    <use xlink:href="#GLYPHpplb8r_116"></use>
  </g>
  <g transform="translate(115.349899 7.686584)" style="fill: rgb(0.000000%,0.000000%,0.000000%);">
    <use xlink:href="#GLYPHpplb8r_104"></use>
  </g>
  <g transform="translate(124.336197 7.686584)" style="fill: rgb(0.000000%,0.000000%,0.000000%);">
    <use xlink:href="#GLYPHpplb8r_102"></use>
  </g>
  <g transform="translate(128.211700 7.686584)" style="fill: rgb(0.000000%,0.000000%,0.000000%);">
    <use xlink:href="#GLYPHpplb8r_111"></use>
  </g>
  <g transform="translate(133.750900 7.686584)" style="fill: rgb(0.000000%,0.000000%,0.000000%);">
    <use xlink:href="#GLYPHpplb8r_114"></use>
  </g>
  <g transform="translate(41.815689 19.641785)" style="fill: rgb(0.000000%,0.000000%,0.000000%);">
    <use xlink:href="#GLYPHpplb8r_120"></use>
    <use xlink:href="#GLYPHpplb8r_49" x="5.000079"></use>
    <use xlink:href="#GLYPHpplb8r_54" x="10.000159"></use>
  </g>
  <g transform="translate(59.658798 19.641785)" style="fill: rgb(0.000000%,0.000000%,0.000000%);">
    <use xlink:href="#GLYPHpplb8r_108"></use>
  </g>
  <g transform="translate(62.976303 19.641785)" style="fill: rgb(0.000000%,0.000000%,0.000000%);">
    <use xlink:href="#GLYPHpplb8r_105"></use>
  </g>
  <g transform="translate(66.293900 19.641785)" style="fill: rgb(0.000000%,0.000000%,0.000000%);">
    <use xlink:href="#GLYPHpplb8r_110"></use>
  </g>
  <g transform="translate(72.381104 19.641785)" style="fill: rgb(0.000000%,0.000000%,0.000000%);">
    <use xlink:href="#GLYPHpplb8r_107"></use>
  </g>
  <g transform="translate(78.468201 19.641785)" style="fill: rgb(0.000000%,0.000000%,0.000000%);">
    <use xlink:href="#GLYPHpplb8r_115"></use>
  </g>
  <g transform="translate(85.790802 19.641785)" style="fill: rgb(0.000000%,0.000000%,0.000000%);">
    <use xlink:href="#GLYPHpplb8r_40"></use>
  </g>
  <g transform="translate(89.108292 19.641785)" style="fill: rgb(0.000000%,0.000000%,0.000000%);">
    <use xlink:href="#GLYPHpplb8r_71"></use>
  </g>
  <g transform="translate(97.407196 19.641785)" style="fill: rgb(0.000000%,0.000000%,0.000000%);">
    <use xlink:href="#GLYPHpplb8r_98"></use>
  </g>
  <g transform="translate(103.494400 19.641785)" style="fill: rgb(0.000000%,0.000000%,0.000000%);">
    <use xlink:href="#GLYPHpplb8r_47"></use>
  </g>
  <g transform="translate(106.443298 19.641785)" style="fill: rgb(0.000000%,0.000000%,0.000000%);">
    <use xlink:href="#GLYPHpplb8r_115"></use>
  </g>
  <g transform="translate(110.866699 19.641785)" style="fill: rgb(0.000000%,0.000000%,0.000000%);">
    <use xlink:href="#GLYPHpplb8r_41"></use>
  </g>
  <g transform="translate(163.654800 277.331329)" style="fill: rgb(0.000000%,0.000000%,0.000000%);">
    <use xlink:href="#GLYPHpplb8r_76"></use>
  </g>
  <g transform="translate(169.742004 277.331329)" style="fill: rgb(0.000000%,0.000000%,0.000000%);">
    <use xlink:href="#GLYPHpplb8r_97"></use>
    <use xlink:href="#GLYPHpplb8r_116" x="5.000079"></use>
  </g>
  <g transform="translate(178.040894 277.331329)" style="fill: rgb(0.000000%,0.000000%,0.000000%);">
    <use xlink:href="#GLYPHpplb8r_101"></use>
    <use xlink:href="#GLYPHpplb8r_110" x="5.000079"></use>
  </g>
  <g transform="translate(189.109299 277.331329)" style="fill: rgb(0.000000%,0.000000%,0.000000%);">
    <use xlink:href="#GLYPHpplb8r_99"></use>
  </g>
  <g transform="translate(193.532806 277.331329)" style="fill: rgb(0.000000%,0.000000%,0.000000%);">
    <use xlink:href="#GLYPHpplb8r_121"></use>
  </g>
  <g transform="translate(201.971100 277.331329)" style="fill: rgb(0.000000%,0.000000%,0.000000%);">
    <use xlink:href="#GLYPHpplb8r_40"></use>
  </g>
  <g transform="translate(205.288696 277.331329)" style="fill: rgb(0.000000%,0.000000%,0.000000%);">
    <use xlink:href="#GLYPHpplb8r_117"></use>
  </g>
  <g transform="translate(211.375900 277.331329)" style="fill: rgb(0.000000%,0.000000%,0.000000%);">
    <use xlink:href="#GLYPHpplb8r_115"></use>
  </g>
  <g transform="translate(215.799301 277.331329)" style="fill: rgb(0.000000%,0.000000%,0.000000%);">
    <use xlink:href="#GLYPHpplb8r_41"></use>
  </g>
  <path d="M113.433060 253.000000L113.433060 250.011215" style="stroke:rgb(0.000000%,0.000000%,0.000000%); stroke-width: 0.500000;stroke-linecap: round;stroke-linejoin: round;stroke-miterlimit: 10.000000;fill: none;"></path>
  <g transform="translate(110.942398 262.779510)" style="fill: rgb(0.000000%,0.000000%,0.000000%);">
    <use xlink:href="#GLYPHpplr8r_49"></use>
  </g>
  <path d="M148.866135 253.000000L148.866135 250.011215" style="stroke:rgb(0.000000%,0.000000%,0.000000%); stroke-width: 0.500000;stroke-linecap: round;stroke-linejoin: round;stroke-miterlimit: 10.000000;fill: none;"></path>
  <g transform="translate(146.375473 262.779510)" style="fill: rgb(0.000000%,0.000000%,0.000000%);">
    <use xlink:href="#GLYPHpplr8r_50"></use>
  </g>
  <path d="M184.299194 253.000000L184.299194 250.011215" style="stroke:rgb(0.000000%,0.000000%,0.000000%); stroke-width: 0.500000;stroke-linecap: round;stroke-linejoin: round;stroke-miterlimit: 10.000000;fill: none;"></path>
  <g transform="translate(181.808533 262.779510)" style="fill: rgb(0.000000%,0.000000%,0.000000%);">
    <use xlink:href="#GLYPHpplr8r_51"></use>
  </g>
  <path d="M219.732254 253.000000L219.732254 250.011215" style="stroke:rgb(0.000000%,0.000000%,0.000000%); stroke-width: 0.500000;stroke-linecap: round;stroke-linejoin: round;stroke-miterlimit: 10.000000;fill: none;"></path>
  <g transform="translate(217.241592 262.779510)" style="fill: rgb(0.000000%,0.000000%,0.000000%);">
    <use xlink:href="#GLYPHpplr8r_52"></use>
  </g>
  <path d="M255.165329 253.000000L255.165329 250.011215" style="stroke:rgb(0.000000%,0.000000%,0.000000%); stroke-width: 0.500000;stroke-linecap: round;stroke-linejoin: round;stroke-miterlimit: 10.000000;fill: none;"></path>
  <g transform="translate(252.674667 262.779510)" style="fill: rgb(0.000000%,0.000000%,0.000000%);">
    <use xlink:href="#GLYPHpplr8r_53"></use>
  </g>
  <path d="M290.598389 253.000000L290.598389 250.011215" style="stroke:rgb(0.000000%,0.000000%,0.000000%); stroke-width: 0.500000;stroke-linecap: round;stroke-linejoin: round;stroke-miterlimit: 10.000000;fill: none;"></path>
  <g transform="translate(288.107727 262.779510)" style="fill: rgb(0.000000%,0.000000%,0.000000%);">
    <use xlink:href="#GLYPHpplr8r_54"></use>
  </g>
  <path d="M78.000000 226.425201L80.988785 226.425201" style="stroke:rgb(0.000000%,0.000000%,0.000000%); stroke-width: 0.500000;stroke-linecap: round;stroke-linejoin: round;stroke-miterlimit: 10.000000;fill: none;"></path>
  <g transform="translate(65.037354 229.782578)" style="fill: rgb(0.000000%,0.000000%,0.000000%);">
    <use xlink:href="#GLYPHpplr8r_49"></use>
    <use xlink:href="#GLYPHpplr8r_54" x="5.000079"></use>
  </g>
  <path d="M78.000000 199.850403L80.988785 199.850403" style="stroke:rgb(0.000000%,0.000000%,0.000000%); stroke-width: 0.500000;stroke-linecap: round;stroke-linejoin: round;stroke-miterlimit: 10.000000;fill: none;"></path>
  <g transform="translate(65.037354 203.207779)" style="fill: rgb(0.000000%,0.000000%,0.000000%);">
    <use xlink:href="#GLYPHpplr8r_51"></use>
    <use xlink:href="#GLYPHpplr8r_50" x="5.000079"></use>
  </g>
  <path d="M78.000000 173.275604L80.988785 173.275604" style="stroke:rgb(0.000000%,0.000000%,0.000000%); stroke-width: 0.500000;stroke-linecap: round;stroke-linejoin: round;stroke-miterlimit: 10.000000;fill: none;"></path>
  <g transform="translate(65.037354 176.632980)" style="fill: rgb(0.000000%,0.000000%,0.000000%);">
    <use xlink:href="#GLYPHpplr8r_52"></use>
    <use xlink:href="#GLYPHpplr8r_56" x="5.000079"></use>
  </g>
  <path d="M78.000000 146.700806L80.988785 146.700806" style="stroke:rgb(0.000000%,0.000000%,0.000000%); stroke-width: 0.500000;stroke-linecap: round;stroke-linejoin: round;stroke-miterlimit: 10.000000;fill: none;"></path>
  <g transform="translate(65.037354 150.058182)" style="fill: rgb(0.000000%,0.000000%,0.000000%);">
    <use xlink:href="#GLYPHpplr8r_54"></use>
    <use xlink:href="#GLYPHpplr8r_52" x="5.000079"></use>
  </g>
  <path d="M78.000000 120.126007L80.988785 120.126007" style="stroke:rgb(0.000000%,0.000000%,0.000000%); stroke-width: 0.500000;stroke-linecap: round;stroke-linejoin: round;stroke-miterlimit: 10.000000;fill: none;"></path>
  <g transform="translate(65.037354 123.483383)" style="fill: rgb(0.000000%,0.000000%,0.000000%);">
    <use xlink:href="#GLYPHpplr8r_56"></use>
    <use xlink:href="#GLYPHpplr8r_48" x="5.000079"></use>
  </g>
  <path d="M78.000000 93.551208L80.988785 93.551208" style="stroke:rgb(0.000000%,0.000000%,0.000000%); stroke-width: 0.500000;stroke-linecap: round;stroke-linejoin: round;stroke-miterlimit: 10.000000;fill: none;"></path>
  <g transform="translate(65.037354 96.908585)" style="fill: rgb(0.000000%,0.000000%,0.000000%);">
    <use xlink:href="#GLYPHpplr8r_57"></use>
    <use xlink:href="#GLYPHpplr8r_54" x="5.000079"></use>
  </g>
  <path d="M78.000000 66.976410L80.988785 66.976410" style="stroke:rgb(0.000000%,0.000000%,0.000000%); stroke-width: 0.500000;stroke-linecap: round;stroke-linejoin: round;stroke-miterlimit: 10.000000;fill: none;"></path>
  <g transform="translate(60.056030 70.333786)" style="fill: rgb(0.000000%,0.000000%,0.000000%);">
    <use xlink:href="#GLYPHpplr8r_49"></use>
    <use xlink:href="#GLYPHpplr8r_49" x="5.000079"></use>
    <use xlink:href="#GLYPHpplr8r_50" x="10.000159"></use>
  </g>
  <path d="M78.000000 40.401611L80.988785 40.401611" style="stroke:rgb(0.000000%,0.000000%,0.000000%); stroke-width: 0.500000;stroke-linecap: round;stroke-linejoin: round;stroke-miterlimit: 10.000000;fill: none;"></path>
  <g transform="translate(60.056030 43.758987)" style="fill: rgb(0.000000%,0.000000%,0.000000%);">
    <use xlink:href="#GLYPHpplr8r_49"></use>
    <use xlink:href="#GLYPHpplr8r_50" x="5.000079"></use>
    <use xlink:href="#GLYPHpplr8r_56" x="10.000159"></use>
  </g>
  <path d="M255.165329 239.712601l0 0" style="stroke:rgb(0.000000%,0.000000%,0.000000%); stroke-width: 4.000000;stroke-linecap: round;stroke-linejoin: round;stroke-miterlimit: 10.000000;fill: none;"></path>
  <g transform="translate(258.165329 237.177139)" style="fill: rgb(0.000000%,0.000000%,0.000000%);">
    <use xlink:href="#GLYPHpplr8r_83"></use>
    <use xlink:href="#GLYPHpplr8r_68" x="5.250071"></use>
    <use xlink:href="#GLYPHpplr8r_82" x="12.990181"></use>
  </g>
  <path d="M166.582657 226.425201l0 0" style="stroke:rgb(0.000000%,0.000000%,0.000000%); stroke-width: 4.000000;stroke-linecap: round;stroke-linejoin: round;stroke-miterlimit: 10.000000;fill: none;"></path>
  <path d="M245.202713 238.218262L176.545273 227.919540" style="stroke:rgb(0.000000%,0.000000%,0.000000%); stroke-width: 0.500000;stroke-linecap: round;stroke-linejoin: round;stroke-miterlimit: 10.000000;fill: none;"></path>
  <path d="M180.427063 226.953903L176.545273 227.919540L179.972900 229.981644Z" style="stroke:rgb(0.000000%,0.000000%,0.000000%); stroke-width: 0.500000;fill: rgb(0.000000%,0.000000%,0.000000%);"></path>
  <g transform="translate(169.582657 223.894684)" style="fill: rgb(0.000000%,0.000000%,0.000000%);">
    <use xlink:href="#GLYPHpplr8r_68"></use>
    <use xlink:href="#GLYPHpplr8r_68" x="7.740109"></use>
    <use xlink:href="#GLYPHpplr8r_82" x="15.480219"></use>
  </g>
  <path d="M131.149597 199.850403l0 0" style="stroke:rgb(0.000000%,0.000000%,0.000000%); stroke-width: 4.000000;stroke-linecap: round;stroke-linejoin: round;stroke-miterlimit: 10.000000;fill: none;"></path>
  <path d="M161.601349 222.689209L136.130905 203.586395" style="stroke:rgb(0.000000%,0.000000%,0.000000%); stroke-width: 0.500000;stroke-linecap: round;stroke-linejoin: round;stroke-miterlimit: 10.000000;fill: none;"></path>
  <path d="M140.005936 204.579132L136.130905 203.586395L138.168930 207.028442Z" style="stroke:rgb(0.000000%,0.000000%,0.000000%); stroke-width: 0.500000;fill: rgb(0.000000%,0.000000%,0.000000%);"></path>
  <g transform="translate(134.149597 196.497986)" style="fill: rgb(0.000000%,0.000000%,0.000000%);">
    <use xlink:href="#GLYPHpplr8r_81"></use>
  </g>
  <g transform="translate(141.980194 196.497986)" style="fill: rgb(0.000000%,0.000000%,0.000000%);">
    <use xlink:href="#GLYPHpplr8r_68"></use>
    <use xlink:href="#GLYPHpplr8r_82" x="7.740109"></use>
  </g>
  <path d="M102.803040 162.379944l0 0" style="stroke:rgb(0.000000%,0.000000%,0.000000%); stroke-width: 4.000000;stroke-linecap: round;stroke-linejoin: round;stroke-miterlimit: 10.000000;fill: none;"></path>
  <path d="M127.828720 195.460648L103.910004 166.769699" style="stroke:rgb(0.000000%,0.000000%,0.000000%); stroke-width: 0.500000;stroke-linecap: round;stroke-linejoin: round;stroke-miterlimit: 10.000000;fill: none;"></path>
  <path d="M107.452164 168.628021L103.910004 166.769699L105.100601 170.588440Z" style="stroke:rgb(0.000000%,0.000000%,0.000000%); stroke-width: 0.500000;fill: rgb(0.000000%,0.000000%,0.000000%);"></path>
  <g transform="translate(105.803040 159.849426)" style="fill: rgb(0.000000%,0.000000%,0.000000%);">
    <use xlink:href="#GLYPHpplr8r_70"></use>
  </g>
  <g transform="translate(111.342239 159.849426)" style="fill: rgb(0.000000%,0.000000%,0.000000%);">
    <use xlink:href="#GLYPHpplr8r_68"></use>
    <use xlink:href="#GLYPHpplr8r_82" x="7.740109"></use>
  </g>
  <path d="M95.716537 91.956680l0 0" style="stroke:rgb(0.000000%,0.000000%,0.000000%); stroke-width: 4.000000;stroke-linecap: round;stroke-linejoin: round;stroke-miterlimit: 10.000000;fill: none;"></path>
  <path d="M101.972824 154.129517L96.546753 100.207108" style="stroke:rgb(0.000000%,0.000000%,0.000000%); stroke-width: 0.500000;stroke-linecap: round;stroke-linejoin: round;stroke-miterlimit: 10.000000;fill: none;"></path>
  <path d="M98.439804 103.730728L96.546753 100.207108L95.393723 104.037247Z" style="stroke:rgb(0.000000%,0.000000%,0.000000%); stroke-width: 0.500000;fill: rgb(0.000000%,0.000000%,0.000000%);"></path>
  <g transform="translate(98.716537 89.426163)" style="fill: rgb(0.000000%,0.000000%,0.000000%);">
    <use xlink:href="#GLYPHpplr8r_69"></use>
  </g>
  <g transform="translate(104.803741 89.426163)" style="fill: rgb(0.000000%,0.000000%,0.000000%);">
    <use xlink:href="#GLYPHpplr8r_68"></use>
    <use xlink:href="#GLYPHpplr8r_82" x="7.740109"></use>
  </g>
  <path d="M35.480316 199.850403L58.074768 199.850403" style="stroke:rgb(0.000000%,0.000000%,0.000000%); stroke-width: 0.500000;stroke-linecap: round;stroke-linejoin: round;stroke-miterlimit: 10.000000;fill: none;"></path>
  <path d="M54.379333 201.381134L58.074768 199.850403L54.379333 198.319672Z" style="stroke:rgb(0.000000%,0.000000%,0.000000%); stroke-width: 0.500000;fill: rgb(0.000000%,0.000000%,0.000000%);"></path>
  <g transform="translate(5.292313 196.263794)" style="fill: rgb(0.000000%,0.000000%,0.000000%);">
    <use xlink:href="#GLYPHpplr8r_80"></use>
  </g>
  <g transform="translate(11.309708 196.263794)" style="fill: rgb(0.000000%,0.000000%,0.000000%);">
    <use xlink:href="#GLYPHpplr8r_67"></use>
  </g>
  <g transform="translate(18.373215 196.263794)" style="fill: rgb(0.000000%,0.000000%,0.000000%);">
    <use xlink:href="#GLYPHpplr8r_73"></use>
    <use xlink:href="#GLYPHpplr8r_101" x="3.370048"></use>
  </g>
  <g transform="translate(9.670914 208.218994)" style="fill: rgb(0.000000%,0.000000%,0.000000%);">
    <use xlink:href="#GLYPHpplr8r_49"></use>
    <use xlink:href="#GLYPHpplr8r_46" x="5.000079"></use>
    <use xlink:href="#GLYPHpplr8r_48" x="7.500119"></use>
  </g>
  <path d="M35.480316 146.700806L58.074768 146.700806" style="stroke:rgb(0.000000%,0.000000%,0.000000%); stroke-width: 0.500000;stroke-linecap: round;stroke-linejoin: round;stroke-miterlimit: 10.000000;fill: none;"></path>
  <path d="M54.379333 148.231537L58.074768 146.700806L54.379333 145.170074Z" style="stroke:rgb(0.000000%,0.000000%,0.000000%); stroke-width: 0.500000;fill: rgb(0.000000%,0.000000%,0.000000%);"></path>
  <g transform="translate(5.292313 143.114197)" style="fill: rgb(0.000000%,0.000000%,0.000000%);">
    <use xlink:href="#GLYPHpplr8r_80"></use>
  </g>
  <g transform="translate(11.309708 143.114197)" style="fill: rgb(0.000000%,0.000000%,0.000000%);">
    <use xlink:href="#GLYPHpplr8r_67"></use>
  </g>
  <g transform="translate(18.373215 143.114197)" style="fill: rgb(0.000000%,0.000000%,0.000000%);">
    <use xlink:href="#GLYPHpplr8r_73"></use>
    <use xlink:href="#GLYPHpplr8r_101" x="3.370048"></use>
  </g>
  <g transform="translate(9.670914 155.069397)" style="fill: rgb(0.000000%,0.000000%,0.000000%);">
    <use xlink:href="#GLYPHpplr8r_50"></use>
    <use xlink:href="#GLYPHpplr8r_46" x="5.000079"></use>
    <use xlink:href="#GLYPHpplr8r_48" x="7.500119"></use>
  </g>
  <path d="M35.480316 40.401611L58.074768 40.401611" style="stroke:rgb(0.000000%,0.000000%,0.000000%); stroke-width: 0.500000;stroke-linecap: round;stroke-linejoin: round;stroke-miterlimit: 10.000000;fill: none;"></path>
  <path d="M54.379333 41.932343L58.074768 40.401611L54.379333 38.870880Z" style="stroke:rgb(0.000000%,0.000000%,0.000000%); stroke-width: 0.500000;fill: rgb(0.000000%,0.000000%,0.000000%);"></path>
  <g transform="translate(5.292313 36.815002)" style="fill: rgb(0.000000%,0.000000%,0.000000%);">
    <use xlink:href="#GLYPHpplr8r_80"></use>
  </g>
  <g transform="translate(11.309708 36.815002)" style="fill: rgb(0.000000%,0.000000%,0.000000%);">
    <use xlink:href="#GLYPHpplr8r_67"></use>
  </g>
  <g transform="translate(18.373215 36.815002)" style="fill: rgb(0.000000%,0.000000%,0.000000%);">
    <use xlink:href="#GLYPHpplr8r_73"></use>
    <use xlink:href="#GLYPHpplr8r_101" x="3.370048"></use>
  </g>
  <g transform="translate(9.670914 48.770203)" style="fill: rgb(0.000000%,0.000000%,0.000000%);">
    <use xlink:href="#GLYPHpplr8r_51"></use>
    <use xlink:href="#GLYPHpplr8r_46" x="5.000079"></use>
    <use xlink:href="#GLYPHpplr8r_48" x="7.500119"></use>
  </g>
</svg>
