<?xml version="1.0"?>
<!-- Created by MetaPost 1.999 on 2016.03.06:0158 -->
<svg version="1.1" xmlns="http://www.w3.org/2000/svg" xmlns:xlink="http://www.w3.org/1999/xlink" width="306.497284" height="280.817856" viewBox="0 0 306.497284 280.817856">
<!-- Original BoundingBox: -79.475677 -27.135941 227.021606 253.681915 -->
  <defs>
    <g transform="scale(0.009963,0.009963)" id="GLYPHcmr10_12">
      <path style="fill-rule: evenodd;" d="M330.000000 -400.000000C376.000000 -400.000000,383.000000 -387.000000,383.000000 -346.000000L383.000000 -76.000000C383.000000 -31.000000,372.000000 -31.000000,305.000000 -31.000000L305.000000 -0.000000L416.000000 -0.000000L338.000000 -1.000000L391.000000 -3.000000L416.000000 -3.000000L441.000000 -3.000000L490.000000 -1.000000L527.000000 -0.000000L527.000000 -31.000000C460.000000 -31.000000,449.000000 -31.000000,449.000000 -76.000000L449.000000 -443.000000L323.000000 -434.000000C307.000000 -433.000000,306.000000 -432.000000,305.000000 -432.000000C303.000000 -431.000000,301.000000 -431.000000,287.000000 -431.000000L169.000000 -431.000000L169.000000 -544.000000C169.000000 -643.000000,255.000000 -683.000000,317.000000 -683.000000C347.000000 -683.000000,383.000000 -673.000000,403.000000 -650.000000C362.000000 -648.000000,356.000000 -620.000000,356.000000 -604.000000C356.000000 -571.000000,382.000000 -558.000000,401.000000 -558.000000C424.000000 -558.000000,447.000000 -574.000000,447.000000 -604.000000C447.000000 -663.000000,392.000000 -705.000000,318.000000 -705.000000C225.000000 -705.000000,106.000000 -654.000000,106.000000 -545.000000L106.000000 -431.000000L27.000000 -431.000000L27.000000 -400.000000L106.000000 -400.000000L106.000000 -76.000000C106.000000 -31.000000,95.000000 -31.000000,28.000000 -31.000000L28.000000 -0.000000L139.000000 -0.000000L61.000000 -1.000000L114.000000 -3.000000L139.000000 -3.000000L164.000000 -3.000000L213.000000 -1.000000L250.000000 -0.000000L250.000000 -31.000000C183.000000 -31.000000,172.000000 -31.000000,172.000000 -76.000000L172.000000 -400.000000"></path>
    </g>
    <g transform="scale(0.009963,0.009963)" id="GLYPHcmr10_40">
      <path style="fill-rule: evenodd;" d="M331.000000 240.000000C331.000000 237.000000,331.000000 235.000000,314.000000 218.000000C189.000000 92.000000,157.000000 -97.000000,157.000000 -250.000000C157.000000 -424.000000,195.000000 -598.000000,318.000000 -723.000000C331.000000 -735.000000,331.000000 -737.000000,331.000000 -740.000000C331.000000 -747.000000,327.000000 -750.000000,321.000000 -750.000000C311.000000 -750.000000,221.000000 -682.000000,162.000000 -555.000000C111.000000 -445.000000,99.000000 -334.000000,99.000000 -250.000000C99.000000 -172.000000,110.000000 -51.000000,165.000000 62.000000C225.000000 185.000000,311.000000 250.000000,321.000000 250.000000C327.000000 250.000000,331.000000 247.000000,331.000000 240.000000"></path>
    </g>
    <g transform="scale(0.009963,0.009963)" id="GLYPHcmr10_41">
      <path style="fill-rule: evenodd;" d="M289.000000 -250.000000C289.000000 -328.000000,278.000000 -449.000000,223.000000 -562.000000C163.000000 -685.000000,77.000000 -750.000000,67.000000 -750.000000C61.000000 -750.000000,57.000000 -746.000000,57.000000 -740.000000C57.000000 -737.000000,57.000000 -735.000000,76.000000 -717.000000C174.000000 -618.000000,231.000000 -459.000000,231.000000 -250.000000C231.000000 -79.000000,194.000000 97.000000,70.000000 223.000000C57.000000 235.000000,57.000000 237.000000,57.000000 240.000000C57.000000 246.000000,61.000000 250.000000,67.000000 250.000000C77.000000 250.000000,167.000000 182.000000,226.000000 55.000000C277.000000 -55.000000,289.000000 -166.000000,289.000000 -250.000000"></path>
    </g>
    <g transform="scale(0.009963,0.009963)" id="GLYPHcmr10_46">
      <path style="fill-rule: evenodd;" d="M192.000000 -53.000000C192.000000 -82.000000,168.000000 -106.000000,139.000000 -106.000000C110.000000 -106.000000,86.000000 -82.000000,86.000000 -53.000000C86.000000 -24.000000,110.000000 -0.000000,139.000000 -0.000000C168.000000 -0.000000,192.000000 -24.000000,192.000000 -53.000000"></path>
    </g>
    <g transform="scale(0.009963,0.009963)" id="GLYPHcmr10_47">
      <path style="fill-rule: evenodd;" d="M438.000000 -712.000000C443.000000 -725.000000,443.000000 -728.000000,443.000000 -730.000000C443.000000 -741.000000,434.000000 -750.000000,423.000000 -750.000000C409.000000 -750.000000,405.000000 -740.000000,402.000000 -730.000000L61.000000 212.000000C56.000000 225.000000,56.000000 228.000000,56.000000 230.000000C56.000000 241.000000,65.000000 250.000000,76.000000 250.000000C90.000000 250.000000,94.000000 240.000000,97.000000 230.000000"></path>
    </g>
    <g transform="scale(0.009963,0.009963)" id="GLYPHcmr10_48">
      <path style="fill-rule: evenodd;" d="M460.000000 -320.000000C460.000000 -400.000000,455.000000 -480.000000,420.000000 -554.000000C374.000000 -650.000000,292.000000 -666.000000,250.000000 -666.000000C190.000000 -666.000000,117.000000 -640.000000,76.000000 -547.000000C44.000000 -478.000000,39.000000 -400.000000,39.000000 -320.000000C39.000000 -245.000000,43.000000 -155.000000,84.000000 -79.000000C127.000000 2.000000,200.000000 22.000000,249.000000 22.000000C303.000000 22.000000,379.000000 1.000000,423.000000 -94.000000C455.000000 -163.000000,460.000000 -241.000000,460.000000 -320.000000M249.000000 -0.000000C210.000000 -0.000000,151.000000 -25.000000,133.000000 -121.000000C122.000000 -181.000000,122.000000 -273.000000,122.000000 -332.000000C122.000000 -396.000000,122.000000 -462.000000,130.000000 -516.000000C149.000000 -635.000000,224.000000 -644.000000,249.000000 -644.000000C282.000000 -644.000000,348.000000 -626.000000,367.000000 -527.000000C377.000000 -471.000000,377.000000 -395.000000,377.000000 -332.000000C377.000000 -257.000000,377.000000 -189.000000,366.000000 -125.000000C351.000000 -30.000000,294.000000 -0.000000,249.000000 -0.000000"></path>
    </g>
    <g transform="scale(0.009963,0.009963)" id="GLYPHcmr10_49">
      <path style="fill-rule: evenodd;" d="M294.000000 -640.000000C294.000000 -664.000000,294.000000 -666.000000,271.000000 -666.000000C209.000000 -602.000000,121.000000 -602.000000,89.000000 -602.000000L89.000000 -571.000000C109.000000 -571.000000,168.000000 -571.000000,220.000000 -597.000000L220.000000 -79.000000C220.000000 -43.000000,217.000000 -31.000000,127.000000 -31.000000L95.000000 -31.000000L95.000000 -0.000000L257.000000 -0.000000L130.000000 -3.000000L217.000000 -3.000000L257.000000 -3.000000L297.000000 -3.000000L384.000000 -3.000000L419.000000 -0.000000L419.000000 -31.000000L387.000000 -31.000000C297.000000 -31.000000,294.000000 -42.000000,294.000000 -79.000000"></path>
    </g>
    <g transform="scale(0.009963,0.009963)" id="GLYPHcmr10_50">
      <path style="fill-rule: evenodd;" d="M127.000000 -77.000000L233.000000 -180.000000C389.000000 -318.000000,449.000000 -372.000000,449.000000 -472.000000C449.000000 -586.000000,359.000000 -666.000000,237.000000 -666.000000C124.000000 -666.000000,50.000000 -574.000000,50.000000 -485.000000C50.000000 -429.000000,100.000000 -429.000000,103.000000 -429.000000C120.000000 -429.000000,155.000000 -441.000000,155.000000 -482.000000C155.000000 -508.000000,137.000000 -534.000000,102.000000 -534.000000C94.000000 -534.000000,92.000000 -534.000000,89.000000 -533.000000C112.000000 -598.000000,166.000000 -635.000000,224.000000 -635.000000C315.000000 -635.000000,358.000000 -554.000000,358.000000 -472.000000C358.000000 -392.000000,308.000000 -313.000000,253.000000 -251.000000L61.000000 -37.000000C50.000000 -26.000000,50.000000 -24.000000,50.000000 -0.000000L421.000000 -0.000000L449.000000 -174.000000L424.000000 -174.000000C419.000000 -144.000000,412.000000 -100.000000,402.000000 -85.000000C395.000000 -77.000000,329.000000 -77.000000,307.000000 -77.000000"></path>
    </g>
    <g transform="scale(0.009963,0.009963)" id="GLYPHcmr10_51">
      <path style="fill-rule: evenodd;" d="M290.000000 -352.000000C372.000000 -379.000000,430.000000 -449.000000,430.000000 -528.000000C430.000000 -610.000000,342.000000 -666.000000,246.000000 -666.000000C145.000000 -666.000000,69.000000 -606.000000,69.000000 -530.000000C69.000000 -497.000000,91.000000 -478.000000,120.000000 -478.000000C151.000000 -478.000000,171.000000 -500.000000,171.000000 -529.000000C171.000000 -579.000000,124.000000 -579.000000,109.000000 -579.000000C140.000000 -628.000000,206.000000 -641.000000,242.000000 -641.000000C283.000000 -641.000000,338.000000 -619.000000,338.000000 -529.000000C338.000000 -517.000000,336.000000 -459.000000,310.000000 -415.000000C280.000000 -367.000000,246.000000 -364.000000,221.000000 -363.000000C213.000000 -362.000000,189.000000 -360.000000,182.000000 -360.000000C174.000000 -359.000000,167.000000 -358.000000,167.000000 -348.000000C167.000000 -337.000000,174.000000 -337.000000,191.000000 -337.000000L235.000000 -337.000000C317.000000 -337.000000,354.000000 -269.000000,354.000000 -171.000000C354.000000 -35.000000,285.000000 -6.000000,241.000000 -6.000000C198.000000 -6.000000,123.000000 -23.000000,88.000000 -82.000000C123.000000 -77.000000,154.000000 -99.000000,154.000000 -137.000000C154.000000 -173.000000,127.000000 -193.000000,98.000000 -193.000000C74.000000 -193.000000,42.000000 -179.000000,42.000000 -135.000000C42.000000 -44.000000,135.000000 22.000000,244.000000 22.000000C366.000000 22.000000,457.000000 -69.000000,457.000000 -171.000000C457.000000 -253.000000,394.000000 -331.000000,290.000000 -352.000000"></path>
    </g>
    <g transform="scale(0.009963,0.009963)" id="GLYPHcmr10_52">
      <path style="fill-rule: evenodd;" d="M294.000000 -165.000000L294.000000 -78.000000C294.000000 -42.000000,292.000000 -31.000000,218.000000 -31.000000L197.000000 -31.000000L197.000000 -0.000000L332.000000 -0.000000L238.000000 -3.000000L290.000000 -3.000000L332.000000 -3.000000L374.000000 -3.000000L427.000000 -3.000000L468.000000 -0.000000L468.000000 -31.000000L447.000000 -31.000000C373.000000 -31.000000,371.000000 -42.000000,371.000000 -78.000000L371.000000 -165.000000L471.000000 -165.000000L471.000000 -196.000000L371.000000 -196.000000L371.000000 -651.000000C371.000000 -671.000000,371.000000 -677.000000,355.000000 -677.000000C346.000000 -677.000000,343.000000 -677.000000,335.000000 -665.000000L28.000000 -196.000000L28.000000 -165.000000M300.000000 -196.000000L56.000000 -196.000000L300.000000 -569.000000"></path>
    </g>
    <g transform="scale(0.009963,0.009963)" id="GLYPHcmr10_53">
      <path style="fill-rule: evenodd;" d="M449.000000 -201.000000C449.000000 -320.000000,367.000000 -420.000000,259.000000 -420.000000C211.000000 -420.000000,168.000000 -404.000000,132.000000 -369.000000L132.000000 -564.000000C152.000000 -558.000000,185.000000 -551.000000,217.000000 -551.000000C340.000000 -551.000000,410.000000 -642.000000,410.000000 -655.000000C410.000000 -661.000000,407.000000 -666.000000,400.000000 -666.000000C399.000000 -666.000000,397.000000 -666.000000,392.000000 -663.000000C372.000000 -654.000000,323.000000 -634.000000,256.000000 -634.000000C216.000000 -634.000000,170.000000 -641.000000,123.000000 -662.000000C115.000000 -665.000000,113.000000 -665.000000,111.000000 -665.000000C101.000000 -665.000000,101.000000 -657.000000,101.000000 -641.000000L101.000000 -345.000000C101.000000 -327.000000,101.000000 -319.000000,115.000000 -319.000000C122.000000 -319.000000,124.000000 -322.000000,128.000000 -328.000000C139.000000 -344.000000,176.000000 -398.000000,257.000000 -398.000000C309.000000 -398.000000,334.000000 -352.000000,342.000000 -334.000000C358.000000 -297.000000,360.000000 -258.000000,360.000000 -208.000000C360.000000 -173.000000,360.000000 -113.000000,336.000000 -71.000000C312.000000 -32.000000,275.000000 -6.000000,229.000000 -6.000000C156.000000 -6.000000,99.000000 -59.000000,82.000000 -118.000000C85.000000 -117.000000,88.000000 -116.000000,99.000000 -116.000000C132.000000 -116.000000,149.000000 -141.000000,149.000000 -165.000000C149.000000 -189.000000,132.000000 -214.000000,99.000000 -214.000000C85.000000 -214.000000,50.000000 -207.000000,50.000000 -161.000000C50.000000 -75.000000,119.000000 22.000000,231.000000 22.000000C347.000000 22.000000,449.000000 -74.000000,449.000000 -201.000000"></path>
    </g>
    <g transform="scale(0.009963,0.009963)" id="GLYPHcmr10_54">
      <path style="fill-rule: evenodd;" d="M132.000000 -328.000000L132.000000 -352.000000C132.000000 -605.000000,256.000000 -641.000000,307.000000 -641.000000C331.000000 -641.000000,373.000000 -635.000000,395.000000 -601.000000C380.000000 -601.000000,340.000000 -601.000000,340.000000 -556.000000C340.000000 -525.000000,364.000000 -510.000000,386.000000 -510.000000C402.000000 -510.000000,432.000000 -519.000000,432.000000 -558.000000C432.000000 -618.000000,388.000000 -666.000000,305.000000 -666.000000C177.000000 -666.000000,42.000000 -537.000000,42.000000 -316.000000C42.000000 -49.000000,158.000000 22.000000,251.000000 22.000000C362.000000 22.000000,457.000000 -72.000000,457.000000 -204.000000C457.000000 -331.000000,368.000000 -427.000000,257.000000 -427.000000C189.000000 -427.000000,152.000000 -376.000000,132.000000 -328.000000M251.000000 -6.000000C188.000000 -6.000000,158.000000 -66.000000,152.000000 -81.000000C134.000000 -128.000000,134.000000 -208.000000,134.000000 -226.000000C134.000000 -304.000000,166.000000 -404.000000,256.000000 -404.000000C272.000000 -404.000000,318.000000 -404.000000,349.000000 -342.000000C367.000000 -305.000000,367.000000 -254.000000,367.000000 -205.000000C367.000000 -157.000000,367.000000 -107.000000,350.000000 -71.000000C320.000000 -11.000000,274.000000 -6.000000,251.000000 -6.000000"></path>
    </g>
    <g transform="scale(0.009963,0.009963)" id="GLYPHcmr10_56">
      <path style="fill-rule: evenodd;" d="M163.000000 -457.000000C117.000000 -487.000000,113.000000 -521.000000,113.000000 -538.000000C113.000000 -599.000000,178.000000 -641.000000,249.000000 -641.000000C322.000000 -641.000000,386.000000 -589.000000,386.000000 -517.000000C386.000000 -460.000000,347.000000 -412.000000,287.000000 -377.000000M309.000000 -362.000000C381.000000 -399.000000,430.000000 -451.000000,430.000000 -517.000000C430.000000 -609.000000,341.000000 -666.000000,250.000000 -666.000000C150.000000 -666.000000,69.000000 -592.000000,69.000000 -499.000000C69.000000 -481.000000,71.000000 -436.000000,113.000000 -389.000000C124.000000 -377.000000,161.000000 -352.000000,186.000000 -335.000000C128.000000 -306.000000,42.000000 -250.000000,42.000000 -151.000000C42.000000 -45.000000,144.000000 22.000000,249.000000 22.000000C362.000000 22.000000,457.000000 -61.000000,457.000000 -168.000000C457.000000 -204.000000,446.000000 -249.000000,408.000000 -291.000000C389.000000 -312.000000,373.000000 -322.000000,309.000000 -362.000000M209.000000 -320.000000L332.000000 -242.000000C360.000000 -223.000000,407.000000 -193.000000,407.000000 -132.000000C407.000000 -58.000000,332.000000 -6.000000,250.000000 -6.000000C164.000000 -6.000000,92.000000 -68.000000,92.000000 -151.000000C92.000000 -209.000000,124.000000 -273.000000,209.000000 -320.000000"></path>
    </g>
    <g transform="scale(0.009963,0.009963)" id="GLYPHcmr10_57">
      <path style="fill-rule: evenodd;" d="M367.000000 -318.000000L367.000000 -286.000000C367.000000 -52.000000,263.000000 -6.000000,205.000000 -6.000000C188.000000 -6.000000,134.000000 -8.000000,107.000000 -42.000000C151.000000 -42.000000,159.000000 -71.000000,159.000000 -88.000000C159.000000 -119.000000,135.000000 -134.000000,113.000000 -134.000000C97.000000 -134.000000,67.000000 -125.000000,67.000000 -86.000000C67.000000 -19.000000,121.000000 22.000000,206.000000 22.000000C335.000000 22.000000,457.000000 -114.000000,457.000000 -329.000000C457.000000 -598.000000,342.000000 -666.000000,253.000000 -666.000000C198.000000 -666.000000,149.000000 -648.000000,106.000000 -603.000000C65.000000 -558.000000,42.000000 -516.000000,42.000000 -441.000000C42.000000 -316.000000,130.000000 -218.000000,242.000000 -218.000000C303.000000 -218.000000,344.000000 -260.000000,367.000000 -318.000000M243.000000 -241.000000C227.000000 -241.000000,181.000000 -241.000000,150.000000 -304.000000C132.000000 -341.000000,132.000000 -391.000000,132.000000 -440.000000C132.000000 -494.000000,132.000000 -541.000000,153.000000 -578.000000C180.000000 -628.000000,218.000000 -641.000000,253.000000 -641.000000C299.000000 -641.000000,332.000000 -607.000000,349.000000 -562.000000C361.000000 -530.000000,365.000000 -467.000000,365.000000 -421.000000C365.000000 -338.000000,331.000000 -241.000000,243.000000 -241.000000"></path>
    </g>
    <g transform="scale(0.009963,0.009963)" id="GLYPHcmr10_66">
      <path style="fill-rule: evenodd;" d="M222.000000 -366.000000L222.000000 -612.000000C222.000000 -645.000000,224.000000 -652.000000,271.000000 -652.000000L395.000000 -652.000000C492.000000 -652.000000,527.000000 -567.000000,527.000000 -514.000000C527.000000 -450.000000,478.000000 -366.000000,367.000000 -366.000000M458.000000 -357.000000C555.000000 -376.000000,624.000000 -440.000000,624.000000 -514.000000C624.000000 -601.000000,532.000000 -683.000000,402.000000 -683.000000L36.000000 -683.000000L36.000000 -652.000000L60.000000 -652.000000C137.000000 -652.000000,139.000000 -641.000000,139.000000 -605.000000L139.000000 -78.000000C139.000000 -42.000000,137.000000 -31.000000,60.000000 -31.000000L36.000000 -31.000000L36.000000 -0.000000L428.000000 -0.000000C561.000000 -0.000000,651.000000 -89.000000,651.000000 -183.000000C651.000000 -270.000000,569.000000 -345.000000,458.000000 -357.000000M396.000000 -31.000000L271.000000 -31.000000C224.000000 -31.000000,222.000000 -38.000000,222.000000 -71.000000L222.000000 -344.000000L410.000000 -344.000000C509.000000 -344.000000,551.000000 -251.000000,551.000000 -184.000000C551.000000 -113.000000,499.000000 -31.000000,396.000000 -31.000000"></path>
    </g>
    <g transform="scale(0.009963,0.009963)" id="GLYPHcmr10_67">
      <path style="fill-rule: evenodd;" d="M56.000000 -342.000000C56.000000 -135.000000,218.000000 22.000000,404.000000 22.000000C567.000000 22.000000,665.000000 -117.000000,665.000000 -233.000000C665.000000 -243.000000,665.000000 -250.000000,652.000000 -250.000000C641.000000 -250.000000,641.000000 -244.000000,640.000000 -234.000000C632.000000 -91.000000,525.000000 -9.000000,416.000000 -9.000000C355.000000 -9.000000,159.000000 -43.000000,159.000000 -341.000000C159.000000 -640.000000,354.000000 -674.000000,415.000000 -674.000000C524.000000 -674.000000,613.000000 -583.000000,633.000000 -437.000000C635.000000 -423.000000,635.000000 -420.000000,649.000000 -420.000000C665.000000 -420.000000,665.000000 -423.000000,665.000000 -444.000000L665.000000 -681.000000C665.000000 -698.000000,665.000000 -705.000000,654.000000 -705.000000C650.000000 -705.000000,646.000000 -705.000000,638.000000 -693.000000L588.000000 -619.000000C551.000000 -655.000000,500.000000 -705.000000,404.000000 -705.000000C217.000000 -705.000000,56.000000 -546.000000,56.000000 -342.000000"></path>
    </g>
    <g transform="scale(0.009963,0.009963)" id="GLYPHcmr10_68">
      <path style="fill-rule: evenodd;" d="M35.000000 -683.000000L35.000000 -652.000000L59.000000 -652.000000C136.000000 -652.000000,138.000000 -641.000000,138.000000 -605.000000L138.000000 -78.000000C138.000000 -42.000000,136.000000 -31.000000,59.000000 -31.000000L35.000000 -31.000000L35.000000 -0.000000L401.000000 -0.000000C569.000000 -0.000000,707.000000 -148.000000,707.000000 -336.000000C707.000000 -526.000000,572.000000 -683.000000,401.000000 -683.000000M273.000000 -31.000000C226.000000 -31.000000,224.000000 -38.000000,224.000000 -71.000000L224.000000 -612.000000C224.000000 -645.000000,226.000000 -652.000000,273.000000 -652.000000L373.000000 -652.000000C435.000000 -652.000000,504.000000 -630.000000,555.000000 -559.000000C598.000000 -500.000000,607.000000 -414.000000,607.000000 -336.000000C607.000000 -225.000000,588.000000 -165.000000,552.000000 -116.000000C532.000000 -89.000000,475.000000 -31.000000,374.000000 -31.000000"></path>
    </g>
    <g transform="scale(0.009963,0.009963)" id="GLYPHcmr10_69">
      <path style="fill-rule: evenodd;" d="M136.000000 -78.000000C136.000000 -42.000000,134.000000 -31.000000,57.000000 -31.000000L33.000000 -31.000000L33.000000 -0.000000L610.000000 -0.000000L652.000000 -258.000000L627.000000 -258.000000C602.000000 -104.000000,579.000000 -31.000000,407.000000 -31.000000L274.000000 -31.000000C227.000000 -31.000000,225.000000 -38.000000,225.000000 -71.000000L225.000000 -338.000000L315.000000 -338.000000C412.000000 -338.000000,423.000000 -306.000000,423.000000 -221.000000L448.000000 -221.000000L448.000000 -486.000000L423.000000 -486.000000C423.000000 -400.000000,412.000000 -369.000000,315.000000 -369.000000L225.000000 -369.000000L225.000000 -609.000000C225.000000 -642.000000,227.000000 -649.000000,274.000000 -649.000000L403.000000 -649.000000C556.000000 -649.000000,583.000000 -594.000000,599.000000 -455.000000L624.000000 -455.000000L596.000000 -680.000000L33.000000 -680.000000L33.000000 -649.000000L57.000000 -649.000000C134.000000 -649.000000,136.000000 -638.000000,136.000000 -602.000000"></path>
    </g>
    <g transform="scale(0.009963,0.009963)" id="GLYPHcmr10_70">
      <path style="fill-rule: evenodd;" d="M582.000000 -680.000000L33.000000 -680.000000L33.000000 -649.000000L57.000000 -649.000000C134.000000 -649.000000,136.000000 -638.000000,136.000000 -602.000000L136.000000 -78.000000C136.000000 -42.000000,134.000000 -31.000000,57.000000 -31.000000L33.000000 -31.000000L33.000000 -0.000000L185.000000 -0.000000L68.000000 -3.000000L146.000000 -3.000000L185.000000 -3.000000L226.000000 -3.000000L317.000000 -3.000000L353.000000 -0.000000L353.000000 -31.000000L320.000000 -31.000000C225.000000 -31.000000,225.000000 -44.000000,225.000000 -79.000000L225.000000 -325.000000L311.000000 -325.000000C407.000000 -325.000000,417.000000 -293.000000,417.000000 -208.000000L442.000000 -208.000000L442.000000 -473.000000L417.000000 -473.000000C417.000000 -389.000000,407.000000 -356.000000,311.000000 -356.000000L225.000000 -356.000000L225.000000 -609.000000C225.000000 -642.000000,227.000000 -649.000000,274.000000 -649.000000L394.000000 -649.000000C544.000000 -649.000000,569.000000 -593.000000,585.000000 -455.000000L610.000000 -455.000000"></path>
    </g>
    <g transform="scale(0.009963,0.009963)" id="GLYPHcmr10_71">
      <path style="fill-rule: evenodd;" d="M593.000000 -63.000000C606.000000 -41.000000,646.000000 -1.000000,657.000000 -1.000000C666.000000 -1.000000,666.000000 -9.000000,666.000000 -24.000000L666.000000 -198.000000C666.000000 -237.000000,670.000000 -242.000000,735.000000 -242.000000L735.000000 -273.000000L613.000000 -273.000000L698.000000 -272.000000L643.000000 -270.000000L613.000000 -270.000000L573.000000 -270.000000L488.000000 -270.000000L452.000000 -273.000000L452.000000 -242.000000L484.000000 -242.000000C574.000000 -242.000000,577.000000 -231.000000,577.000000 -194.000000L577.000000 -130.000000C577.000000 -18.000000,450.000000 -9.000000,422.000000 -9.000000C357.000000 -9.000000,159.000000 -44.000000,159.000000 -342.000000C159.000000 -641.000000,356.000000 -674.000000,416.000000 -674.000000C523.000000 -674.000000,614.000000 -584.000000,634.000000 -437.000000C636.000000 -423.000000,636.000000 -420.000000,650.000000 -420.000000C666.000000 -420.000000,666.000000 -423.000000,666.000000 -444.000000L666.000000 -681.000000C666.000000 -698.000000,666.000000 -705.000000,655.000000 -705.000000C651.000000 -705.000000,647.000000 -705.000000,639.000000 -693.000000L589.000000 -619.000000C557.000000 -651.000000,503.000000 -705.000000,404.000000 -705.000000C218.000000 -705.000000,56.000000 -547.000000,56.000000 -342.000000C56.000000 -137.000000,216.000000 22.000000,406.000000 22.000000C479.000000 22.000000,559.000000 -4.000000,593.000000 -63.000000"></path>
    </g>
    <g transform="scale(0.009963,0.009963)" id="GLYPHcmr10_73">
      <path style="fill-rule: evenodd;" d="M225.000000 -605.000000C225.000000 -641.000000,228.000000 -652.000000,307.000000 -652.000000L333.000000 -652.000000L333.000000 -683.000000L181.000000 -683.000000L298.000000 -680.000000L219.000000 -680.000000L181.000000 -680.000000L142.000000 -680.000000L63.000000 -680.000000L28.000000 -683.000000L28.000000 -652.000000L54.000000 -652.000000C133.000000 -652.000000,136.000000 -641.000000,136.000000 -605.000000L136.000000 -78.000000C136.000000 -42.000000,133.000000 -31.000000,54.000000 -31.000000L28.000000 -31.000000L28.000000 -0.000000L180.000000 -0.000000L63.000000 -3.000000L142.000000 -3.000000L180.000000 -3.000000L219.000000 -3.000000L298.000000 -3.000000L333.000000 -0.000000L333.000000 -31.000000L307.000000 -31.000000C228.000000 -31.000000,225.000000 -42.000000,225.000000 -78.000000"></path>
    </g>
    <g transform="scale(0.009963,0.009963)" id="GLYPHcmr10_76">
      <path style="fill-rule: evenodd;" d="M582.000000 -258.000000L557.000000 -258.000000C546.000000 -156.000000,532.000000 -31.000000,356.000000 -31.000000L274.000000 -31.000000C227.000000 -31.000000,225.000000 -38.000000,225.000000 -71.000000L225.000000 -604.000000C225.000000 -638.000000,225.000000 -652.000000,320.000000 -652.000000L353.000000 -652.000000L353.000000 -683.000000L185.000000 -683.000000L317.000000 -680.000000L226.000000 -680.000000L185.000000 -680.000000L146.000000 -680.000000L68.000000 -680.000000L33.000000 -683.000000L33.000000 -652.000000L57.000000 -652.000000C134.000000 -652.000000,136.000000 -641.000000,136.000000 -605.000000L136.000000 -78.000000C136.000000 -42.000000,134.000000 -31.000000,57.000000 -31.000000L33.000000 -31.000000L33.000000 -0.000000L554.000000 -0.000000"></path>
    </g>
    <g transform="scale(0.009963,0.009963)" id="GLYPHcmr10_80">
      <path style="fill-rule: evenodd;" d="M227.000000 -316.000000L396.000000 -316.000000C516.000000 -316.000000,624.000000 -397.000000,624.000000 -497.000000C624.000000 -595.000000,525.000000 -683.000000,388.000000 -683.000000L35.000000 -683.000000L35.000000 -652.000000L59.000000 -652.000000C136.000000 -652.000000,138.000000 -641.000000,138.000000 -605.000000L138.000000 -78.000000C138.000000 -42.000000,136.000000 -31.000000,59.000000 -31.000000L35.000000 -31.000000L35.000000 -0.000000L182.000000 -0.000000L70.000000 -3.000000L144.000000 -3.000000L182.000000 -3.000000L220.000000 -3.000000L295.000000 -3.000000L330.000000 -0.000000L330.000000 -31.000000L306.000000 -31.000000C229.000000 -31.000000,227.000000 -42.000000,227.000000 -78.000000M224.000000 -342.000000L224.000000 -612.000000C224.000000 -645.000000,226.000000 -652.000000,273.000000 -652.000000L362.000000 -652.000000C521.000000 -652.000000,521.000000 -546.000000,521.000000 -497.000000C521.000000 -450.000000,521.000000 -342.000000,362.000000 -342.000000"></path>
    </g>
    <g transform="scale(0.009963,0.009963)" id="GLYPHcmr10_81">
      <path style="fill-rule: evenodd;" d="M322.000000 -16.000000C268.000000 -36.000000,156.000000 -109.000000,156.000000 -339.000000C156.000000 -599.000000,296.000000 -680.000000,388.000000 -680.000000C485.000000 -680.000000,621.000000 -594.000000,621.000000 -339.000000C621.000000 -261.000000,609.000000 -120.000000,503.000000 -42.000000C481.000000 -98.000000,449.000000 -148.000000,390.000000 -148.000000C339.000000 -148.000000,308.000000 -105.000000,308.000000 -64.000000C308.000000 -37.000000,321.000000 -18.000000,322.000000 -16.000000M477.000000 -26.000000C443.000000 -7.000000,411.000000 -3.000000,389.000000 -3.000000C338.000000 -3.000000,330.000000 -49.000000,330.000000 -64.000000C330.000000 -93.000000,351.000000 -126.000000,390.000000 -126.000000C444.000000 -126.000000,466.000000 -84.000000,477.000000 -26.000000M518.000000 -7.000000C636.000000 -60.000000,721.000000 -188.000000,721.000000 -339.000000C721.000000 -543.000000,570.000000 -705.000000,388.000000 -705.000000C209.000000 -705.000000,56.000000 -545.000000,56.000000 -339.000000C56.000000 -137.000000,207.000000 22.000000,389.000000 22.000000C420.000000 22.000000,455.000000 16.000000,484.000000 7.000000C499.000000 102.000000,513.000000 194.000000,606.000000 194.000000C708.000000 194.000000,727.000000 61.000000,727.000000 10.000000C727.000000 -0.000000,727.000000 -11.000000,716.000000 -11.000000C707.000000 -11.000000,706.000000 -3.000000,705.000000 7.000000C699.000000 61.000000,657.000000 91.000000,614.000000 91.000000C567.000000 91.000000,542.000000 57.000000,518.000000 -7.000000"></path>
    </g>
    <g transform="scale(0.009963,0.009963)" id="GLYPHcmr10_82">
      <path style="fill-rule: evenodd;" d="M224.000000 -353.000000L224.000000 -612.000000C224.000000 -635.000000,224.000000 -647.000000,246.000000 -650.000000C256.000000 -652.000000,285.000000 -652.000000,305.000000 -652.000000C395.000000 -652.000000,507.000000 -648.000000,507.000000 -503.000000C507.000000 -434.000000,483.000000 -353.000000,335.000000 -353.000000M435.000000 -340.000000C532.000000 -364.000000,610.000000 -425.000000,610.000000 -503.000000C610.000000 -599.000000,496.000000 -683.000000,349.000000 -683.000000L35.000000 -683.000000L35.000000 -652.000000L59.000000 -652.000000C136.000000 -652.000000,138.000000 -641.000000,138.000000 -605.000000L138.000000 -78.000000C138.000000 -42.000000,136.000000 -31.000000,59.000000 -31.000000L35.000000 -31.000000L35.000000 -0.000000L181.000000 -0.000000L71.000000 -3.000000L142.000000 -3.000000L181.000000 -3.000000L220.000000 -3.000000L291.000000 -3.000000L327.000000 -0.000000L327.000000 -31.000000L303.000000 -31.000000C226.000000 -31.000000,224.000000 -42.000000,224.000000 -78.000000L224.000000 -331.000000L339.000000 -331.000000C355.000000 -331.000000,397.000000 -331.000000,432.000000 -297.000000C470.000000 -261.000000,470.000000 -230.000000,470.000000 -163.000000C470.000000 -98.000000,470.000000 -58.000000,511.000000 -20.000000C552.000000 16.000000,607.000000 22.000000,637.000000 22.000000C715.000000 22.000000,732.000000 -60.000000,732.000000 -88.000000C732.000000 -94.000000,732.000000 -105.000000,719.000000 -105.000000C708.000000 -105.000000,708.000000 -96.000000,707.000000 -89.000000C701.000000 -18.000000,666.000000 -0.000000,641.000000 -0.000000C592.000000 -0.000000,584.000000 -51.000000,570.000000 -144.000000L557.000000 -224.000000C539.000000 -288.000000,490.000000 -321.000000,435.000000 -340.000000"></path>
    </g>
    <g transform="scale(0.009963,0.009963)" id="GLYPHcmr10_83">
      <path style="fill-rule: evenodd;" d="M349.000000 -388.000000L221.000000 -419.000000C159.000000 -434.000000,120.000000 -488.000000,120.000000 -546.000000C120.000000 -616.000000,174.000000 -677.000000,252.000000 -677.000000C419.000000 -677.000000,441.000000 -513.000000,447.000000 -468.000000C448.000000 -462.000000,448.000000 -456.000000,459.000000 -456.000000C472.000000 -456.000000,472.000000 -461.000000,472.000000 -480.000000L472.000000 -681.000000C472.000000 -698.000000,472.000000 -705.000000,461.000000 -705.000000C454.000000 -705.000000,453.000000 -704.000000,446.000000 -692.000000L411.000000 -635.000000C381.000000 -664.000000,340.000000 -705.000000,251.000000 -705.000000C140.000000 -705.000000,56.000000 -617.000000,56.000000 -511.000000C56.000000 -428.000000,109.000000 -355.000000,187.000000 -328.000000C198.000000 -324.000000,249.000000 -312.000000,319.000000 -295.000000C346.000000 -288.000000,376.000000 -281.000000,404.000000 -244.000000C425.000000 -218.000000,435.000000 -185.000000,435.000000 -152.000000C435.000000 -81.000000,385.000000 -9.000000,301.000000 -9.000000C272.000000 -9.000000,196.000000 -14.000000,143.000000 -63.000000C85.000000 -117.000000,82.000000 -181.000000,81.000000 -217.000000C80.000000 -227.000000,72.000000 -227.000000,69.000000 -227.000000C56.000000 -227.000000,56.000000 -220.000000,56.000000 -202.000000L56.000000 -2.000000C56.000000 15.000000,56.000000 22.000000,67.000000 22.000000C74.000000 22.000000,75.000000 20.000000,82.000000 9.000000C82.000000 8.000000,85.000000 5.000000,118.000000 -48.000000C149.000000 -14.000000,213.000000 22.000000,302.000000 22.000000C419.000000 22.000000,499.000000 -76.000000,499.000000 -186.000000C499.000000 -286.000000,433.000000 -368.000000,349.000000 -388.000000"></path>
    </g>
    <g transform="scale(0.009963,0.009963)" id="GLYPHcmr10_97">
      <path style="fill-rule: evenodd;" d="M333.000000 -76.000000C337.000000 -36.000000,364.000000 6.000000,411.000000 6.000000C432.000000 6.000000,493.000000 -8.000000,493.000000 -89.000000L493.000000 -145.000000L468.000000 -145.000000L468.000000 -89.000000C468.000000 -31.000000,443.000000 -25.000000,432.000000 -25.000000C399.000000 -25.000000,395.000000 -70.000000,395.000000 -75.000000L395.000000 -275.000000C395.000000 -317.000000,395.000000 -356.000000,359.000000 -393.000000C320.000000 -432.000000,270.000000 -448.000000,222.000000 -448.000000C140.000000 -448.000000,71.000000 -401.000000,71.000000 -335.000000C71.000000 -305.000000,91.000000 -288.000000,117.000000 -288.000000C145.000000 -288.000000,163.000000 -308.000000,163.000000 -334.000000C163.000000 -346.000000,158.000000 -379.000000,112.000000 -380.000000C139.000000 -415.000000,188.000000 -426.000000,220.000000 -426.000000C269.000000 -426.000000,326.000000 -387.000000,326.000000 -298.000000L326.000000 -261.000000C275.000000 -258.000000,205.000000 -255.000000,142.000000 -225.000000C67.000000 -191.000000,42.000000 -139.000000,42.000000 -95.000000C42.000000 -14.000000,139.000000 11.000000,202.000000 11.000000C268.000000 11.000000,314.000000 -29.000000,333.000000 -76.000000M326.000000 -240.000000L326.000000 -140.000000C326.000000 -45.000000,254.000000 -11.000000,209.000000 -11.000000C160.000000 -11.000000,119.000000 -46.000000,119.000000 -96.000000C119.000000 -151.000000,161.000000 -234.000000,326.000000 -240.000000"></path>
    </g>
    <g transform="scale(0.009963,0.009963)" id="GLYPHcmr10_98">
      <path style="fill-rule: evenodd;" d="M172.000000 -377.000000L172.000000 -694.000000L28.000000 -683.000000L28.000000 -652.000000C98.000000 -652.000000,106.000000 -645.000000,106.000000 -596.000000L106.000000 -0.000000L131.000000 -0.000000C132.000000 -1.000000,140.000000 -15.000000,167.000000 -62.000000C182.000000 -39.000000,224.000000 11.000000,298.000000 11.000000C417.000000 11.000000,521.000000 -87.000000,521.000000 -216.000000C521.000000 -343.000000,423.000000 -442.000000,309.000000 -442.000000C231.000000 -442.000000,188.000000 -395.000000,172.000000 -377.000000M175.000000 -114.000000L175.000000 -320.000000C175.000000 -339.000000,175.000000 -340.000000,186.000000 -356.000000C225.000000 -412.000000,280.000000 -420.000000,304.000000 -420.000000C349.000000 -420.000000,385.000000 -394.000000,409.000000 -356.000000C435.000000 -315.000000,438.000000 -258.000000,438.000000 -217.000000C438.000000 -180.000000,436.000000 -120.000000,407.000000 -75.000000C386.000000 -44.000000,348.000000 -11.000000,294.000000 -11.000000C249.000000 -11.000000,213.000000 -35.000000,189.000000 -72.000000C175.000000 -93.000000,175.000000 -96.000000,175.000000 -114.000000"></path>
    </g>
    <g transform="scale(0.009963,0.009963)" id="GLYPHcmr10_99">
      <path style="fill-rule: evenodd;" d="M117.000000 -218.000000C117.000000 -381.000000,199.000000 -423.000000,252.000000 -423.000000C261.000000 -423.000000,324.000000 -422.000000,359.000000 -386.000000C318.000000 -383.000000,312.000000 -353.000000,312.000000 -340.000000C312.000000 -314.000000,330.000000 -294.000000,358.000000 -294.000000C384.000000 -294.000000,404.000000 -311.000000,404.000000 -341.000000C404.000000 -409.000000,328.000000 -448.000000,251.000000 -448.000000C126.000000 -448.000000,34.000000 -340.000000,34.000000 -216.000000C34.000000 -88.000000,133.000000 11.000000,249.000000 11.000000C383.000000 11.000000,415.000000 -109.000000,415.000000 -119.000000C415.000000 -129.000000,405.000000 -129.000000,402.000000 -129.000000C393.000000 -129.000000,391.000000 -125.000000,389.000000 -119.000000C360.000000 -26.000000,295.000000 -14.000000,258.000000 -14.000000C205.000000 -14.000000,117.000000 -57.000000,117.000000 -218.000000"></path>
    </g>
    <g transform="scale(0.009963,0.009963)" id="GLYPHcmr10_100">
      <path style="fill-rule: evenodd;" d="M380.000000 -55.000000L380.000000 11.000000L527.000000 -0.000000L527.000000 -31.000000C457.000000 -31.000000,449.000000 -38.000000,449.000000 -87.000000L449.000000 -694.000000L305.000000 -683.000000L305.000000 -652.000000C375.000000 -652.000000,383.000000 -645.000000,383.000000 -596.000000L383.000000 -380.000000C354.000000 -416.000000,311.000000 -442.000000,257.000000 -442.000000C139.000000 -442.000000,34.000000 -344.000000,34.000000 -215.000000C34.000000 -88.000000,132.000000 11.000000,246.000000 11.000000C310.000000 11.000000,355.000000 -23.000000,380.000000 -55.000000M380.000000 -323.000000L380.000000 -118.000000C380.000000 -100.000000,380.000000 -98.000000,369.000000 -81.000000C339.000000 -33.000000,294.000000 -11.000000,251.000000 -11.000000C206.000000 -11.000000,170.000000 -37.000000,146.000000 -75.000000C120.000000 -116.000000,117.000000 -173.000000,117.000000 -214.000000C117.000000 -251.000000,119.000000 -311.000000,148.000000 -356.000000C169.000000 -387.000000,207.000000 -420.000000,261.000000 -420.000000C296.000000 -420.000000,338.000000 -405.000000,369.000000 -360.000000C380.000000 -343.000000,380.000000 -341.000000,380.000000 -323.000000"></path>
    </g>
    <g transform="scale(0.009963,0.009963)" id="GLYPHcmr10_101">
      <path style="fill-rule: evenodd;" d="M112.000000 -252.000000C118.000000 -401.000000,202.000000 -426.000000,236.000000 -426.000000C339.000000 -426.000000,349.000000 -291.000000,349.000000 -252.000000M111.000000 -231.000000L390.000000 -231.000000C412.000000 -231.000000,415.000000 -231.000000,415.000000 -252.000000C415.000000 -351.000000,361.000000 -448.000000,236.000000 -448.000000C120.000000 -448.000000,28.000000 -345.000000,28.000000 -220.000000C28.000000 -86.000000,133.000000 11.000000,248.000000 11.000000C370.000000 11.000000,415.000000 -100.000000,415.000000 -119.000000C415.000000 -129.000000,407.000000 -131.000000,402.000000 -131.000000C393.000000 -131.000000,391.000000 -125.000000,389.000000 -117.000000C354.000000 -14.000000,264.000000 -14.000000,254.000000 -14.000000C204.000000 -14.000000,164.000000 -44.000000,141.000000 -81.000000C111.000000 -129.000000,111.000000 -195.000000,111.000000 -231.000000"></path>
    </g>
    <g transform="scale(0.009963,0.009963)" id="GLYPHcmr10_102">
      <path style="fill-rule: evenodd;" d="M175.000000 -431.000000L175.000000 -547.000000C175.000000 -635.000000,223.000000 -683.000000,267.000000 -683.000000C270.000000 -683.000000,285.000000 -683.000000,300.000000 -676.000000C288.000000 -672.000000,270.000000 -659.000000,270.000000 -634.000000C270.000000 -611.000000,286.000000 -591.000000,313.000000 -591.000000C342.000000 -591.000000,357.000000 -611.000000,357.000000 -635.000000C357.000000 -672.000000,320.000000 -705.000000,267.000000 -705.000000C197.000000 -705.000000,112.000000 -652.000000,112.000000 -546.000000L112.000000 -431.000000L33.000000 -431.000000L33.000000 -400.000000L112.000000 -400.000000L112.000000 -76.000000C112.000000 -31.000000,101.000000 -31.000000,34.000000 -31.000000L34.000000 -0.000000L148.000000 -0.000000L73.000000 -1.000000L120.000000 -3.000000L148.000000 -3.000000L188.000000 -3.000000L235.000000 -3.000000L275.000000 -0.000000L275.000000 -31.000000L254.000000 -31.000000C180.000000 -31.000000,178.000000 -42.000000,178.000000 -78.000000L178.000000 -400.000000L292.000000 -400.000000L292.000000 -431.000000"></path>
    </g>
    <g transform="scale(0.009963,0.009963)" id="GLYPHcmr10_104">
      <path style="fill-rule: evenodd;" d="M110.000000 -76.000000C110.000000 -31.000000,99.000000 -31.000000,32.000000 -31.000000L32.000000 -0.000000L145.000000 -0.000000L67.000000 -1.000000L118.000000 -3.000000L145.000000 -3.000000L171.000000 -3.000000L223.000000 -1.000000L257.000000 -0.000000L257.000000 -31.000000C190.000000 -31.000000,179.000000 -31.000000,179.000000 -76.000000L179.000000 -260.000000C179.000000 -364.000000,250.000000 -420.000000,314.000000 -420.000000C377.000000 -420.000000,388.000000 -366.000000,388.000000 -309.000000L388.000000 -76.000000C388.000000 -31.000000,377.000000 -31.000000,310.000000 -31.000000L310.000000 -0.000000L423.000000 -0.000000L345.000000 -1.000000L396.000000 -3.000000L423.000000 -3.000000L449.000000 -3.000000L501.000000 -1.000000L535.000000 -0.000000L535.000000 -31.000000C483.000000 -31.000000,458.000000 -31.000000,457.000000 -61.000000L457.000000 -252.000000C457.000000 -338.000000,457.000000 -369.000000,426.000000 -405.000000C412.000000 -422.000000,379.000000 -442.000000,321.000000 -442.000000C237.000000 -442.000000,193.000000 -382.000000,176.000000 -344.000000L176.000000 -694.000000L32.000000 -683.000000L32.000000 -652.000000C102.000000 -652.000000,110.000000 -645.000000,110.000000 -596.000000"></path>
    </g>
    <g transform="scale(0.009963,0.009963)" id="GLYPHcmr10_105">
      <path style="fill-rule: evenodd;" d="M177.000000 -442.000000L37.000000 -431.000000L37.000000 -400.000000C102.000000 -400.000000,111.000000 -394.000000,111.000000 -345.000000L111.000000 -76.000000C111.000000 -31.000000,100.000000 -31.000000,33.000000 -31.000000L33.000000 -0.000000L143.000000 -0.000000L65.000000 -1.000000L119.000000 -3.000000L143.000000 -3.000000L178.000000 -3.000000L213.000000 -1.000000L247.000000 -0.000000L247.000000 -31.000000C181.000000 -31.000000,177.000000 -36.000000,177.000000 -75.000000M181.000000 -616.000000C181.000000 -648.000000,156.000000 -669.000000,128.000000 -669.000000C97.000000 -669.000000,75.000000 -642.000000,75.000000 -616.000000C75.000000 -589.000000,97.000000 -563.000000,128.000000 -563.000000C156.000000 -563.000000,181.000000 -584.000000,181.000000 -616.000000"></path>
    </g>
    <g transform="scale(0.009963,0.009963)" id="GLYPHcmr10_107">
      <path style="fill-rule: evenodd;" d="M106.000000 -76.000000C106.000000 -31.000000,95.000000 -31.000000,28.000000 -31.000000L28.000000 -0.000000L137.000000 -0.000000L61.000000 -1.000000L108.000000 -3.000000L137.000000 -3.000000L167.000000 -3.000000L207.000000 -2.000000L247.000000 -0.000000L247.000000 -31.000000C180.000000 -31.000000,169.000000 -31.000000,169.000000 -76.000000L169.000000 -179.000000L233.000000 -234.000000C310.000000 -128.000000,352.000000 -72.000000,352.000000 -54.000000C352.000000 -35.000000,335.000000 -31.000000,316.000000 -31.000000L316.000000 -0.000000L424.000000 -0.000000L344.000000 -1.000000L403.000000 -3.000000L424.000000 -3.000000L453.000000 -3.000000L482.000000 -2.000000L511.000000 -0.000000L511.000000 -31.000000C474.000000 -31.000000,452.000000 -31.000000,414.000000 -84.000000L287.000000 -263.000000C286.000000 -265.000000,281.000000 -271.000000,281.000000 -274.000000C281.000000 -278.000000,352.000000 -338.000000,362.000000 -346.000000C425.000000 -397.000000,467.000000 -399.000000,488.000000 -400.000000L488.000000 -431.000000L418.000000 -431.000000L459.000000 -428.000000L446.000000 -428.000000L418.000000 -428.000000L382.000000 -428.000000L320.000000 -430.000000L306.000000 -431.000000L306.000000 -400.000000C325.000000 -399.000000,335.000000 -388.000000,335.000000 -375.000000C335.000000 -355.000000,321.000000 -343.000000,313.000000 -336.000000L172.000000 -214.000000L172.000000 -694.000000L28.000000 -683.000000L28.000000 -652.000000C98.000000 -652.000000,106.000000 -645.000000,106.000000 -596.000000"></path>
    </g>
    <g transform="scale(0.009963,0.009963)" id="GLYPHcmr10_108">
      <path style="fill-rule: evenodd;" d="M177.000000 -694.000000L33.000000 -683.000000L33.000000 -652.000000C103.000000 -652.000000,111.000000 -645.000000,111.000000 -596.000000L111.000000 -76.000000C111.000000 -31.000000,100.000000 -31.000000,33.000000 -31.000000L33.000000 -0.000000L144.000000 -0.000000L66.000000 -1.000000L119.000000 -3.000000L144.000000 -3.000000L169.000000 -3.000000L218.000000 -1.000000L255.000000 -0.000000L255.000000 -31.000000C188.000000 -31.000000,177.000000 -31.000000,177.000000 -76.000000"></path>
    </g>
    <g transform="scale(0.009963,0.009963)" id="GLYPHcmr10_110">
      <path style="fill-rule: evenodd;" d="M110.000000 -344.000000L110.000000 -76.000000C110.000000 -31.000000,99.000000 -31.000000,32.000000 -31.000000L32.000000 -0.000000L145.000000 -0.000000L67.000000 -1.000000L118.000000 -3.000000L145.000000 -3.000000L171.000000 -3.000000L223.000000 -1.000000L257.000000 -0.000000L257.000000 -31.000000C190.000000 -31.000000,179.000000 -31.000000,179.000000 -76.000000L179.000000 -260.000000C179.000000 -364.000000,250.000000 -420.000000,314.000000 -420.000000C377.000000 -420.000000,388.000000 -366.000000,388.000000 -309.000000L388.000000 -76.000000C388.000000 -31.000000,377.000000 -31.000000,310.000000 -31.000000L310.000000 -0.000000L423.000000 -0.000000L345.000000 -1.000000L396.000000 -3.000000L423.000000 -3.000000L449.000000 -3.000000L501.000000 -1.000000L535.000000 -0.000000L535.000000 -31.000000C483.000000 -31.000000,458.000000 -31.000000,457.000000 -61.000000L457.000000 -252.000000C457.000000 -338.000000,457.000000 -369.000000,426.000000 -405.000000C412.000000 -422.000000,379.000000 -442.000000,321.000000 -442.000000C248.000000 -442.000000,201.000000 -399.000000,173.000000 -337.000000L173.000000 -442.000000L32.000000 -431.000000L32.000000 -400.000000C102.000000 -400.000000,110.000000 -393.000000,110.000000 -344.000000"></path>
    </g>
    <g transform="scale(0.009963,0.009963)" id="GLYPHcmr10_111">
      <path style="fill-rule: evenodd;" d="M471.000000 -214.000000C471.000000 -342.000000,371.000000 -448.000000,250.000000 -448.000000C125.000000 -448.000000,28.000000 -339.000000,28.000000 -214.000000C28.000000 -85.000000,132.000000 11.000000,249.000000 11.000000C370.000000 11.000000,471.000000 -87.000000,471.000000 -214.000000M250.000000 -14.000000C207.000000 -14.000000,163.000000 -35.000000,136.000000 -81.000000C111.000000 -125.000000,111.000000 -186.000000,111.000000 -222.000000C111.000000 -261.000000,111.000000 -315.000000,135.000000 -359.000000C162.000000 -405.000000,209.000000 -426.000000,249.000000 -426.000000C293.000000 -426.000000,336.000000 -404.000000,362.000000 -361.000000C388.000000 -318.000000,388.000000 -260.000000,388.000000 -222.000000C388.000000 -186.000000,388.000000 -132.000000,366.000000 -88.000000C344.000000 -43.000000,300.000000 -14.000000,250.000000 -14.000000"></path>
    </g>
    <g transform="scale(0.009963,0.009963)" id="GLYPHcmr10_114">
      <path style="fill-rule: evenodd;" d="M167.000000 -332.000000L167.000000 -442.000000L28.000000 -431.000000L28.000000 -400.000000C98.000000 -400.000000,106.000000 -393.000000,106.000000 -344.000000L106.000000 -76.000000C106.000000 -31.000000,95.000000 -31.000000,28.000000 -31.000000L28.000000 -0.000000L142.000000 -0.000000L67.000000 -1.000000L114.000000 -3.000000L142.000000 -3.000000L182.000000 -3.000000L229.000000 -3.000000L269.000000 -0.000000L269.000000 -31.000000L248.000000 -31.000000C174.000000 -31.000000,172.000000 -42.000000,172.000000 -78.000000L172.000000 -232.000000C172.000000 -331.000000,214.000000 -420.000000,290.000000 -420.000000C297.000000 -420.000000,299.000000 -420.000000,301.000000 -419.000000C298.000000 -418.000000,278.000000 -406.000000,278.000000 -380.000000C278.000000 -352.000000,299.000000 -337.000000,321.000000 -337.000000C339.000000 -337.000000,364.000000 -349.000000,364.000000 -381.000000C364.000000 -413.000000,333.000000 -442.000000,290.000000 -442.000000C217.000000 -442.000000,181.000000 -375.000000,167.000000 -332.000000"></path>
    </g>
    <g transform="scale(0.009963,0.009963)" id="GLYPHcmr10_115">
      <path style="fill-rule: evenodd;" d="M208.000000 -194.000000C230.000000 -190.000000,312.000000 -174.000000,312.000000 -102.000000C312.000000 -51.000000,277.000000 -11.000000,199.000000 -11.000000C115.000000 -11.000000,79.000000 -68.000000,60.000000 -153.000000C57.000000 -166.000000,56.000000 -170.000000,46.000000 -170.000000C33.000000 -170.000000,33.000000 -163.000000,33.000000 -145.000000L33.000000 -13.000000C33.000000 4.000000,33.000000 11.000000,44.000000 11.000000C49.000000 11.000000,50.000000 10.000000,69.000000 -9.000000C71.000000 -11.000000,71.000000 -13.000000,89.000000 -32.000000C133.000000 10.000000,178.000000 11.000000,199.000000 11.000000C314.000000 11.000000,360.000000 -56.000000,360.000000 -128.000000C360.000000 -181.000000,330.000000 -211.000000,318.000000 -223.000000C285.000000 -255.000000,246.000000 -263.000000,204.000000 -271.000000C148.000000 -282.000000,81.000000 -295.000000,81.000000 -353.000000C81.000000 -388.000000,107.000000 -429.000000,193.000000 -429.000000C303.000000 -429.000000,308.000000 -339.000000,310.000000 -308.000000C311.000000 -299.000000,320.000000 -299.000000,322.000000 -299.000000C335.000000 -299.000000,335.000000 -304.000000,335.000000 -323.000000L335.000000 -424.000000C335.000000 -441.000000,335.000000 -448.000000,324.000000 -448.000000C319.000000 -448.000000,317.000000 -448.000000,304.000000 -436.000000C301.000000 -432.000000,291.000000 -423.000000,287.000000 -420.000000C249.000000 -448.000000,208.000000 -448.000000,193.000000 -448.000000C71.000000 -448.000000,33.000000 -381.000000,33.000000 -325.000000C33.000000 -290.000000,49.000000 -262.000000,76.000000 -240.000000C108.000000 -214.000000,136.000000 -208.000000,208.000000 -194.000000"></path>
    </g>
    <g transform="scale(0.009963,0.009963)" id="GLYPHcmr10_116">
      <path style="fill-rule: evenodd;" d="M173.000000 -400.000000L316.000000 -400.000000L316.000000 -431.000000L173.000000 -431.000000L173.000000 -615.000000L148.000000 -615.000000C147.000000 -533.000000,117.000000 -426.000000,19.000000 -422.000000L19.000000 -400.000000L104.000000 -400.000000L104.000000 -124.000000C104.000000 -1.000000,197.000000 11.000000,233.000000 11.000000C304.000000 11.000000,332.000000 -60.000000,332.000000 -124.000000L332.000000 -181.000000L307.000000 -181.000000L307.000000 -126.000000C307.000000 -52.000000,277.000000 -14.000000,240.000000 -14.000000C173.000000 -14.000000,173.000000 -105.000000,173.000000 -122.000000"></path>
    </g>
    <g transform="scale(0.009963,0.009963)" id="GLYPHcmr10_117">
      <path style="fill-rule: evenodd;" d="M391.000000 -79.000000L391.000000 11.000000L535.000000 -0.000000L535.000000 -31.000000C465.000000 -31.000000,457.000000 -38.000000,457.000000 -87.000000L457.000000 -442.000000L310.000000 -431.000000L310.000000 -400.000000C380.000000 -400.000000,388.000000 -393.000000,388.000000 -344.000000L388.000000 -166.000000C388.000000 -79.000000,340.000000 -11.000000,267.000000 -11.000000C183.000000 -11.000000,179.000000 -58.000000,179.000000 -110.000000L179.000000 -442.000000L32.000000 -431.000000L32.000000 -400.000000C110.000000 -400.000000,110.000000 -397.000000,110.000000 -308.000000L110.000000 -158.000000C110.000000 -80.000000,110.000000 11.000000,262.000000 11.000000C318.000000 11.000000,362.000000 -17.000000,391.000000 -79.000000"></path>
    </g>
    <g transform="scale(0.009963,0.009963)" id="GLYPHcmr10_119">
      <path style="fill-rule: evenodd;" d="M619.000000 -336.000000C637.000000 -386.000000,668.000000 -399.000000,703.000000 -400.000000L703.000000 -431.000000L630.000000 -431.000000L681.000000 -429.000000L652.000000 -428.000000L630.000000 -428.000000L601.000000 -428.000000L556.000000 -430.000000L537.000000 -431.000000L537.000000 -400.000000C573.000000 -399.000000,595.000000 -381.000000,595.000000 -352.000000C595.000000 -346.000000,595.000000 -344.000000,590.000000 -331.000000L499.000000 -75.000000L400.000000 -354.000000C396.000000 -366.000000,395.000000 -368.000000,395.000000 -373.000000C395.000000 -400.000000,434.000000 -400.000000,454.000000 -400.000000L454.000000 -431.000000L350.000000 -431.000000L425.000000 -430.000000L374.000000 -428.000000L350.000000 -428.000000L320.000000 -428.000000L291.000000 -429.000000L261.000000 -431.000000L261.000000 -400.000000C298.000000 -400.000000,314.000000 -398.000000,324.000000 -385.000000C329.000000 -379.000000,340.000000 -349.000000,347.000000 -330.000000L261.000000 -88.000000L166.000000 -355.000000C161.000000 -367.000000,161.000000 -369.000000,161.000000 -373.000000C161.000000 -400.000000,200.000000 -400.000000,220.000000 -400.000000L220.000000 -431.000000L111.000000 -431.000000L190.000000 -430.000000L134.000000 -428.000000L111.000000 -428.000000L107.000000 -428.000000L54.000000 -429.000000L18.000000 -431.000000L18.000000 -400.000000C68.000000 -400.000000,80.000000 -397.000000,92.000000 -365.000000L218.000000 -11.000000C223.000000 3.000000,226.000000 11.000000,239.000000 11.000000C252.000000 11.000000,254.000000 5.000000,259.000000 -9.000000L360.000000 -292.000000L462.000000 -8.000000C466.000000 3.000000,469.000000 11.000000,482.000000 11.000000C495.000000 11.000000,498.000000 2.000000,502.000000 -8.000000"></path>
    </g>
    <g transform="scale(0.009963,0.009963)" id="GLYPHcmr10_120">
      <path style="fill-rule: evenodd;" d="M287.000000 -235.000000C317.000000 -273.000000,355.000000 -322.000000,379.000000 -348.000000C410.000000 -384.000000,451.000000 -399.000000,498.000000 -400.000000L498.000000 -431.000000L416.000000 -431.000000L472.000000 -429.000000L442.000000 -428.000000L416.000000 -428.000000L386.000000 -428.000000L333.000000 -430.000000L320.000000 -431.000000L320.000000 -400.000000C341.000000 -398.000000,349.000000 -385.000000,349.000000 -369.000000C349.000000 -353.000000,339.000000 -340.000000,334.000000 -334.000000L272.000000 -256.000000L194.000000 -357.000000C185.000000 -367.000000,185.000000 -369.000000,185.000000 -375.000000C185.000000 -390.000000,200.000000 -399.000000,220.000000 -400.000000L220.000000 -431.000000L112.000000 -431.000000L194.000000 -430.000000L128.000000 -428.000000L112.000000 -428.000000L91.000000 -428.000000L44.000000 -429.000000L17.000000 -431.000000L17.000000 -400.000000C87.000000 -400.000000,88.000000 -399.000000,135.000000 -339.000000L234.000000 -210.000000L140.000000 -91.000000C92.000000 -33.000000,33.000000 -31.000000,12.000000 -31.000000L12.000000 -0.000000L95.000000 -0.000000L38.000000 -2.000000L69.000000 -3.000000L95.000000 -3.000000L124.000000 -3.000000L166.000000 -1.000000L190.000000 -0.000000L190.000000 -31.000000C168.000000 -34.000000,161.000000 -47.000000,161.000000 -62.000000C161.000000 -84.000000,190.000000 -117.000000,251.000000 -189.000000L327.000000 -89.000000C335.000000 -78.000000,348.000000 -62.000000,348.000000 -56.000000C348.000000 -47.000000,339.000000 -32.000000,312.000000 -31.000000L312.000000 -0.000000L420.000000 -0.000000L342.000000 -1.000000L398.000000 -3.000000L420.000000 -3.000000L447.000000 -3.000000L486.000000 -2.000000L516.000000 -0.000000L516.000000 -31.000000C462.000000 -31.000000,444.000000 -33.000000,421.000000 -62.000000"></path>
    </g>
    <g transform="scale(0.009963,0.009963)" id="GLYPHcmr10_121">
      <path style="fill-rule: evenodd;" d="M415.000000 -336.000000C441.000000 -399.000000,492.000000 -400.000000,508.000000 -400.000000L508.000000 -431.000000L433.000000 -431.000000L485.000000 -429.000000L456.000000 -428.000000L433.000000 -428.000000L415.000000 -428.000000L368.000000 -430.000000L346.000000 -431.000000L346.000000 -400.000000C377.000000 -399.000000,393.000000 -382.000000,393.000000 -357.000000C393.000000 -347.000000,392.000000 -345.000000,387.000000 -333.000000L286.000000 -87.000000L175.000000 -356.000000C171.000000 -366.000000,169.000000 -370.000000,169.000000 -374.000000C169.000000 -400.000000,206.000000 -400.000000,225.000000 -400.000000L225.000000 -431.000000L116.000000 -431.000000L199.000000 -430.000000L133.000000 -428.000000L116.000000 -428.000000L89.000000 -428.000000L49.000000 -429.000000L19.000000 -431.000000L19.000000 -400.000000C67.000000 -400.000000,86.000000 -400.000000,100.000000 -365.000000L250.000000 -0.000000C245.000000 13.000000,231.000000 46.000000,225.000000 59.000000C203.000000 114.000000,175.000000 183.000000,111.000000 183.000000C106.000000 183.000000,83.000000 183.000000,64.000000 165.000000C95.000000 161.000000,103.000000 139.000000,103.000000 123.000000C103.000000 97.000000,84.000000 81.000000,61.000000 81.000000C41.000000 81.000000,19.000000 94.000000,19.000000 124.000000C19.000000 169.000000,61.000000 205.000000,111.000000 205.000000C174.000000 205.000000,215.000000 148.000000,239.000000 91.000000"></path>
    </g>
  </defs>
  <path d="M79.000000 253.000000L79.000000 26.228394" style="stroke:rgb(0.000000%,0.000000%,0.000000%); stroke-width: 0.500000;stroke-linecap: round;stroke-linejoin: round;stroke-miterlimit: 10.000000;fill: none;"></path>
  <path d="M80.530792 29.923965L79.000000 26.228394L77.469208 29.923965Z" style="stroke:rgb(0.000000%,0.000000%,0.000000%); stroke-width: 0.500000;fill: rgb(0.000000%,0.000000%,0.000000%);"></path>
  <path d="M79.000000 253.000000L305.771606 253.000000" style="stroke:rgb(0.000000%,0.000000%,0.000000%); stroke-width: 0.500000;stroke-linecap: round;stroke-linejoin: round;stroke-miterlimit: 10.000000;fill: none;"></path>
  <path d="M302.076035 254.530792L305.771606 253.000000L302.076035 251.469208Z" style="stroke:rgb(0.000000%,0.000000%,0.000000%); stroke-width: 0.500000;fill: rgb(0.000000%,0.000000%,0.000000%);"></path>
  <g transform="translate(22.669449 7.686691)" style="fill: rgb(0.000000%,0.000000%,0.000000%);">
    <use xlink:href="#GLYPHcmr10_73"></use>
    <use xlink:href="#GLYPHcmr10_110" x="3.611172"></use>
    <use xlink:href="#GLYPHcmr10_12" x="9.166833"></use>
    <use xlink:href="#GLYPHcmr10_110" x="14.722494"></use>
    <use xlink:href="#GLYPHcmr10_105" x="20.278155"></use>
    <use xlink:href="#GLYPHcmr10_66" x="23.055985"></use>
    <use xlink:href="#GLYPHcmr10_97" x="30.139457"></use>
    <use xlink:href="#GLYPHcmr10_110" x="35.139551"></use>
    <use xlink:href="#GLYPHcmr10_100" x="40.695212"></use>
  </g>
  <g transform="translate(72.067642 7.686691)" style="fill: rgb(0.000000%,0.000000%,0.000000%);">
    <use xlink:href="#GLYPHcmr10_66"></use>
    <use xlink:href="#GLYPHcmr10_97" x="7.083471"></use>
    <use xlink:href="#GLYPHcmr10_110" x="12.083566"></use>
    <use xlink:href="#GLYPHcmr10_100" x="17.639227"></use>
    <use xlink:href="#GLYPHcmr10_119" x="23.194888"></use>
    <use xlink:href="#GLYPHcmr10_105" x="30.417247"></use>
    <use xlink:href="#GLYPHcmr10_100" x="33.195078"></use>
    <use xlink:href="#GLYPHcmr10_116" x="38.750739"></use>
    <use xlink:href="#GLYPHcmr10_104" x="42.639701"></use>
  </g>
  <g transform="translate(123.403046 7.686691)" style="fill: rgb(0.000000%,0.000000%,0.000000%);">
    <use xlink:href="#GLYPHcmr10_102"></use>
    <use xlink:href="#GLYPHcmr10_111" x="3.055621"></use>
    <use xlink:href="#GLYPHcmr10_114" x="8.055716"></use>
  </g>
  <g transform="translate(42.933746 19.641785)" style="fill: rgb(0.000000%,0.000000%,0.000000%);">
    <use xlink:href="#GLYPHcmr10_120"></use>
    <use xlink:href="#GLYPHcmr10_49" x="5.277886"></use>
    <use xlink:href="#GLYPHcmr10_54" x="10.277980"></use>
  </g>
  <g transform="translate(61.475449 19.641785)" style="fill: rgb(0.000000%,0.000000%,0.000000%);">
    <use xlink:href="#GLYPHcmr10_108"></use>
    <use xlink:href="#GLYPHcmr10_105" x="2.777830"></use>
    <use xlink:href="#GLYPHcmr10_110" x="5.555661"></use>
    <use xlink:href="#GLYPHcmr10_107" x="11.111322"></use>
    <use xlink:href="#GLYPHcmr10_115" x="16.389207"></use>
  </g>
  <g transform="translate(85.053741 19.641785)" style="fill: rgb(0.000000%,0.000000%,0.000000%);">
    <use xlink:href="#GLYPHcmr10_40"></use>
    <use xlink:href="#GLYPHcmr10_71" x="3.888963"></use>
    <use xlink:href="#GLYPHcmr10_98" x="11.736332"></use>
    <use xlink:href="#GLYPHcmr10_47" x="17.291993"></use>
    <use xlink:href="#GLYPHcmr10_115" x="22.292087"></use>
    <use xlink:href="#GLYPHcmr10_41" x="26.236602"></use>
  </g>
  <g transform="translate(164.753250 277.645233)" style="fill: rgb(0.000000%,0.000000%,0.000000%);">
    <use xlink:href="#GLYPHcmr10_76"></use>
    <use xlink:href="#GLYPHcmr10_97" x="6.250115"></use>
    <use xlink:href="#GLYPHcmr10_116" x="11.250210"></use>
    <use xlink:href="#GLYPHcmr10_101" x="15.139172"></use>
    <use xlink:href="#GLYPHcmr10_110" x="19.583701"></use>
    <use xlink:href="#GLYPHcmr10_99" x="25.139362"></use>
    <use xlink:href="#GLYPHcmr10_121" x="29.583890"></use>
  </g>
  <g transform="translate(202.805054 277.645233)" style="fill: rgb(0.000000%,0.000000%,0.000000%);">
    <use xlink:href="#GLYPHcmr10_40"></use>
    <use xlink:href="#GLYPHcmr10_117" x="3.888963"></use>
    <use xlink:href="#GLYPHcmr10_115" x="9.444624"></use>
    <use xlink:href="#GLYPHcmr10_41" x="13.389138"></use>
  </g>
  <path d="M114.433060 253.000000L114.433060 250.011215" style="stroke:rgb(0.000000%,0.000000%,0.000000%); stroke-width: 0.500000;stroke-linecap: round;stroke-linejoin: round;stroke-miterlimit: 10.000000;fill: none;"></path>
  <g transform="translate(111.942383 262.420364)" style="fill: rgb(0.000000%,0.000000%,0.000000%);">
    <use xlink:href="#GLYPHcmr10_49"></use>
  </g>
  <path d="M149.866135 253.000000L149.866135 250.011215" style="stroke:rgb(0.000000%,0.000000%,0.000000%); stroke-width: 0.500000;stroke-linecap: round;stroke-linejoin: round;stroke-miterlimit: 10.000000;fill: none;"></path>
  <g transform="translate(147.375458 262.420364)" style="fill: rgb(0.000000%,0.000000%,0.000000%);">
    <use xlink:href="#GLYPHcmr10_50"></use>
  </g>
  <path d="M185.299194 253.000000L185.299194 250.011215" style="stroke:rgb(0.000000%,0.000000%,0.000000%); stroke-width: 0.500000;stroke-linecap: round;stroke-linejoin: round;stroke-miterlimit: 10.000000;fill: none;"></path>
  <g transform="translate(182.808517 262.420364)" style="fill: rgb(0.000000%,0.000000%,0.000000%);">
    <use xlink:href="#GLYPHcmr10_51"></use>
  </g>
  <path d="M220.732254 253.000000L220.732254 250.011215" style="stroke:rgb(0.000000%,0.000000%,0.000000%); stroke-width: 0.500000;stroke-linecap: round;stroke-linejoin: round;stroke-miterlimit: 10.000000;fill: none;"></path>
  <g transform="translate(218.241577 262.420364)" style="fill: rgb(0.000000%,0.000000%,0.000000%);">
    <use xlink:href="#GLYPHcmr10_52"></use>
  </g>
  <path d="M256.165329 253.000000L256.165329 250.011215" style="stroke:rgb(0.000000%,0.000000%,0.000000%); stroke-width: 0.500000;stroke-linecap: round;stroke-linejoin: round;stroke-miterlimit: 10.000000;fill: none;"></path>
  <g transform="translate(253.674652 262.420364)" style="fill: rgb(0.000000%,0.000000%,0.000000%);">
    <use xlink:href="#GLYPHcmr10_53"></use>
  </g>
  <path d="M291.598389 253.000000L291.598389 250.011215" style="stroke:rgb(0.000000%,0.000000%,0.000000%); stroke-width: 0.500000;stroke-linecap: round;stroke-linejoin: round;stroke-miterlimit: 10.000000;fill: none;"></path>
  <g transform="translate(289.107712 262.420364)" style="fill: rgb(0.000000%,0.000000%,0.000000%);">
    <use xlink:href="#GLYPHcmr10_54"></use>
  </g>
  <path d="M79.000000 226.425201L81.988785 226.425201" style="stroke:rgb(0.000000%,0.000000%,0.000000%); stroke-width: 0.500000;stroke-linecap: round;stroke-linejoin: round;stroke-miterlimit: 10.000000;fill: none;"></path>
  <g transform="translate(66.037323 229.635391)" style="fill: rgb(0.000000%,0.000000%,0.000000%);">
    <use xlink:href="#GLYPHcmr10_49"></use>
    <use xlink:href="#GLYPHcmr10_54" x="5.000095"></use>
  </g>
  <path d="M79.000000 199.850403L81.988785 199.850403" style="stroke:rgb(0.000000%,0.000000%,0.000000%); stroke-width: 0.500000;stroke-linecap: round;stroke-linejoin: round;stroke-miterlimit: 10.000000;fill: none;"></path>
  <g transform="translate(66.037323 203.060593)" style="fill: rgb(0.000000%,0.000000%,0.000000%);">
    <use xlink:href="#GLYPHcmr10_51"></use>
    <use xlink:href="#GLYPHcmr10_50" x="5.000095"></use>
  </g>
  <path d="M79.000000 173.275604L81.988785 173.275604" style="stroke:rgb(0.000000%,0.000000%,0.000000%); stroke-width: 0.500000;stroke-linecap: round;stroke-linejoin: round;stroke-miterlimit: 10.000000;fill: none;"></path>
  <g transform="translate(66.037323 176.485794)" style="fill: rgb(0.000000%,0.000000%,0.000000%);">
    <use xlink:href="#GLYPHcmr10_52"></use>
    <use xlink:href="#GLYPHcmr10_56" x="5.000095"></use>
  </g>
  <path d="M79.000000 146.700806L81.988785 146.700806" style="stroke:rgb(0.000000%,0.000000%,0.000000%); stroke-width: 0.500000;stroke-linecap: round;stroke-linejoin: round;stroke-miterlimit: 10.000000;fill: none;"></path>
  <g transform="translate(66.037323 149.910995)" style="fill: rgb(0.000000%,0.000000%,0.000000%);">
    <use xlink:href="#GLYPHcmr10_54"></use>
    <use xlink:href="#GLYPHcmr10_52" x="5.000095"></use>
  </g>
  <path d="M79.000000 120.126007L81.988785 120.126007" style="stroke:rgb(0.000000%,0.000000%,0.000000%); stroke-width: 0.500000;stroke-linecap: round;stroke-linejoin: round;stroke-miterlimit: 10.000000;fill: none;"></path>
  <g transform="translate(66.037323 123.336197)" style="fill: rgb(0.000000%,0.000000%,0.000000%);">
    <use xlink:href="#GLYPHcmr10_56"></use>
    <use xlink:href="#GLYPHcmr10_48" x="5.000095"></use>
  </g>
  <path d="M79.000000 93.551208L81.988785 93.551208" style="stroke:rgb(0.000000%,0.000000%,0.000000%); stroke-width: 0.500000;stroke-linecap: round;stroke-linejoin: round;stroke-miterlimit: 10.000000;fill: none;"></path>
  <g transform="translate(66.037323 96.761398)" style="fill: rgb(0.000000%,0.000000%,0.000000%);">
    <use xlink:href="#GLYPHcmr10_57"></use>
    <use xlink:href="#GLYPHcmr10_54" x="5.000095"></use>
  </g>
  <path d="M79.000000 66.976410L81.988785 66.976410" style="stroke:rgb(0.000000%,0.000000%,0.000000%); stroke-width: 0.500000;stroke-linecap: round;stroke-linejoin: round;stroke-miterlimit: 10.000000;fill: none;"></path>
  <g transform="translate(61.055984 70.186600)" style="fill: rgb(0.000000%,0.000000%,0.000000%);">
    <use xlink:href="#GLYPHcmr10_49"></use>
    <use xlink:href="#GLYPHcmr10_49" x="5.000095"></use>
    <use xlink:href="#GLYPHcmr10_50" x="10.000190"></use>
  </g>
  <path d="M79.000000 40.401611L81.988785 40.401611" style="stroke:rgb(0.000000%,0.000000%,0.000000%); stroke-width: 0.500000;stroke-linecap: round;stroke-linejoin: round;stroke-miterlimit: 10.000000;fill: none;"></path>
  <g transform="translate(61.055984 43.611801)" style="fill: rgb(0.000000%,0.000000%,0.000000%);">
    <use xlink:href="#GLYPHcmr10_49"></use>
    <use xlink:href="#GLYPHcmr10_50" x="5.000095"></use>
    <use xlink:href="#GLYPHcmr10_56" x="10.000190"></use>
  </g>
  <path d="M256.165329 239.712601l0 0" style="stroke:rgb(0.000000%,0.000000%,0.000000%); stroke-width: 4.000000;stroke-linecap: round;stroke-linejoin: round;stroke-miterlimit: 10.000000;fill: none;"></path>
  <g transform="translate(259.165329 237.138931)" style="fill: rgb(0.000000%,0.000000%,0.000000%);">
    <use xlink:href="#GLYPHcmr10_83"></use>
    <use xlink:href="#GLYPHcmr10_68" x="5.555661"></use>
    <use xlink:href="#GLYPHcmr10_82" x="13.194683"></use>
  </g>
  <path d="M167.582657 226.425201l0 0" style="stroke:rgb(0.000000%,0.000000%,0.000000%); stroke-width: 4.000000;stroke-linecap: round;stroke-linejoin: round;stroke-miterlimit: 10.000000;fill: none;"></path>
  <path d="M246.202713 238.218262L177.545273 227.919540" style="stroke:rgb(0.000000%,0.000000%,0.000000%); stroke-width: 0.500000;stroke-linecap: round;stroke-linejoin: round;stroke-miterlimit: 10.000000;fill: none;"></path>
  <path d="M181.427063 226.953903L177.545273 227.919540L180.972900 229.981644Z" style="stroke:rgb(0.000000%,0.000000%,0.000000%); stroke-width: 0.500000;fill: rgb(0.000000%,0.000000%,0.000000%);"></path>
  <g transform="translate(170.582657 223.851532)" style="fill: rgb(0.000000%,0.000000%,0.000000%);">
    <use xlink:href="#GLYPHcmr10_68"></use>
    <use xlink:href="#GLYPHcmr10_68" x="7.639022"></use>
    <use xlink:href="#GLYPHcmr10_82" x="15.278045"></use>
  </g>
  <path d="M132.149597 199.850403l0 0" style="stroke:rgb(0.000000%,0.000000%,0.000000%); stroke-width: 4.000000;stroke-linecap: round;stroke-linejoin: round;stroke-miterlimit: 10.000000;fill: none;"></path>
  <path d="M162.601349 222.689209L137.130905 203.586395" style="stroke:rgb(0.000000%,0.000000%,0.000000%); stroke-width: 0.500000;stroke-linecap: round;stroke-linejoin: round;stroke-miterlimit: 10.000000;fill: none;"></path>
  <path d="M141.005936 204.579132L137.130905 203.586395L139.168930 207.028442Z" style="stroke:rgb(0.000000%,0.000000%,0.000000%); stroke-width: 0.500000;fill: rgb(0.000000%,0.000000%,0.000000%);"></path>
  <g transform="translate(135.149597 196.308136)" style="fill: rgb(0.000000%,0.000000%,0.000000%);">
    <use xlink:href="#GLYPHcmr10_81"></use>
    <use xlink:href="#GLYPHcmr10_68" x="7.777925"></use>
    <use xlink:href="#GLYPHcmr10_82" x="15.416948"></use>
  </g>
  <path d="M103.803040 162.379944l0 0" style="stroke:rgb(0.000000%,0.000000%,0.000000%); stroke-width: 4.000000;stroke-linecap: round;stroke-linejoin: round;stroke-miterlimit: 10.000000;fill: none;"></path>
  <path d="M128.828720 195.460648L104.910004 166.769699" style="stroke:rgb(0.000000%,0.000000%,0.000000%); stroke-width: 0.500000;stroke-linecap: round;stroke-linejoin: round;stroke-miterlimit: 10.000000;fill: none;"></path>
  <path d="M108.452164 168.628021L104.910004 166.769699L106.100601 170.588440Z" style="stroke:rgb(0.000000%,0.000000%,0.000000%); stroke-width: 0.500000;fill: rgb(0.000000%,0.000000%,0.000000%);"></path>
  <g transform="translate(106.803040 159.806274)" style="fill: rgb(0.000000%,0.000000%,0.000000%);">
    <use xlink:href="#GLYPHcmr10_70"></use>
    <use xlink:href="#GLYPHcmr10_68" x="6.527905"></use>
    <use xlink:href="#GLYPHcmr10_82" x="14.166928"></use>
  </g>
  <path d="M96.716537 91.956680l0 0" style="stroke:rgb(0.000000%,0.000000%,0.000000%); stroke-width: 4.000000;stroke-linecap: round;stroke-linejoin: round;stroke-miterlimit: 10.000000;fill: none;"></path>
  <path d="M102.972824 154.129517L97.546753 100.207108" style="stroke:rgb(0.000000%,0.000000%,0.000000%); stroke-width: 0.500000;stroke-linecap: round;stroke-linejoin: round;stroke-miterlimit: 10.000000;fill: none;"></path>
  <path d="M99.439804 103.730728L97.546753 100.207108L96.393723 104.037247Z" style="stroke:rgb(0.000000%,0.000000%,0.000000%); stroke-width: 0.500000;fill: rgb(0.000000%,0.000000%,0.000000%);"></path>
  <g transform="translate(99.716537 89.383011)" style="fill: rgb(0.000000%,0.000000%,0.000000%);">
    <use xlink:href="#GLYPHcmr10_69"></use>
    <use xlink:href="#GLYPHcmr10_68" x="6.805681"></use>
    <use xlink:href="#GLYPHcmr10_82" x="14.444703"></use>
  </g>
  <path d="M36.480316 199.850403L59.074768 199.850403" style="stroke:rgb(0.000000%,0.000000%,0.000000%); stroke-width: 0.500000;stroke-linecap: round;stroke-linejoin: round;stroke-miterlimit: 10.000000;fill: none;"></path>
  <path d="M55.379333 201.381134L59.074768 199.850403L55.379333 198.319672Z" style="stroke:rgb(0.000000%,0.000000%,0.000000%); stroke-width: 0.500000;fill: rgb(0.000000%,0.000000%,0.000000%);"></path>
  <g transform="translate(5.501923 196.263870)" style="fill: rgb(0.000000%,0.000000%,0.000000%);">
    <use xlink:href="#GLYPHcmr10_80"></use>
    <use xlink:href="#GLYPHcmr10_67" x="6.805681"></use>
    <use xlink:href="#GLYPHcmr10_73" x="14.028040"></use>
    <use xlink:href="#GLYPHcmr10_101" x="17.639212"></use>
  </g>
  <g transform="translate(10.137329 208.218964)" style="fill: rgb(0.000000%,0.000000%,0.000000%);">
    <use xlink:href="#GLYPHcmr10_49"></use>
    <use xlink:href="#GLYPHcmr10_46" x="5.000095"></use>
    <use xlink:href="#GLYPHcmr10_48" x="7.777925"></use>
  </g>
  <path d="M36.480316 146.700806L59.074768 146.700806" style="stroke:rgb(0.000000%,0.000000%,0.000000%); stroke-width: 0.500000;stroke-linecap: round;stroke-linejoin: round;stroke-miterlimit: 10.000000;fill: none;"></path>
  <path d="M55.379333 148.231537L59.074768 146.700806L55.379333 145.170074Z" style="stroke:rgb(0.000000%,0.000000%,0.000000%); stroke-width: 0.500000;fill: rgb(0.000000%,0.000000%,0.000000%);"></path>
  <g transform="translate(5.501923 143.114273)" style="fill: rgb(0.000000%,0.000000%,0.000000%);">
    <use xlink:href="#GLYPHcmr10_80"></use>
    <use xlink:href="#GLYPHcmr10_67" x="6.805681"></use>
    <use xlink:href="#GLYPHcmr10_73" x="14.028040"></use>
    <use xlink:href="#GLYPHcmr10_101" x="17.639212"></use>
  </g>
  <g transform="translate(10.137329 155.069366)" style="fill: rgb(0.000000%,0.000000%,0.000000%);">
    <use xlink:href="#GLYPHcmr10_50"></use>
    <use xlink:href="#GLYPHcmr10_46" x="5.000095"></use>
    <use xlink:href="#GLYPHcmr10_48" x="7.777925"></use>
  </g>
  <path d="M36.480316 40.401611L59.074768 40.401611" style="stroke:rgb(0.000000%,0.000000%,0.000000%); stroke-width: 0.500000;stroke-linecap: round;stroke-linejoin: round;stroke-miterlimit: 10.000000;fill: none;"></path>
  <path d="M55.379333 41.932343L59.074768 40.401611L55.379333 38.870880Z" style="stroke:rgb(0.000000%,0.000000%,0.000000%); stroke-width: 0.500000;fill: rgb(0.000000%,0.000000%,0.000000%);"></path>
  <g transform="translate(5.501923 36.815079)" style="fill: rgb(0.000000%,0.000000%,0.000000%);">
    <use xlink:href="#GLYPHcmr10_80"></use>
    <use xlink:href="#GLYPHcmr10_67" x="6.805681"></use>
    <use xlink:href="#GLYPHcmr10_73" x="14.028040"></use>
    <use xlink:href="#GLYPHcmr10_101" x="17.639212"></use>
  </g>
  <g transform="translate(10.137329 48.770172)" style="fill: rgb(0.000000%,0.000000%,0.000000%);">
    <use xlink:href="#GLYPHcmr10_51"></use>
    <use xlink:href="#GLYPHcmr10_46" x="5.000095"></use>
    <use xlink:href="#GLYPHcmr10_48" x="7.777925"></use>
  </g>
</svg>
